<svg xmlns="http://www.w3.org/2000/svg" width="250" height="59.702">
 <g data-name="Group 1" fill="#8D5F2E">
  <path data-name="Path 198" d="M.911 18.833a.911.911 0 0 1-.91-.911v-3.4a.91.91 0 1 1 1.821 0v3.4a.911.911 0 0 1-.911.911"/>
  <path data-name="Path 199" d="M6.802 22.238a.911.911 0 0 1-.911-.911v-10.2a.91.91 0 1 1 1.821 0v10.2a.911.911 0 0 1-.91.911"/>
  <path data-name="Path 200" d="M12.703 25.649a.911.911 0 0 1-.911-.911V7.73a.911.911 0 1 1 1.822 0v17.012a.911.911 0 0 1-.911.911"/>
  <path data-name="Path 201" d="M18.597 29.059a.911.911 0 0 1-.911-.911V4.328a.91.91 0 1 1 1.821 0v23.82a.911.911 0 0 1-.91.911"/>
  <path data-name="Path 202" d="M24.494 32.461a.911.911 0 0 1-.911-.911V.918a.91.91 0 1 1 1.821 0V31.55a.911.911 0 0 1-.91.911"/>
  <path data-name="Path 203" d="M53.974 15.436a.9.9 0 0 1-.454-.122L29.938 1.7a.911.911 0 0 1 .911-1.578L54.43 13.736a.911.911 0 0 1-.456 1.7"/>
  <path data-name="Path 204" d="M53.974 22.245a.9.9 0 0 1-.454-.122L29.938 8.509a.911.911 0 1 1 .911-1.578L54.43 20.545a.911.911 0 0 1-.456 1.7"/>
  <path data-name="Path 205" d="M53.974 29.061a.9.9 0 0 1-.454-.122L29.936 15.321a.911.911 0 0 1 .911-1.577l23.581 13.617a.911.911 0 0 1-.456 1.7"/>
  <path data-name="Path 206" d="M53.974 35.841a.907.907 0 0 1-.454-.122L29.936 22.106a.91.91 0 1 1 .911-1.577l23.581 13.614a.911.911 0 0 1-.456 1.7"/>
  <path data-name="Path 207" d="M53.974 15.436a.9.9 0 0 1-.454-.122L29.938 1.7a.911.911 0 0 1 .911-1.578L54.43 13.736a.911.911 0 0 1-.456 1.7"/>
  <path data-name="Path 208" d="M53.974 22.245a.9.9 0 0 1-.454-.122L29.938 8.509a.911.911 0 1 1 .911-1.578L54.43 20.545a.911.911 0 0 1-.456 1.7"/>
  <path data-name="Path 209" d="M53.974 29.061a.9.9 0 0 1-.454-.122L29.936 15.321a.911.911 0 0 1 .911-1.577l23.581 13.617a.911.911 0 0 1-.456 1.7"/>
  <path data-name="Path 210" d="M53.974 35.841a.907.907 0 0 1-.454-.122L29.936 22.106a.91.91 0 1 1 .911-1.577l23.581 13.614a.911.911 0 0 1-.456 1.7"/>
  <path data-name="Path 211" d="M53.971 46.098a.911.911 0 0 1-.91-.911v-3.4a.91.91 0 1 1 1.821 0v3.4a.911.911 0 0 1-.911.911"/>
  <path data-name="Path 212" d="M48.076 49.493a.911.911 0 0 1-.911-.911v-10.2a.911.911 0 0 1 1.821 0v10.2a.911.911 0 0 1-.911.911"/>
  <path data-name="Path 213" d="M42.18 52.894a.911.911 0 0 1-.911-.911V34.972a.91.91 0 1 1 1.821 0v17.011a.911.911 0 0 1-.91.911"/>
  <path data-name="Path 214" d="M36.286 56.293a.911.911 0 0 1-.911-.911v-23.82a.911.911 0 1 1 1.822 0v23.82a.91.91 0 0 1-.911.911"/>
  <path data-name="Path 215" d="M30.389 59.703a.911.911 0 0 1-.911-.911V28.16a.911.911 0 1 1 1.821 0v30.632a.911.911 0 0 1-.911.911"/>
  <path data-name="Path 216" d="M24.492 39.273a.906.906 0 0 1-.454-.122L.456 25.537a.911.911 0 0 1 .91-1.578l23.582 13.614a.911.911 0 0 1-.456 1.7"/>
  <path data-name="Path 217" d="M24.492 46.082a.9.9 0 0 1-.454-.122L.456 32.346a.911.911 0 0 1 .91-1.577l23.582 13.614a.911.911 0 0 1-.456 1.7"/>
  <path data-name="Path 218" d="M24.492 52.894a.906.906 0 0 1-.454-.122L.456 39.156a.911.911 0 0 1 .91-1.577l23.582 13.614a.911.911 0 0 1-.456 1.7"/>
  <path data-name="Path 219" d="M24.492 59.678a.9.9 0 0 1-.454-.122L.456 45.942a.91.91 0 1 1 .91-1.577l23.582 13.614a.911.911 0 0 1-.456 1.7"/>
  <path data-name="Path 220" d="M79.719 23.742a3.136 3.136 0 0 0 2.3-.808 2.759 2.759 0 0 0 .822-2.055 2.793 2.793 0 0 0-.822-2.083 3.136 3.136 0 0 0-2.3-.808h-4.734v5.754Zm-.283-8.7a3.184 3.184 0 0 0 2.24-.709 2.464 2.464 0 0 0 .765-1.9 2.366 2.366 0 0 0-.765-1.885 3.321 3.321 0 0 0-2.24-.666h-4.451v5.159Zm-8.19 11.506a.654.654 0 0 1-.2-.482V7.612a.721.721 0 0 1 .184-.51.644.644 0 0 1 .5-.2h8.216a7.227 7.227 0 0 1 4.947 1.461 5.076 5.076 0 0 1 1.63 3.983 4.268 4.268 0 0 1-.723 2.508 4.311 4.311 0 0 1-1.686 1.488 4.735 4.735 0 0 1 2 1.757 4.917 4.917 0 0 1 .808 2.778 5.482 5.482 0 0 1-1.772 4.252 7.117 7.117 0 0 1-4.975 1.616h-8.448a.653.653 0 0 1-.482-.2"/>
  <path data-name="Path 221" d="M99.761 19.49v-9.213h-.369l-4.593 9.213Zm-11.655 7.087a.577.577 0 0 1-.17-.425 1.577 1.577 0 0 1 .056-.312 60.972 60.972 0 0 1 2.452-5.868q1.658-3.543 6.279-12.359a1.056 1.056 0 0 1 .964-.708h14.882a.68.68 0 0 1 .709.708v1.871a.642.642 0 0 1-.2.5.717.717 0 0 1-.51.185h-8.986v5.017h8.363a.721.721 0 0 1 .51.185.647.647 0 0 1 .2.5v1.757a.647.647 0 0 1-.2.5.722.722 0 0 1-.51.184h-8.363V23.5h9.213a.68.68 0 0 1 .709.708v1.86a.646.646 0 0 1-.2.5.72.72 0 0 1-.51.184h-12.36a.677.677 0 0 1-.68-.68v-3.317h-6.123q-1.645 3.006-1.786 3.458a.822.822 0 0 1-.822.539h-2.517a.544.544 0 0 1-.4-.17"/>
  <path data-name="Path 222" d="M124.735 16.059a3.764 3.764 0 0 0 2.565-.765 2.8 2.8 0 0 0 .864-2.211 2.888 2.888 0 0 0-.864-2.24 3.677 3.677 0 0 0-2.565-.794h-4v6.01Zm-7.739 10.489a.655.655 0 0 1-.2-.482V7.612a.718.718 0 0 1 .184-.51.643.643 0 0 1 .5-.2h7.342a8.32 8.32 0 0 1 5.428 1.616 5.6 5.6 0 0 1 1.971 4.592 5.807 5.807 0 0 1-1.007 3.473 5.6 5.6 0 0 1-2.792 2.027l4.139 7.229a.7.7 0 0 1 .085.312.554.554 0 0 1-.184.425.592.592 0 0 1-.411.17h-2.58a1.067 1.067 0 0 1-.694-.2 1.879 1.879 0 0 1-.439-.567l-3.656-6.719h-3.941v6.8a.682.682 0 0 1-.184.482.646.646 0 0 1-.5.2h-2.579a.656.656 0 0 1-.482-.2"/>
  <path data-name="Path 223" d="M135.789 26.548a.655.655 0 0 1-.2-.482V7.612a.721.721 0 0 1 .184-.51.644.644 0 0 1 .5-.2h12.473a.681.681 0 0 1 .709.709v1.871a.645.645 0 0 1-.2.5.721.721 0 0 1-.51.184h-9.326v5.018h8.7a.72.72 0 0 1 .51.184.646.646 0 0 1 .2.5v1.758a.644.644 0 0 1-.2.5.718.718 0 0 1-.51.185h-8.7v5.188h9.553a.679.679 0 0 1 .708.709v1.86a.646.646 0 0 1-.2.5.721.721 0 0 1-.51.184h-12.7a.655.655 0 0 1-.482-.2"/>
  <path data-name="Path 224" d="M160.537 23.487a4.674 4.674 0 0 0 3.43-1.063 5.039 5.039 0 0 0 1.106-3.5q.056-1.7.057-2.126 0-.453-.057-2.1a4.05 4.05 0 0 0-4.678-4.536h-3.514v13.323Zm-7.4 3.061a.656.656 0 0 1-.2-.482V7.612a.721.721 0 0 1 .185-.51.644.644 0 0 1 .5-.2h6.917q8.334 0 8.5 7.711.056 1.645.056 2.211 0 .539-.056 2.183-.114 3.969-2.126 5.854t-6.237 1.885h-7.058a.656.656 0 0 1-.482-.2"/>
  <path data-name="Path 225" d="M177.12 26.548a.656.656 0 0 1-.2-.482V19.66l-6.69-11.849a.6.6 0 0 1-.085-.312.577.577 0 0 1 .171-.425.543.543 0 0 1 .4-.171h2.523a.814.814 0 0 1 .524.171 1.305 1.305 0 0 1 .326.369l4.819 8.249 4.791-8.249a1.012 1.012 0 0 1 .879-.539h2.495a.582.582 0 0 1 .595.6.6.6 0 0 1-.085.312l-6.69 11.849v6.403a.658.658 0 0 1-.2.482.692.692 0 0 1-.51.2h-2.585a.655.655 0 0 1-.481-.2"/>
  <path data-name="Path 226" d="M191.023 25.017a7.719 7.719 0 0 1-2.31-5.613q-.029-.822-.028-2.636t.028-2.636a7.513 7.513 0 0 1 2.339-5.514 8.614 8.614 0 0 1 6.023-2 10.465 10.465 0 0 1 4.479.879 7.212 7.212 0 0 1 2.835 2.2 4.774 4.774 0 0 1 1.021 2.593v.056a.5.5 0 0 1-.17.383.605.605 0 0 1-.425.156h-2.92a.743.743 0 0 1-.426-.1.827.827 0 0 1-.255-.355 4.046 4.046 0 0 0-1.389-1.8 4.468 4.468 0 0 0-2.75-.751 4.29 4.29 0 0 0-3.1 1.077 4.668 4.668 0 0 0-1.205 3.317q-.028.823-.028 2.495 0 1.644.028 2.494.17 4.508 4.366 4.507a4.662 4.662 0 0 0 3.231-1.091 4.132 4.132 0 0 0 1.219-3.246v-.879h-3.458a.642.642 0 0 1-.5-.2.717.717 0 0 1-.183-.51v-1.5a.721.721 0 0 1 .183-.51.646.646 0 0 1 .5-.2h6.775a.648.648 0 0 1 .5.2.724.724 0 0 1 .184.51v2.977a7.876 7.876 0 0 1-1.034 4.1 6.807 6.807 0 0 1-2.963 2.679 10.212 10.212 0 0 1-4.507.936 8.555 8.555 0 0 1-6.052-2.013"/>
  <path data-name="Path 227" d="M213.29 26.548a.656.656 0 0 1-.2-.482V10.39h-5.244a.678.678 0 0 1-.681-.681v-2.1a.718.718 0 0 1 .185-.51.642.642 0 0 1 .5-.2h14.457a.68.68 0 0 1 .708.709v2.1a.655.655 0 0 1-.2.482.692.692 0 0 1-.51.2h-5.216v15.678a.658.658 0 0 1-.2.482.692.692 0 0 1-.51.2h-2.608a.656.656 0 0 1-.482-.2"/>
  <path data-name="Path 228" d="M225.792 26.548a.656.656 0 0 1-.2-.482V7.584a.644.644 0 0 1 .2-.5.681.681 0 0 1 .481-.185h2.668a.636.636 0 0 1 .681.681v18.488a.682.682 0 0 1-.185.482.644.644 0 0 1-.5.2h-2.665a.654.654 0 0 1-.481-.2"/>
  <path data-name="Path 229" d="M235.444 25.017a7.718 7.718 0 0 1-2.31-5.613q-.029-.822-.029-2.636t.029-2.636a7.512 7.512 0 0 1 2.339-5.514 8.614 8.614 0 0 1 6.023-2 10.465 10.465 0 0 1 4.479.879 7.211 7.211 0 0 1 2.835 2.2 4.773 4.773 0 0 1 1.021 2.593v.056a.5.5 0 0 1-.17.383.6.6 0 0 1-.425.156h-2.92a.743.743 0 0 1-.426-.1.833.833 0 0 1-.255-.355 4.041 4.041 0 0 0-1.389-1.8 4.467 4.467 0 0 0-2.75-.751 4.292 4.292 0 0 0-3.1 1.077 4.67 4.67 0 0 0-1.2 3.317q-.028.823-.028 2.495 0 1.644.028 2.494.17 4.508 4.366 4.507a4.662 4.662 0 0 0 3.231-1.091 4.132 4.132 0 0 0 1.219-3.246v-.879h-3.458a.643.643 0 0 1-.5-.2.717.717 0 0 1-.183-.51v-1.5a.721.721 0 0 1 .183-.51.646.646 0 0 1 .5-.2h6.775a.648.648 0 0 1 .5.2.724.724 0 0 1 .184.51v2.977a7.882 7.882 0 0 1-1.034 4.1 6.807 6.807 0 0 1-2.963 2.679 10.212 10.212 0 0 1-4.507.936 8.555 8.555 0 0 1-6.052-2.013"/>
  <path data-name="Path 230" d="M71.246 52.589a.653.653 0 0 1-.2-.482V33.654a.719.719 0 0 1 .184-.51.644.644 0 0 1 .5-.2h2.58a.644.644 0 0 1 .5.2.719.719 0 0 1 .184.51v7.313h8.352v-7.313a.717.717 0 0 1 .185-.51.642.642 0 0 1 .5-.2h2.551a.681.681 0 0 1 .709.709v18.454a.642.642 0 0 1-.2.5.717.717 0 0 1-.51.185H84.03a.678.678 0 0 1-.68-.68v-7.6h-8.363v7.6a.68.68 0 0 1-.184.482.642.642 0 0 1-.5.2h-2.58a.652.652 0 0 1-.482-.2"/>
  <path data-name="Path 231" d="M91.625 52.589a.652.652 0 0 1-.2-.482V33.654a.717.717 0 0 1 .185-.51.642.642 0 0 1 .5-.2h12.473a.68.68 0 0 1 .708.709v1.87a.644.644 0 0 1-.2.5.72.72 0 0 1-.51.185h-9.328v5.011h8.7a.72.72 0 0 1 .51.185.643.643 0 0 1 .2.5v1.758a.643.643 0 0 1-.2.5.717.717 0 0 1-.51.185h-8.7v5.188h9.553a.68.68 0 0 1 .709.708v1.871a.642.642 0 0 1-.2.5.717.717 0 0 1-.51.185h-12.7a.652.652 0 0 1-.482-.2"/>
  <path data-name="Path 232" d="M116.712 42.101a3.768 3.768 0 0 0 2.566-.765 2.8 2.8 0 0 0 .864-2.211 2.888 2.888 0 0 0-.864-2.24 3.677 3.677 0 0 0-2.566-.794h-4V42.1Zm-7.738 10.488a.653.653 0 0 1-.2-.482V33.654a.72.72 0 0 1 .184-.51.644.644 0 0 1 .5-.2h7.342a8.323 8.323 0 0 1 5.429 1.616 5.6 5.6 0 0 1 1.97 4.593 5.8 5.8 0 0 1-1.006 3.473 5.6 5.6 0 0 1-2.792 2.026l4.139 7.229a.71.71 0 0 1 .085.312.557.557 0 0 1-.184.426.593.593 0 0 1-.411.17h-2.58a1.062 1.062 0 0 1-.694-.2 1.844 1.844 0 0 1-.439-.567l-3.657-6.718h-3.94v6.8a.681.681 0 0 1-.184.482.642.642 0 0 1-.5.2h-2.58a.653.653 0 0 1-.482-.2"/>
  <path data-name="Path 233" d="M127.767 52.589a.655.655 0 0 1-.2-.482V33.654a.719.719 0 0 1 .184-.51.643.643 0 0 1 .5-.2h2.184a.845.845 0 0 1 .51.128 1.476 1.476 0 0 1 .312.326l8.164 12.7V33.654a.717.717 0 0 1 .184-.51.643.643 0 0 1 .5-.2h2.381a.681.681 0 0 1 .709.709v18.426a.689.689 0 0 1-.2.51.655.655 0 0 1-.482.2h-2.211a1 1 0 0 1-.822-.454l-8.145-12.416v12.19a.644.644 0 0 1-.2.5.719.719 0 0 1-.51.185h-2.381a.654.654 0 0 1-.482-.2"/>
  <path data-name="Path 234" d="M147.525 52.589a.655.655 0 0 1-.2-.482V33.625a.646.646 0 0 1 .2-.5.683.683 0 0 1 .482-.184h2.665a.634.634 0 0 1 .68.68v18.483a.681.681 0 0 1-.184.482.642.642 0 0 1-.5.2h-2.665a.653.653 0 0 1-.482-.2"/>
  <path data-name="Path 235" d="M155.717 52.589a.655.655 0 0 1-.2-.482V33.654a.72.72 0 0 1 .184-.51.644.644 0 0 1 .5-.2h2.183a.846.846 0 0 1 .51.128 1.488 1.488 0 0 1 .312.326l8.164 12.7V33.654a.72.72 0 0 1 .184-.51.644.644 0 0 1 .5-.2h2.381a.681.681 0 0 1 .709.709v18.426a.689.689 0 0 1-.2.51.655.655 0 0 1-.482.2h-2.214a1 1 0 0 1-.823-.454l-8.137-12.416v12.19a.642.642 0 0 1-.2.5.718.718 0 0 1-.51.185h-2.38a.653.653 0 0 1-.482-.2"/>
  <path data-name="Path 236" d="M176.934 51.058a7.715 7.715 0 0 1-2.31-5.613q-.029-.822-.029-2.636t.029-2.636a7.51 7.51 0 0 1 2.339-5.514 8.616 8.616 0 0 1 6.024-2 10.468 10.468 0 0 1 4.479.879 7.214 7.214 0 0 1 2.835 2.2 4.779 4.779 0 0 1 1.02 2.594v.056a.5.5 0 0 1-.17.383.6.6 0 0 1-.425.156h-2.92a.74.74 0 0 1-.425-.1.826.826 0 0 1-.255-.354 4.042 4.042 0 0 0-1.389-1.8 4.466 4.466 0 0 0-2.749-.751 4.292 4.292 0 0 0-3.1 1.077 4.67 4.67 0 0 0-1.2 3.317q-.028.822-.028 2.494 0 1.644.028 2.495.17 4.507 4.366 4.507a4.663 4.663 0 0 0 3.225-1.095 4.133 4.133 0 0 0 1.219-3.246v-.878h-3.458a.641.641 0 0 1-.5-.2.716.716 0 0 1-.185-.51v-1.5a.717.717 0 0 1 .185-.51.645.645 0 0 1 .5-.2h6.775a.647.647 0 0 1 .5.2.72.72 0 0 1 .184.51v2.976a7.875 7.875 0 0 1-1.034 4.1 6.806 6.806 0 0 1-2.963 2.679 10.217 10.217 0 0 1-4.507.936 8.555 8.555 0 0 1-6.052-2.013"/>
 </g>
</svg>