<svg xmlns="http://www.w3.org/2000/svg" viewBox="0 0 1802.8 212.6" height="198" width="1680">
    <path fill="#34E0A1"
          d="M121.3 205.4H93c0-46.9-38.1-85-85-85V92.1c33.5 0 62.6-19.5 76.4-47.8 3.3 10.9 8.1 21.2 14.1 30.6-9.8 12.8-22.4 23.5-37 31.3 35.7 19.2 59.8 55.9 59.8 99.2zm31.5-99.2c-14.5 7.8-27.1 18.5-37 31.3 6 9.5 10.7 19.7 14.1 30.6 13.8-28.3 42.9-47.8 76.4-47.8V92c-46.9 0-85-38.1-85-85H93c0 43.3 24 80.1 59.8 99.2zm1109 56.7v-56.7c0-23.5 19-42.5 42.5-42.5h28.3c23.5 0 42.5 19 42.5 42.5v56.7c0 23.5-19 42.5-42.5 42.5h-28.3c-5.7 0-11-1.1-16-3.1 6.8-7 11.7-15.7 14.2-25.3.6.1 1.2.1 1.8.1h28.3c7.8 0 14.2-6.3 14.2-14.2v-56.7c0-7.8-6.3-14.2-14.2-14.2h-28.3c-7.8 0-14.2 6.3-14.2 14.2v56.7c0 23.5-19 42.5-42.5 42.5h-28.3c-23.5 0-42.5-19-42.5-42.5v-56.7c0-23.5 19-42.5 42.5-42.5h28.3c5.7 0 11 1.1 16 3.1-6.8 7-11.7 15.7-14.2 25.3-.6-.1-1.2-.1-1.8-.1h-28.3c-7.8 0-14.2 6.3-14.2 14.2v56.7c0 7.8 6.3 14.2 14.2 14.2h28.3c7.9 0 14.2-6.4 14.2-14.2zm-130.1-54.5v97.1h28.7V77.6c-7.3 12.2-17.1 22.7-28.7 30.8zm-56.5-24.9c31.3 0 56.7-25.4 56.7-56.7h28.3c0 47-38.1 85-85 85V83.5z"/>
    <path fill="#006390"
          d="M706.7 205.4H735V63.7h-28.3v141.7zM837 63.7h-42.5c-23.5 0-42.5 19-42.5 42.5v56.7c0 23.5 19 42.5 42.5 42.5h70.9V7h-28.3v56.7h-.1zm0 113.4h-42.5c-7.8 0-14.2-6.3-14.2-14.2v-56.7c0-7.8 6.3-14.2 14.2-14.2H837v85.1zM444.4 77.9c0-7.8-6.4-14.2-14.2-14.2h-22.7c-23.5 0-42.5 19-42.5 42.5v99.2h28.3v-99.2c0-7.8 6.3-14.2 14.2-14.2h36.9V77.9zm503.2-14.2h-42.5c-7.8 0-14.2 6.3-14.2 14.2v14.2h56.7c7.8 0 14.2 6.3 14.2 14.2v14.2h-42.5c-23.5 0-42.5 19-42.5 42.5s19 42.5 42.5 42.5h70.9v-99.2c-.1-23.6-19.1-42.6-42.6-42.6zm14.2 113.4h-42.5c-7.8 0-14.2-6.3-14.2-14.2s6.3-14.2 14.2-14.2h42.5v28.4zM305.5 63.7H263V7h-28.3v198.4h70.9c23.5 0 42.5-19 42.5-42.5v-56.7c0-23.5-19.1-42.5-42.6-42.5zm14.2 99.2c0 7.8-6.3 14.2-14.2 14.2H263v-85h42.5c7.8 0 14.2 6.3 14.2 14.2v56.6zm195.6-99.2h-42.5c-7.8 0-14.2 6.3-14.2 14.2v14.2h56.7c7.8 0 14.2 6.3 14.2 14.2v14.2H487c-23.5 0-42.5 19-42.5 42.5s19 42.5 42.5 42.5h70.9v-99.2c-.1-23.6-19.1-42.6-42.6-42.6zm14.2 113.4H487c-7.8 0-14.2-6.3-14.2-14.2s6.3-14.2 14.2-14.2h42.5v28.4zm100-7.5L594.9 63.7h-31.4l48.2 141.7h35.6l48-141.7h-30.8l-35 105.9zm834.9-114.4c7.8 0 14.2-6.3 14.2-14.2s-6.3-14.2-14.2-14.2-14.2 6.3-14.2 14.2 6.3 14.2 14.2 14.2zm227.9 97.7v-30.8c0-2.4 2-4.4 4.4-4.4h11.4v-4.4c0-2.4-2-4.4-4.4-4.4h-7c-7.3 0-13.2 5.9-13.2 13.2v30.8h8.8zm89.4 8.6h-13.2c-2.4 0-4.4 2-4.4 4.4v4.4h17.6c2.4 0 4.4 2 4.4 4.4v4.4h-13.2c-7.3 0-13.2 5.9-13.2 13.2s5.9 13.2 13.2 13.2h22v-30.8c0-7.3-5.9-13.2-13.2-13.2zm4.4 35.1h-13.2c-2.4 0-4.4-2-4.4-4.4s2-4.4 4.4-4.4h13.2v8.8zm-106-74.6c0-7.3-5.9-13.2-13.2-13.2h-13.2c-2.4 0-4.4 2-4.4 4.4v4.4h17.6c2.4 0 4.4 2 4.4 4.4v4.4h-13.2c-7.3 0-13.2 5.9-13.2 13.2s5.9 13.2 13.2 13.2h22V122zm-8.8 22h-13.2c-2.4 0-4.4-2-4.4-4.4s2-4.4 4.4-4.4h13.2v8.8zm13 17.5h-8.8c-7.3 0-13.2 5.9-13.2 13.2v17.6c0 7.3 5.9 13.2 13.2 13.2h8.8c7.3 0 13.2-5.9 13.2-13.2v-17.6c0-7.3-5.9-13.2-13.2-13.2zm4.4 30.7c0 2.4-2 4.4-4.4 4.4h-8.8c-2.4 0-4.4-2-4.4-4.4v-17.6c0-2.4 2-4.4 4.4-4.4h8.8c2.4 0 4.4 2 4.4 4.4v17.6zm22.8 0V179h8.8v-8.8h-8.8v-8.8h-8.8v30.8c0 7.3 5.9 13.2 13.2 13.2h7c2.4 0 4.4-2 4.4-4.4v-4.4h-11.4c-2.4 0-4.4-1.9-4.4-4.4zm29.1 0V179h8.8v-8.8h-8.8v-8.8h-8.8v30.8c0 7.3 5.9 13.2 13.2 13.2h7c2.4 0 4.4-2 4.4-4.4v-4.4H1745c-2.5 0-4.4-1.9-4.4-4.4zm.9-52.7c0-7.3-5.9-13.2-13.2-13.2h-5.7c-2.4 0-4.4-2-4.4-4.4s2-4.4 4.4-4.4h14.5v-4.4c0-2.4-2-4.4-4.4-4.4h-10.1c-7.3 0-13.2 5.9-13.2 13.2s5.9 13.2 13.2 13.2h5.7c2.4 0 4.4 2 4.4 4.4s-2 4.4-4.4 4.4h-14.1c-2.4 0-4.4 2-4.4 4.4v4.4h18.5c7.3 0 13.2-5.9 13.2-13.2zm-93.3 57.1H1635c-2.4 0-4.4-2-4.4-4.4v-30.8h-8.8v30.8c0 7.3 5.9 13.2 13.2 13.2h22v-44h-8.8v35.2zm-34.5-118.7c0-7.8-6.4-14.2-14.2-14.2h-22.7c-23.5 0-42.5 19-42.5 42.5v99.2h28.3v-99.2c0-7.8 6.3-14.2 14.2-14.2h36.9V77.9zm-138.9-14.2h-42.5c-7.8 0-14.2 6.3-14.2 14.2v14.2h56.7c7.8 0 14.2 6.3 14.2 14.2v14.2h-42.5c-23.5 0-42.5 19-42.5 42.5s19 42.5 42.5 42.5h70.9v-99.2c-.1-23.6-19.2-42.6-42.6-42.6zm14.1 113.4h-42.5c-7.8 0-14.2-6.3-14.2-14.2s6.3-14.2 14.2-14.2h42.5v28.4zm108.4-33.1h-13.6v4.4c0 2.4 2 4.4 4.4 4.4h9.2c7.3 0 13.2-5.9 13.2-13.2v-30.8h-8.8v17.6h-9.2c-2.4 0-4.4-2-4.4-4.4v-13.2h-4.4c-2.4 0-4.4 2-4.4 4.4v8.8c0 7.3 5.9 13.2 13.2 13.2h9.2v4.4c0 2.4-1.9 4.4-4.4 4.4zm39.7 8.8c2.4 0 4.4-2 4.4-4.4V144h-13.6c-2.4 0-4.4-2-4.4-4.4v-4.4h9.2c7.3 0 13.2-5.9 13.2-13.2s-5.9-13.2-13.2-13.2h-4.8c-7.3 0-13.2 5.9-13.2 13.2v17.6c0 7.3 5.9 13.2 13.2 13.2h9.2zm-13.5-30.8c0-2.4 2-4.4 4.4-4.4h4.8c2.4 0 4.4 2 4.4 4.4s-2 4.4-4.4 4.4h-9.2V122zm-25.6 72.3-10.7-32.9h-9.7l15 44h11.1l14.9-44h-9.6l-11 32.9z"/>
</svg>