<?xml version="1.0" standalone="no"?>
<!DOCTYPE svg PUBLIC "-//W3C//DTD SVG 20010904//EN"
 "http://www.w3.org/TR/2001/REC-SVG-20010904/DTD/svg10.dtd">
<svg version="1.0" xmlns="http://www.w3.org/2000/svg"
 width="1715.000000pt" height="378.000000pt" viewBox="0 0 1715.000000 378.000000"
 preserveAspectRatio="xMidYMid meet">
<metadata>
Created by potrace 1.16, written by Peter Selinger 2001-2019
</metadata>
<g transform="translate(0.000000,378.000000) scale(0.100000,-0.100000)"
fill="#000000" stroke="none">
<path d="M1542 3294 l-22 -15 0 -618 c0 -466 3 -620 12 -629 17 -17 399 -17
416 0 9 9 12 147 12 560 l0 548 310 0 310 0 0 -1150 0 -1150 220 0 220 0 0
1215 c0 1202 0 1215 -20 1235 -20 20 -33 20 -728 20 -624 0 -710 -2 -730 -16z"/>
<path d="M13427 3296 c-56 -15 -82 -37 -110 -91 -40 -80 -49 -134 -54 -344 -6
-217 4 -314 39 -408 20 -56 71 -108 116 -120 15 -5 167 -8 337 -8 270 0 314 2
340 17 106 58 140 179 139 488 -1 288 -34 404 -129 454 -38 20 -57 21 -335 23
-218 2 -307 -1 -343 -11z m450 -188 c36 -39 46 -102 47 -288 0 -199 -12 -269
-51 -300 -22 -17 -41 -20 -127 -20 -166 0 -171 10 -171 315 0 307 5 315 175
315 98 0 108 -2 127 -22z"/>
<path d="M3680 2815 l0 -485 155 0 155 0 0 200 0 200 170 0 170 0 0 -200 0
-200 155 0 155 0 0 485 0 485 -155 0 -155 0 0 -190 0 -190 -170 0 -170 0 0
190 0 190 -155 0 -155 0 0 -485z"/>
<path d="M4890 2815 l0 -485 380 0 380 0 0 95 0 95 -225 0 -225 0 0 105 0 105
220 0 220 0 0 95 0 95 -220 0 -220 0 0 95 0 95 225 0 225 0 0 95 0 95 -380 0
-380 0 0 -485z"/>
<path d="M5890 2815 l0 -485 155 0 155 0 0 165 0 166 62 -3 61 -3 86 -162 86
-163 163 0 c89 0 162 3 162 7 0 6 -112 214 -167 310 l-25 43 29 11 c38 14 71
46 96 94 17 32 22 64 25 160 7 196 -21 278 -108 323 -43 22 -50 22 -412 22
l-368 0 0 -485z m560 288 c39 -49 35 -209 -6 -250 -21 -21 -32 -23 -134 -23
l-110 0 0 151 0 151 116 -4 c105 -3 118 -5 134 -25z"/>
<path d="M7020 2815 l0 -485 115 0 115 0 0 279 c0 154 4 282 9 285 5 3 86
-122 181 -279 l172 -285 164 0 164 0 0 485 0 485 -115 0 -115 0 0 -285 c0
-172 -4 -285 -9 -285 -6 0 -87 128 -181 285 l-171 285 -165 0 -164 0 0 -485z"/>
<path d="M8230 2815 l0 -485 155 0 155 0 0 485 0 485 -155 0 -155 0 0 -485z"/>
<path d="M8820 2815 l0 -485 115 0 115 0 0 279 c0 154 4 282 9 285 4 3 86
-123 180 -279 l173 -285 164 0 164 0 0 485 0 485 -115 0 -115 0 0 -285 c0
-172 -4 -285 -9 -285 -6 0 -87 128 -181 285 l-171 285 -165 0 -164 0 0 -485z"/>
<path d="M10110 3278 c-94 -49 -131 -180 -131 -463 0 -305 44 -446 149 -475
22 -6 182 -10 395 -10 l357 0 0 265 0 265 -145 0 -145 0 0 -170 0 -170 -115 0
c-108 0 -117 2 -139 23 -34 34 -46 107 -46 272 0 165 12 238 46 272 23 23 24
23 279 23 l255 0 0 95 0 95 -358 0 c-351 0 -359 0 -402 -22z"/>
<path d="M11225 3288 c-84 -29 -134 -103 -135 -196 0 -107 27 -143 268 -350
179 -154 212 -193 181 -213 -8 -5 -112 -9 -231 -9 l-218 0 0 -96 0 -95 328 3
327 3 43 25 c79 45 121 158 92 246 -24 71 -63 116 -245 274 -218 191 -222 195
-205 215 10 13 47 15 226 15 l214 0 0 95 0 95 -307 -1 c-187 0 -320 -5 -338
-11z"/>
<path d="M12090 2815 l0 -485 155 0 155 0 0 200 0 200 165 0 165 0 0 -200 0
-200 155 0 155 0 0 485 0 485 -155 0 -155 0 0 -190 0 -190 -165 0 -165 0 0
190 0 190 -155 0 -155 0 0 -485z"/>
<path d="M14460 2815 l0 -485 370 0 370 0 0 95 0 95 -215 0 -215 0 0 390 0
390 -155 0 -155 0 0 -485z"/>
<path d="M15280 2815 l0 -485 110 0 110 0 0 340 c0 187 4 340 8 340 5 0 62
-153 127 -340 l118 -340 138 0 138 0 14 28 c8 15 65 168 127 340 62 171 117
312 122 312 4 0 8 -153 8 -340 l0 -340 145 0 145 0 0 485 0 485 -203 0 -203 0
-114 -316 c-121 -331 -125 -342 -135 -332 -4 3 -53 142 -111 308 -57 165 -108
310 -114 320 -10 19 -22 20 -220 20 l-210 0 0 -485z"/>
<path d="M460 1757 c0 -1163 1 -1215 18 -1230 17 -16 82 -17 734 -17 680 0
716 1 731 18 15 17 17 71 17 574 0 525 -1 556 -18 571 -16 15 -45 17 -201 17
-107 0 -190 -4 -202 -10 -18 -10 -19 -27 -19 -505 l0 -495 -310 0 -310 0 0
1145 0 1145 -220 0 -220 0 0 -1213z"/>
<path d="M6850 1140 l0 -260 45 0 45 0 0 170 0 170 74 0 c107 0 106 2 106
-186 l0 -154 51 0 52 0 -5 168 c-3 92 -9 175 -13 185 -13 31 -47 40 -157 45
l-108 5 0 58 0 59 -45 0 -45 0 0 -260z"/>
<path d="M9870 1140 l0 -260 45 0 45 0 0 63 c0 60 2 65 38 100 l37 36 53 -99
53 -100 50 0 c27 0 49 3 49 7 0 4 -29 60 -65 124 -36 65 -65 122 -65 126 0 5
27 35 60 68 33 33 60 63 60 67 0 4 -17 8 -37 8 -34 0 -47 -9 -135 -97 l-98
-98 0 158 0 157 -45 0 -45 0 0 -260z"/>
<path d="M10840 1140 l0 -260 45 0 45 0 0 260 0 260 -45 0 -45 0 0 -260z"/>
<path d="M6010 1130 l0 -250 180 0 180 0 0 30 0 30 -130 0 -130 0 0 80 0 80
125 0 125 0 0 30 0 30 -125 0 -125 0 0 80 0 80 130 0 130 0 0 30 0 30 -180 0
-180 0 0 -250z"/>
<path d="M11840 1373 c-59 -22 -67 -86 -18 -153 17 -24 27 -45 22 -47 -5 -2
-29 -14 -54 -27 -56 -28 -74 -72 -67 -161 8 -87 31 -105 140 -105 88 0 109 9
153 60 l22 25 39 -43 c37 -42 40 -43 91 -40 l54 3 -65 75 -64 75 53 67 c30 37
54 69 54 72 0 4 -17 6 -38 6 -34 0 -42 -5 -71 -46 -18 -25 -37 -44 -42 -42 -5
2 -43 43 -84 93 -102 121 -100 129 28 133 l97 3 0 29 0 30 -117 -1 c-65 0
-125 -3 -133 -6z m150 -359 c0 -7 -19 -28 -41 -49 -36 -32 -46 -36 -77 -31
-47 7 -54 16 -60 74 -5 59 9 89 51 107 32 14 32 13 79 -38 26 -29 47 -57 48
-63z"/>
<path d="M12570 1367 c-27 -9 -41 -23 -60 -62 -23 -45 -25 -61 -25 -175 0
-137 11 -183 51 -221 25 -23 32 -24 200 -27 l174 -3 0 135 0 136 -45 0 -45 0
0 -105 0 -105 -86 0 c-47 0 -94 4 -104 10 -30 16 -45 77 -44 185 0 169 17 185
202 185 l122 0 0 30 0 30 -152 -1 c-91 0 -167 -5 -188 -12z"/>
<path d="M6500 1080 l0 -200 45 0 45 0 0 145 c0 168 -2 165 99 165 l61 0 0 45
c0 53 -5 54 -87 25 -32 -11 -61 -20 -65 -20 -4 0 -8 9 -8 20 0 17 -7 20 -45
20 l-45 0 0 -200z"/>
<path d="M7311 1268 c0 -7 31 -96 67 -198 l67 -185 61 -3 61 -3 67 192 c36
105 66 195 66 200 0 5 -15 9 -34 9 l-35 0 -52 -159 c-29 -88 -56 -158 -60
-155 -4 2 -31 74 -59 159 l-52 155 -49 0 c-33 0 -49 -4 -48 -12z"/>
<path d="M7853 1269 c-46 -13 -66 -56 -71 -156 -6 -116 4 -170 38 -205 l28
-28 136 0 136 0 0 25 0 25 -100 0 c-87 0 -103 3 -120 20 -11 11 -20 28 -20 38
0 9 -3 27 -6 40 l-6 22 136 0 136 0 0 75 c0 96 -16 130 -68 144 -45 13 -175
13 -219 0z m184 -65 c7 -10 13 -37 13 -61 l0 -43 -90 0 c-100 0 -100 -1 -79
73 6 23 19 42 32 47 34 15 109 5 124 -16z"/>
<path d="M8270 1080 l0 -200 45 0 45 0 0 139 c0 168 1 171 96 171 l64 0 0 45
c0 52 -3 53 -85 25 -32 -11 -62 -20 -67 -20 -4 0 -8 9 -8 20 0 17 -7 20 -45
20 l-45 0 0 -200z"/>
<path d="M8570 1269 c0 -6 30 -96 67 -200 l68 -189 61 0 61 0 64 187 c35 104
65 194 67 200 2 9 -8 13 -32 13 l-35 0 -53 -160 c-29 -88 -55 -160 -58 -160
-3 0 -30 72 -60 160 l-54 160 -48 0 c-28 0 -48 -5 -48 -11z"/>
<path d="M9094 1269 c-35 -10 -49 -23 -57 -57 -12 -48 12 -81 110 -153 99 -74
113 -90 93 -114 -10 -11 -36 -15 -111 -15 -99 0 -99 0 -99 -25 l0 -25 135 0
c131 0 137 1 160 25 29 28 33 79 10 112 -8 11 -55 51 -105 88 -71 53 -90 72
-88 89 3 19 10 21 101 24 l97 3 0 29 0 30 -107 -1 c-60 0 -122 -5 -139 -10z"/>
<path d="M9505 1273 c-38 -9 -65 -44 -65 -84 0 -41 22 -66 143 -153 47 -36 67
-56 67 -72 0 -29 -16 -34 -121 -34 -88 0 -89 0 -89 -25 l0 -25 129 0 c115 0
131 2 155 21 21 16 26 29 26 63 0 38 -5 48 -43 82 -23 22 -68 57 -100 79 -56
39 -74 65 -62 85 3 6 48 10 101 10 l94 0 0 30 0 30 -107 -1 c-60 -1 -117 -3
-128 -6z"/>
<path d="M10391 1267 c-44 -22 -62 -58 -68 -139 -9 -115 3 -186 37 -220 28
-28 30 -28 153 -28 121 0 125 1 150 26 33 33 42 76 41 191 -2 102 -19 147 -65
170 -32 17 -216 17 -248 0z m190 -56 c20 -16 23 -29 27 -112 3 -70 0 -104 -11
-132 l-16 -37 -65 0 c-80 0 -93 14 -97 105 -5 114 -1 144 26 170 31 32 101 35
136 6z"/>
<path d="M11145 1273 c-61 -15 -91 -101 -82 -234 5 -80 25 -132 56 -149 11 -5
81 -10 155 -10 l136 0 0 25 0 25 -103 0 c-123 0 -137 7 -144 73 l-6 47 138 0
138 0 -6 81 c-8 96 -23 124 -74 138 -38 11 -170 13 -208 4z m171 -65 c7 -7 16
-34 19 -60 l7 -48 -91 0 -91 0 0 36 c0 44 15 72 43 84 29 13 96 5 113 -12z"/>
<path d="M13003 1268 c2 -7 41 -99 86 -205 44 -105 81 -198 81 -206 0 -8 -7
-31 -15 -50 -21 -51 -19 -57 19 -57 33 0 36 3 56 58 84 224 170 460 170 466 0
4 -16 6 -36 4 l-36 -3 -51 -143 c-28 -78 -54 -139 -58 -135 -4 5 -32 69 -61
143 l-54 135 -53 3 c-41 2 -52 0 -48 -10z"/>
<path d="M13500 1081 l0 -201 45 0 45 0 0 170 0 170 80 0 80 0 0 -170 0 -170
45 0 45 0 0 170 0 170 64 0 c96 0 96 -1 96 -186 l0 -154 51 0 51 0 -4 168 c-4
170 -11 202 -45 218 -10 5 -138 10 -285 12 l-268 3 0 -200z"/>
<path d="M14240 1081 l0 -201 45 0 45 0 0 170 0 170 74 0 c107 0 106 2 106
-186 l0 -154 45 0 45 0 0 169 c0 165 -1 171 -24 198 l-24 28 -156 4 -156 3 0
-201z"/>
<path d="M14750 1251 l0 -31 109 0 c124 0 141 -8 141 -65 l0 -33 -109 -4 c-89
-2 -113 -6 -130 -22 -39 -36 -40 -157 0 -197 17 -17 34 -19 174 -19 l155 0 0
169 c0 165 -1 171 -24 198 -24 28 -25 28 -170 31 l-146 4 0 -31z m250 -246 l0
-75 -73 0 c-43 0 -78 5 -85 12 -16 16 -15 103 1 116 7 6 40 13 72 15 33 2 66
4 73 5 9 1 12 -19 12 -73z"/>
<path d="M15275 1269 c-39 -11 -55 -34 -55 -80 0 -45 12 -59 118 -139 89 -66
101 -82 82 -105 -10 -11 -36 -15 -111 -15 -99 0 -99 0 -99 -25 l0 -25 134 0
c120 0 136 2 160 21 20 16 26 29 26 58 0 50 -22 77 -126 152 -67 48 -84 66
-82 83 3 20 10 21 101 24 l97 3 0 29 0 30 -107 -1 c-60 0 -121 -5 -138 -10z"/>
<path d="M15650 1080 l0 -200 45 0 45 0 0 200 0 200 -45 0 -45 0 0 -200z"/>
<path d="M15950 1268 c-56 -20 -75 -70 -74 -193 1 -116 18 -169 59 -185 15 -6
85 -10 156 -10 l129 0 0 25 c0 25 -1 25 -92 25 -51 0 -103 3 -115 6 -23 6 -43
49 -43 90 l0 24 136 0 137 0 -5 86 c-4 75 -7 88 -30 111 -24 24 -35 26 -125
30 -62 2 -111 -1 -133 -9z m177 -61 c9 -8 18 -36 20 -61 l6 -46 -92 0 -91 0 0
29 c0 44 17 80 42 91 30 13 97 5 115 -13z"/>
<path d="M16360 1080 l0 -200 50 0 50 0 0 145 c0 168 -2 165 99 165 l61 0 0
45 c0 53 -6 55 -90 25 -69 -24 -70 -24 -70 0 0 17 -7 20 -50 20 l-50 0 0 -200z"/>
</g>
</svg>
