<?xml version="1.0" encoding="utf-8"?>
<!-- Generator: Adobe Illustrator 24.3.0, SVG Export Plug-In . SVG Version: 6.00 Build 0)  -->
<svg version="1.1" id="Layer_2_1_" xmlns="http://www.w3.org/2000/svg" height="1362" width="2811"
     viewBox="0 0 2811.8 1362.9" xml:space="preserve">
<path fill="#FFFFFF" d="M1395,759.9c-1.4-1-2.8-1.9-4.6-1.2c-0.5,0.2-2.3,2.6-2.6,2.5c0.1-2.6-1.1-5.8,0-8.3c0.8-1.8,3.2-2.7,2.6-5
	c-1.1-3.8-9-1-8.8-2.7l0,0c5.3-5.1-0.1-16-7.6-11.6c-0.7-2-2.8-3.1-3.5-5s0.8-3.1,0-4.8s-2.8-2-4.5-1.6c-1.1,0.3-3.9,2.5-4-0.3
	c-0.1-1.1,1.6-2.8,1.8-4c0.1-2.2-0.3-4.4-1.3-6.4c-1-2-2.5-4.1-5-3.7c-1.3,0.2-2,2-2.8,2.2c-3,0.8-5.8,2.1-8.3,3.8
	c-1.4,1-2.9,2-4.4,2.9c-0.9,0.4-1.7,0.1-2.6,0.8c-0.4,0.4-0.8,0.9-1,1.5c0,1-0.5,1.3-1.5,0.9c-1,0.3-2,0.6-3,1
	c-2.2,1.2-3.9,3.3-6.1,4.6c-2.4,1.5-5.1,2.5-7.2,4.4c-0.8,0.9-1.7,1.5-2.8,2c-1.5,0.7-2.7,1-3.9,2.1c-1,1-1.7,2.2-2.8,3.1
	c-1.3,1.1-2.1,0.9-3.6,1.9s-2.5,2.9-3.9,4.1c-2.9,2.7-6.2,4.9-9.1,7.8c-1.3,1.1-2.2,2.5-2.7,4.1c-0.8,2.6-0.6,2.2-2.9,3.6
	c-2.8,1.7-2.8,4.5-4.6,6.8c-2.2,2.8-4.9,5.2-7.9,7.1c-2.8,1.8-3,4.9-4.5,7.6s-3.7,5.1-5.4,7.6c-1.8,2.7-3.3,5.8-5.2,8.5
	c-0.8,1.1-2.3,1.7-3,2.8c-0.2,0.4-0.5,0.8-0.7,1.2c-0.2,0.4-0.2,0.9-0.1,1.4l-0.9,0.6c-3,5.8-5.6,11.8-9.2,17.2
	c-1.5,2.3-2.4,5.4-4.2,7.4c-0.7,0.8-1.7,1.2-2.4,2.2c-1,1.4-1.3,3.1-1.9,4.7c-2.7,7.3-7.3,14.2-10.5,21.3c-3.2,7.4-6,15.1-9,22.6
	s-6.9,14.2-10.7,21.2c-1.6,3-2.1,6-3.2,9.1s-3.7,5.3-4.6,8.8c-2.2,8.5-5.2,16.4-8.3,24.6c-2.7,7.3-4.4,15-7.7,22.1
	c-2.3,4.9-3.7,10-5.7,15c-1.2,2.8-1.4,5.5-2.1,8.3c-0.7,2.6-2.5,4.7-3.2,7.3c-0.3,1.3-0.1,2.6-0.4,3.9c-0.1,1.2-0.6,2.3-1.4,3.1
	c-1.6,2.2-2.2,4.5-3.1,7c-1.6,4.3-5.2,7-6.9,11.3c-2.4,5.8-4.7,12-7.4,17.6c-2.4,4.9-3.4,10.4-7.4,14.2c-3.5-8.9-8.1-17.5-11.3-26.5
	c-0.5-1.7-1-3.4-1.8-5c-1.1-1.9-2.8-3.3-3.8-5.2c-2.3-4.2-2.7-9.4-4.3-13.8c-3.5-9.3-7.4-18.4-10.7-27.8c-1.4-3.9-2.7-8.9-5.4-12.1
	c-1-1.2-2.5-2-3.1-3.6c-0.3-0.8,0-1.5-0.1-2.3c-0.2-1.3-0.7-2.6-1.5-3.7c-1.8-3.2-4.8-6.2-6.1-9.6c-1.7-4.5-0.8-9.6-2.8-14.2
	c-1.5-3.5-3.5-7-5.3-10.4c-0.9-1.8-2.1-2.7-3.5-4c-1.7-1.7-1.2-2.7-1.9-4.9c-0.9-3.3-4.7-6.6-8-7.5c-1.5-0.4-2.9-1-4.4-1.4
	c-2.6-0.8-4.9-0.3-7.6-0.4c-3.7-0.1-7.2-2-10.5-3.4c-1.9-0.8-3.4-2.1-5.2-3c-2.3-1-4.3-0.3-6.6-0.4s-4.3-1.9-6.6-2.8
	c-2.4-0.9-4.9-1.5-7.4-1.9c-2.2-0.3-6.7,0.2-7.8-0.9c-0.3-0.4-0.3-2.1-0.6-2.7c-0.7-1-1.5-2-2.6-2.7c-5-2.1-5.3,5.5-7,7.5
	s-6.3,0.7-6.6,4.3c-0.6-0.2-1.2-0.3-1.8-0.3c-4-3.1-8.6-1.3-12.1,1.5c-1.9,1.5-3.5,3.3-4.7,5.4c-1,1.9-0.2,4-0.9,5.8
	c-0.6,1.5-2.5,1.7-3.8,2.3c-2.1,0.9-3.9,2.2-5.6,3.8c-3,3-4.3,7-5.3,11c-1.5,0.8-2.8,1.9-2.8,3.8c0,1.3,1.3,2.1,1.3,3.1
	c0,0.7-0.8,1.7-0.9,2.5c-0.2,1.3,1.2,3.5,0.8,4.5c-0.5,1.4-2.9,1.5-4,2.5c-2.8,2.4-1.7,7-3.5,10.1c-1.9,3.5-4.1,7.8,0.8,9.8
	c2,0.8,2.8,0.2,3.7,2.2c0.7,1.4,1.5,3.7,1.4,5.1c-0.2,2.2-1.4,4.7-1.8,7s-0.6,4.2-1.2,6.3c-1.2,4.4-1.7,9.2-3.4,13.5
	c-0.9,2.3-2.4,4.3-3.1,6.7c-0.5,1.9-0.8,3.8-0.9,5.7c-0.8,6.3-1.4,13.4-2.9,19.6c-0.7,2.6-1.8,4.2-1.8,7c0,1.9,0.2,3.8,0.1,5.8
	c0,3.6-1.5,7.9-2.2,11.4c-0.3,1.7-0.9,3.6-0.7,5.3c0.2,1.2,0.6,1.9,0.4,2.9c-0.1,0.5-0.5,1.3-0.6,1.9c-1.2,7.2-2.3,14.4-3.3,21.8
	c-1.1,9-3.1,17.8-2.6,26.9c0.3,4-0.3,8-1.7,11.7c-0.9,2.2-1.4,4.6-1.3,6.9c-0.2,6.1-0.7,12.2-1.5,18.3c-0.3,2.9-0.1,5.7-0.1,8.6
	s-1.1,5.6-1.3,8.4c-0.3,5.4-0.4,10.7-1,16.2s-1.1,10.9-0.4,16.3c0.1,0.7,0.2,1.7,0.2,1.9c-2.6,3.6-1.9,7.5-1.7,11.6
	c0.2,4.4-2,8.2-1.7,12.6c0.3,4.7,0,9.4,0,14.1v9.2c0,2.1-0.1,4.2,0,6.4c0.1,2.6-0.7,2.6-1.3,4.6s1.2,3,1.4,4.9s-0.2,4.2-0.2,6.2
	c0,4.6,0,9.2,0,13.9c-0.1,7.4,0,14.5,2.3,21.6c0.8,2.4,1.6,5.8,3.5,7.5c0.9,0.6,1.6,1.4,2.2,2.3c0.8,1.3,1.3,2.8,2.2,4.1l0.8,1.2
	c0.8,1.3,2.1,2,3,3.2s0.8,1.9,1.4,3c1.5,2.8,4.1,1.9,6,3.7c2.5,2.2,3.5,5.2,6.4,7.2c1.2,0.8,2.5,1.3,3.6,2.2s1.3,1.8,2.3,2.8
	l0.7,0.6c1.4,1.3,3.7,3.5,6.4,2.7c0.9,3.4,3.2,6.3,6.4,7.9c2.4,1.2,6,1.1,7.9,2.5c1.3,1,1.8,2.5,3.6,3.3c1.6,0.6,3.2,1,4.9,0.9
	c3.8,0.2,7.5,0.1,11,1.6c2.9,1.2,5.4,4.5,8.5,5c1.7,0.2,2.5-1,3.9-1.1s2.1,0.9,3.6,0.8c1.5-0.1,2.5-0.9,4-0.9
	c1.6-0.1,3.2-0.4,4.7-0.8c3.6-0.6,6.4,1.1,10.2-0.2c2.4-0.7,4.4-1.9,7-2c2.4-0.1,4,0.4,5.4-2c1.9-3.3,2.2-7.4,2.3-11.1
	c0.4-6.5,0.4-12.6,1.6-19c0.6-2.6,0.6-5.2-0.1-7.8c-0.4-1.2-2-2.7-2.1-3.7s0.9-2.6,0.8-3.8c-0.2-2.6-1.6-5.1-1.8-7.7
	c-0.2-3.4,0.3-6.8,0.2-10.2c-0.1-2.8,0.5-4.1,1.2-6.7c1-3.6-1.1-5.5-1.4-8.8c3-4.7,1.6-12.2,1.6-17.6c0.1-3.5,0.6-6.9,1.5-10.2
	c0.3-1,0.4-2.1,0.4-3.2c-0.1-1.3-1.2-2.3-1.3-3.4s0.7-2.4,0.7-3.8s-0.6-2.7-0.8-4c-0.4-3.2,0.9-6.3,0.6-9.5c-0.2-1.5,0-3,0.4-4.5
	c0.1-1.1,0.1-2.3,0-3.5c0-1.6,0-3.2,0.1-4.8c0.4-6.2,2.9-11.7,2.9-17.9c0-3,0-6,0-8.9c0-5.5,0.9-11.4-1-16.6
	c-2.1-5.8,0.7-11.8,0.9-17.8c0-2.6,0.4-5.1,1.2-7.6c0.5-1,0.6-2.1,0.4-3.2c-0.1-0.6-1.2-2-1.2-2.6c0-1,0.8-1.2,1-2.2
	c0.2-1.3-0.7-1.6-1-2.6c-0.9-2.8,0.5-4.6,1.2-7.2c0.4-1.6,0-4.4,2.4-4.3c1.7,0,3.5,4.3,4.2,5.5c1.2,2.3,2.6,4.5,4,6.6
	c1.7,2.3,4.2,3.3,6,5.3c1.3,1.4,1.6,3.4,2.5,5.1c1.2,2.3,3,3.8,4.7,5.8c1.4,1.5,1.8,3.7,3.3,5.1c0.6,0.6,1.9,0.7,2.4,1.2
	c0.9,1,1.7,3,2.8,4.1c1.7,1.8,3.5,3.6,5.1,5.4s2.9,4.7,4.7,6.5c1.5,1.5,3.2,1.8,4.6,3.6c1.6,2,3.5,3.2,5.2,5.1c0.8,0.9,2.9,3.7,3,5
	c0.2,2.6-2.5,4.2-0.8,7c0.7,1.2,1.8,1.3,2.7,2.2c1.3,1.3,0.7,1,1.1,3c0.5,2.5,2.6,4.7,4.3,6.5c1.3,1.5,2.9,2.7,4.8,3.5
	c1.2,0.4,2.4,0.3,3.5,0.6c1.8,0.5,1.2,0.2,2.4,1.9c1.3,1.8,3.2,2.8,4.8,4.2c2.2,1.9,2.5,3.8,3.1,6.5c0.7,4.2,3.8,7.7,7.9,8.9
	c5.8,2,11.5,3.5,17.2,5.9c6,2.6,12.1,4.3,18.1,6.6c2.9,1.1,4.9,3.5,7.4,5.2c1.1,0.7,2.2,1.3,3.4,1.7c0.8,0.3,1.7,0.5,2.5,0.5
	c1.2-0.4,1.7,0,1.6,1c1.4,1.4,1.9,2.5,4,3.5c2.4,1.1,5,2,7.4,3.2c2.8,1.3,6.3,2.3,8.8,4.1c1.9,1.4,3.1,3.8,5.9,2.5
	c1.7,2.5,4.7,3.9,7.8,3.5c2.4,0,4.7,0.9,6-1.9c1.7,1.5,4,1.9,6.2,2.2l1.1,0.1c2.4,0.3,4.2,1.8,6.7,1.6s4.7-1.7,7.1-1.4
	c1.8,0.2,3,1.6,4.9,1.7s3.5-1.3,5.3-1.5c4.6-0.6,9.1,3.5,13.7,3.2c2.1-0.2,3.6-1.6,5.9-1.5s4.6,0.6,7,0.1c2.1-0.5,4.1-1.3,5.9-2.4
	c1.6-0.8,3.8-1.2,5.2-2.4s2-2.3,3.6-3.3c2.2-1.4,4.5-2.7,6.7-4.3c3-2.2,7.7-6.5,7.9-10.6c0.1-1.1-1.2-2.4-1.2-3.1
	c0.1-1.3,2.4-3.2,2.8-4.8c0.7-2.2,1.8-5.9-1-9.5c6.3-4.3,7.2-13.8,7-20.8c-0.1-4.1,0.8-8.2,2.5-11.9c0.8-1.5,1.3-3.1,1.4-4.8
	c-0.1-2-1.4-3.1-2-4.9c-0.9-2.8,2.4-5.7,2.8-8.7c0.1-1.6-0.1-3.3-0.8-4.8c-0.6-2-0.1-2.7,0.2-4.7c0.1-1.1,0.4-2.2,0.8-3.2
	c0.8-1.8,1.2-2.7,0.7-4.7c-0.9-2.6-0.9-5.5,0.1-8.1c1.1-4,2.8-8,3.3-12.2c0.3-2.4,0.1-4.8,0.3-7.3c0.1-1.9-0.6-3.9-0.3-5.7
	s1.8-3.5,2.4-5.3c0.5-1.8,0.8-3.6,0.8-5.5c0.5-4.4,1.9-8.8,2.8-13.1c0.8-4,2.8-7.8,2.9-11.9s1.5-7.6,1.6-11.5c0-2,0.1-2.7,1.2-4.2
	c1-1.4,1.7-1.9,1.9-3.8c0.3-3.2,0.3-6.1,1.4-9.2c2.5-6.9,2-14.8,3-22c0.4-3,1.3-5.8,1.5-8.8c0.2-1.9,0.7-3.7,1.3-5.4
	c0.5-1.8,0.2-3.5,0.1-5.3c-0.1-1.7-0.2-3.5,0.6-5s2.3-2.6,3-4.2c0.5-1.2,0.9-2.5,0.9-3.8c0-1.7-1.7-3.7-1.6-5.1s1.4-2.7,1.7-4.1
	c0.4-1.9,0-4,0.4-5.9c0.6-2.7,1.4-5.3,2.4-7.9c1.3-3.8,1.9-7.8,1.8-11.9l-0.1-0.7c-0.3-3.8,0.1-5.8,2-9.1c1.5-2.6,0.3-5,1.2-7.7
	c0.5-1.3,1.6-2.3,2.1-3.7c0.5-1.6,0.7-3.3,0.7-5c-0.1-3.6,0.2-7.1,0.9-10.6c0.7-3,3-6.5,1.9-9.7c-1.3-3.6-3.7-4.1-2.8-8.5
	c0.6-3.1,2.1-5.9,2.7-9c0.7-3.4,1.5-4.9,0.5-8.2c1.8-3.3,4.3-7.7,1.3-12.7c3-4.5,3.2-9.6,3-14.4c3.1-2.2,3-5.5,2.9-7.8v-1.2
	c0-3.2,0-6.4,0-9.6c0-2.7-0.5-6,0-8.6c0.4-2.1,2-3.7,2.6-5.8c0.4-2,0.5-4,0.4-6v-1.4c0-5,2.5-8.8,1.1-13.8c-1.1-3.8-1-9.8-4.9-11.8
	c5.7-0.9,3.7-9.3,3.8-13.3c0.1-3.1-0.4-6.1-1.6-8.9c0-1.5,1.4-2.8,1.7-4.3c0.2-1.4,0.1-2.8-0.1-4.1c-0.3-1.3-1.3-2-1.3-3.2
	s1.7-2.5,2.1-3.7s0.3-2.2,0.6-3.2c0.4-1.3,1.5-2,1.8-3.5c0.6-2.4-0.9-4.8-3.3-5.5c0.2,0.1,0.4,0.1,0.7,0.1l-0.7-0.1
	C1393.7,759,1396.6,760.2,1395,759.9z"/>
    <path fill="#FFFFFF" d="M896.5,613.8c1.9,0.4,2.9,4,3.8,5.4c2.1,3.2,0.8,1.9-0.1,5c-0.7,2.3,1.2,4.1,1.4,6.3c0.3,2.9,0.8,5.6,1.3,8.5
	c0.4,3,1.2,5.8,2.3,8.6c1.1,2.5,3.2,4.2,4.4,6.5c1.1,2,0.9,4.2,3,5.6c1.6,1.1,4.4,0.2,5.4,1.4l0.5,0.5c3,3,5.8,6.3,8.4,9.7
	c2.3,3.1,3.9,6.7,6.6,9.4c2.3,2.3,5.3,3.2,8.1,4.5c3.7,1.7,7.4,2.5,11,4.4c7.7,4,16.8,4.8,25.1,7c4.2,1.1,8.2,2.6,12,4.6
	c3.5,1.8,7.5,1,11.3,1.6c2.1,0.4,4.2,0.6,6.2,0.7c1.6-0.1,3.3-1.1,4.8-0.8c0.9,0.2,2,1.5,2.8,1.9c1.9,0.9,4,1.4,6.1,1.5
	c2.4,0.1,3.6,0,5.8,0.8c2.5,1,2.3,0.9,4.9,0c3.5-1.2,7.6,0.9,11.5,1.4c8.9,1.2,17.5-1.6,26.3-2.8c8.6-1.2,17.8-0.5,25.8-4.2
	c1.8-1,3.7-1.5,5.7-1.7c2.3,0,4.1,0.2,6.3-1c0.4-0.2,1.7-1.4,2-1.4c0.8-0.1,2,1,2.7,1.2c1.8,0.3,3.7-0.8,5.3-1.4
	c4-1.6,7.6-3.8,12.1-3.2c3.2,0.5,6.1,2.2,8.5-1.2c3.2,0.7,5.6-0.8,7.4-1.9l0.9-0.5c2.5-1.3,5.2-2.3,7.9-3.2c1.2-0.5,2.4-1.2,3.6-1.5
	c0.6-0.3,1.2-0.6,1.7-1c0.5,0.4,1.1,0.7,1.7,0.8c3.4-0.2,3.6-1.9,6.1-3.6c2-1.3,4-0.6,6.1-0.8c2.6-0.2,4.6-1.8,6.9-2.7
	s4.9-1.4,7.1-2.8c1.6-1,2.7-2.9,4.5-3.5c2.9-0.9,4.4-0.1,6.8-2.8c1.4-1.8,3-3.4,4.9-4.8c2.2-1.5,3.4-3.4,5.3-5.3
	c3.8-3.8,9.5-2.1,14.2-4.1c5.5-2.4,10.5-6.3,14.9-10.3c2.2-1.9,4.3-4.1,6.1-6.5c0.8-1.2,1.4-2.9,3.1-2.9c2.3-0.3,6.8-0.9,7.4-5.8
	c2.3,0.1,3.6-1.5,5.2-3c1.6-1.3,3.3-2.4,5.2-3.2c1.9-0.9,3.8-1.8,4.9-3.6c1.3-2,1.1-2.9,3.6-3.8c2.3-0.8,4.4-1.8,6.4-3.2
	c2.4-1.5,3.4-1,6-1.3c3.7-0.5,5.6-6.7,5-9.9c-0.4-2.2-0.4-4.4,0.2-6.6c0.8-2.5,1.7-4.3,1.7-7c0-4-0.2-9.9-1.8-13.6
	c-1-2.3-1.1-2.5-0.4-5c0.5-1.9,0.7-3.8,0.6-5.8c-0.1-2-1-3-1.5-4.8c-0.5-2,0.2-4.2-0.1-6.2c-0.8-4.5-2.9-8.8-3.9-13.2
	c-0.4-2.5-1.1-4.9-2-7.3c-0.8-1.7-2.1-3.2-2.7-5c-1.5-4.3-0.5-9-2-13.4c-1.2-3.4-4.6-5.4-5.4-8.8c-1.2-3.5-3.3-6.6-4.6-10
	s-2.3-6.1-4.8-9.1c-1-1.3-1.7-2.7-2.7-4s-1.7-1.1-2.8-2c-2.2-1.7-4.4-5.1-5.9-7.4c-1-1.3-2.2-2.6-3.3-3.9c-1.2-1.5-1.8-3.3-3-4.8
	c-2.2-2.9-6.2-3.5-7.3-6.7c-2.5-7.1-11.1-8.1-14.2-14.6c-0.5-1.2-1.4-2.3-2.5-3.1c-1.2-0.8-2-0.2-3.2-0.6c-1.8-0.5-5-3.3-7.2-4.4
	c-5.4-2.9-10.7-5.6-16-8.6c-6.2-3.4-12.7-6.3-19.4-8.6c-2.9-1-5.5-2.6-8.3-3.7c-1.1-0.4-2.1-0.6-3.2-0.8c-0.6-0.1-1.2-0.6-1.8-0.7
	c-0.5-0.1-2.5,0.4-2.9,0.1c-0.9-0.8-1-2.2-0.1-3.1c0.2-0.3,0.5-0.5,0.9-0.6c0.8-0.3,2.3,0,3.2-0.1c1.6-0.3,3.2-0.8,4.7-1.5
	c5.8-2.7,10.6-7.2,15.4-11.3c1.9-1.6,3.5-3.8,5.7-4.9c1.5-0.7,3.2-0.8,4.6-1.6c1.1-0.7,2.4-1.4,3.6-1.9c3-0.8,5.1,1.1,7.3-2
	c0.7-1,0.9-2.1,1.8-3.1c1.1-1.1,2.6-1.8,3.8-2.8c2.4-2,3.7-2.4,6.9-2.6c3-0.2,3.7-2.3,6-3.8c0.9-0.6,1.9-1,2.8-1.6
	c0.7-0.5,2.1-2.6,2.6-2.9c0.8-0.3,2.1,0.8,3.3,0.2s2.5-2.4,3.2-3.7c1.3-2.2,1-4.8,2.9-6.6c2-2,4.8-3.3,7-5.1s3.6-3.9,5.6-5.7
	s4.6-2.6,6.6-5.3s2.5-5.4,3.4-8.5c0.9-3.2,2.7-5.6,4-8.5s0.4-5.9,1.4-8.9c0.5-1.3,0.9-2.6,1.2-4c0.3-1.9-0.5-3.3-0.7-5.1
	c-0.6-6.1,3-12,1.8-18.3c-1.2-6.1-3.2-12-5.8-17.7c-1.4-3.2-2.6-6.6-3.4-10.1c-0.9-3.8-3.1-5.3-5.2-8.3s-3.2-6.2-5.5-9s-5.5-5-7-8.2
	c-0.7-1.4-0.8-2.5-2.5-3.2c-1-0.4-2.3,0.1-3.2-0.6c-1.1-0.9-1.4-3-2.7-4.2c-2.3-2.1-4.8-4.1-7.2-6.1c-0.9-1.2-2.2-1.7-3.2-2.7
	s-1.8-2.6-2.9-3.6c-3-2.9-6.8-2.2-9.9-4.3c-2.5-1.7-3.3-5.2-5.2-7.5c-2.5-3-6-4.2-9.6-5.4c-3.3-1.2-6.5-2.6-9.6-4.3
	c-3.2-1.7-4.8-4.2-7.6-6.5s-6.1-3.4-8.9-5.6c-3-2.4-5.5-5.3-9-7c-3.1-1.6-6.4-2.6-9.5-4.2c-3.6-2-7.2-3.8-10.9-5.4
	c-3.3-1.3-6.6-2.7-9.9-4.1c-4.1-1.8-8.3-2.2-12.5-3.5c-3.6-1.1-7-2.6-10.7-3.4c-1.7-0.3-3.4-0.6-5.2-0.8c-2.2-0.3-3.9-1.2-6.1-1.9
	c-3.6-0.9-7.2-1.4-10.9-1.5c-4-0.3-7.9-1.6-11.9-2c-3.5-0.3-6.6,0.7-9.9-0.5c-3.8-1.3-6.8-0.1-10.5-0.9s-8.1-0.1-11.9-0.1
	c-4,0-8,0.2-12,0.6c-8.5,0.8-17,0.8-25.5,1.5c-3.9,0.3-7.7,0.9-11.5,1.7c-3.2,0.7-7.8,3.3-10.9,2.6c-1.7-0.4-2.2-1.2-4.1-0.9
	c-0.7,0.1-1.5,0.9-2.2,0.9c-1.8,0.1-3.6-0.9-5.6-0.6c-1.8,0.2-3.3,1.2-5.1,1.5c-5.9,1.1-11-5.6-16.5-7.2c-6.9-1.9-14.4,0-18.2,6.5
	c-0.7,1.2-1.2,4-2.4,4.8c-0.8,0.6-2.6,0.4-3.6,1c-2.8,1.6-3.6,4.6-5.5,6.9c-0.9,1-1.9,1.3-2.3,2.7c-0.6,2.1,0.3,2.5-1.9,3.9
	c-3.4,2.2-7,4.4-10.5,6.3c-2.7,1.4-7,2.1-8.6,4.9c-0.3,0.6-0.3,1.4-0.6,2c-0.9,1.7,0,0.7-2,1c-1.3,0.2-2.7,0-3.9,0.9
	c-1.5,1.1-1.6,2.7-1.4,4.3c0.1,0.8,0.4,1.5,0.6,2.2c0.2,0.9,0.2,1.8-0.1,2.6c-0.9,3.8-1,7.8-0.5,11.7c0.6,3.6,3.2,7.5,4.8,10.7
	s4.5,3.9,7.4,5.7c2.1,1.3,1,3.6,2.7,5.4c1.5,1.6,2.6,1.5,3.1,3.8c0.7,3.2,0.1,5.7-0.7,8.7s-0.6,5.6-0.6,8.6
	c-0.2,2.9-0.6,5.9-1.3,8.7c-0.6,3.4-0.1,6-0.1,9.3c-0.1,2.5-1.5,4.5-1.7,7c-0.2,2.7-0.6,5.3-1.2,7.9c-1.2,6.3-0.1,13-0.8,19.3
	c-0.7,6-1.2,12.1-2.3,18c-0.5,2.5,0,5.2-0.1,7.8c-0.2,3.4-0.8,6.7-1.1,10c-0.5,5.2-0.6,10.5-0.5,15.8c0.1,5.4-1.7,10.6-1.8,16
	c0,3-1,5.5-1.1,8.5c0.1,2.3-0.1,4.7-0.5,7c-0.7,2.6-1.1,5.3-1.2,8c-0.1,2.5,0.3,4.6-0.8,6.9c-1.4,3-2.5,4.4-1.6,7.8
	c0.7,2.6,1.2,4.2,0.5,7c-1.3,5.2-0.7,10.1-1.6,15.3c-0.6,2.5-1.1,5.1-1.3,7.7c-0.1,2.8,0.7,5.6,0.5,8.5c-0.1,2.6-1.2,4.9-1.5,7.5
	s-0.2,5.3-0.4,8c-0.4,4.6-2.2,9-1.6,13.7c0.6,3.7,0.5,7.4-0.3,11.1c-0.8,3.2-1.2,6.5-1.1,9.8c0,4-1.3,7.6-1.6,11.5
	c-0.2,3.7,0.4,7.4,0.1,11.1c-0.3,3.3-1.5,6.2-1.5,9.5c0,3.5-0.8,7-1.3,10.5s0.4,7.1-0.2,10.3s-2.9,5.1-0.6,8.6
	c-1.8,4.5,1.5,7.5,2.8,11.5c1.1,3.1,0.8,6.5,0.7,9.8c-0.1,5,2.4,9.4,3.8,14.1c0.4,1.6,0.9,3.2,1.6,4.7c0.9,1.5,3.6,2.5,3.9,3.7
	l0.4,1.5c1.2,4.5,3.2,8.2,8.1,9.2c-0.9-0.2-1.7-0.4-2.6-0.6c0.8,0.1,1.7,0.4,2.5,0.6L896.5,613.8z M982.4,578
	c-0.2-2.4,0.5-4.8,0-7.2c-0.4-2-0.5-1.8,0.5-3.5c0.7-0.9,1.4-1.9,2-3c0.9-2.3,0.5-4.9,1-7.3c0.6-2.6,1.8-5.1,2.7-7.6
	c0.7-2.5,1.5-4.9,2.5-7.2c1-2,1.6-4.2,1.5-6.4c-0.1-5.1-0.7-10.2-1.8-15.2c-1-5,3.2-7.6,4-12.4c0.3-1.9-0.2-3.6,0.5-5.4
	c0.8-2.2,2.4-3.7,2-6.3c-0.3-2.1-1.3-2.8-0.6-4.7s1.5-3,1.6-5.2c0.2-4.2,0.5-8.4,0.8-12.5c0.5-5.1,2.1-11.6,1-16.7
	c-0.5-2-1.2-2.6-0.4-4.6c0.6-1.5,1.7-2.7,2.3-4.2c0.7-1.4,0.9-3.1,0.4-4.6c-0.6-1.6-2.1-2.2-1.9-4.1c0.1-1.5,1.5-2.7,2-4
	c0.5-1.7,0.5-3.4,0-5.1c-0.3-1.6-1.1-3.1-0.8-4.7s1.6-2.8,2-4.3c0.5-2-0.5-3.3-0.5-5.1c0.2-1.3,0.6-2.6,1.2-3.7l0.4-1
	c0.6-0.3,1.3-0.2,1.8,0.2c3.3,6.8,7.5,11.6,13.1,14.8c-0.1,3.4,1.4,6.7,4.2,8.6c2.1,1.5,4.7,2.3,5.5,5.1c0.6,1.8,1.6,4.6,4.8,5.5
	c0.5,1.3,1.4,2.4,2.7,3c0.7,0.2,1.5,0.2,2.2,0c0.4,0.6,0.9,1.3,1.5,1.8c2.1,2.1,5,3.2,8,3c2.6,2.9,7.1,2.3,10.4,4.1
	c4.7,2.5,9.5,5.1,14.8,6.3c2.2,0.5,4.6,0.6,6.8,1.2s4.1,1.8,6.3,2.2c1.9,0.4,4,0.3,5.8-0.4c1.5-0.6,3-2.6,4.6-2.2c1,3,6.5,3,6.1-0.7
	c2.7,0.4,5.3,0.4,8,0.7c2.1,0.3,4.7,2.1,6.7,2c1.2,0,1.6-1,2.7-1.1c1.2-0.1,1.2,0.2,2.5,0.5c2.1,0.3,2.5-0.4,4.2-1s2-0.2,3.4,0.2
	c2.7,0.9,3.9,0.3,6.6,0.1c1.5-0.1,0.6-0.5,1.9,0.7c0.6,0.5,1,1.3,1.8,1.7c2.3,1.1,4.3-1.7,5.5-1.2l0.7,0.2c2.4,0.9,5.1,0.6,7.5,1.4
	c0.9,0.3,1.7,1.1,2.6,1.3c1.2,0.4,2.4,0,3.7,0.3c2.3,0.9,4.4,2.1,6.2,3.7c1.8,1.8,2,4,4.7,5.4c5.1,2.6,5.8,7,7.4,12.1
	s4.8,9.5,5.7,14.8c0.2,1,1,2.5,1.1,3.4s-1,2.5-1.3,3.4c-0.8,2.5-2,5-3.4,7.2c-2.7,3.9-7.3,8.4-11.6,10.6c-2.1,1.1-4.3,1.4-6.2,3
	c-1.5,1.3-2.9,2.1-4.4,3.2c-2,1.6-4.4,2.8-6.8,3.6c-2.9,1-4.9,2.6-7.4,4.4s-17.7,7.2-12.2,11.3c-5.3,1.3-10.7,2.8-16,4
	c-5,1.1-10.5-0.1-14.6,3.5c-1.4,1.2-2.2,2.8-3.9,3.6c-2,0.9-4.7,0.8-6.8,1.2c-4,0.7-7.9,1.7-11.7,3.1c-3.2,1.2-6.7,0.6-9.8,1.8
	c-1.4,0.6-2.6,1.8-4.1,2.1s-2.8-0.1-4.2,0.2c-3.4,0.8-5.8,2.7-9.4,3s-6.4,2.1-9.9,2.9c-3,0.8-7-0.5-10.3,0
	c-3.8,0.5-6.8,1.5-10.7,1.1c-3.9-0.4-7.6,0.5-11.5,1.2c-3.1,0.5-5.5,0.6-7.9,2.8c-3.5-2.9-5.7-1.4-9.5-0.9c-1.5,0.2-2.9-0.4-4.4,0.1
	c-1.2,0.5-2.5,0.8-3.8,0.8c-3.2,0.1-4.7-0.5-4.2-3.8c0.4-2.1,2.2-3.4,2-5.6c0,0.3,0,0.5,0.1,0.8L982.4,578
	C982,574.9,982.5,579.7,982.4,578L982.4,578z M1110.7,246.2c3.4-1.3,7-2.4,10.5-3.6c2.8-1,6.3-0.3,8.9-1.6c0.4-0.2,2.1-2,2.7-2
	c0.8,0.1,1.4,1.7,2.2,2.5c2.2,2.3,4.7,2.6,7.7,2.8c1.1,0.1,3.4-0.4,4.4,0s1.2,1.5,2.2,2.1c3.4,2.1,4.3-1.7,7.1-2
	c2.4-0.2,4.3,2.8,5.7,4.3c1.2,1.4,5.8,4.4,4.7,6l-1,1.4c-1.3,1.8-2.5,3.6-3.6,5.5c-1,1.9-1.5,4.5-2.8,6.1s-2.6,1.5-4.3,2.4
	s-2.7,2.4-4.1,3.4c-2.6,1.7-4.8,4.7-7.5,6.2c-1.5,0.8-3.7,0.4-4.7,2c-1.3,2.1,1.3,3.7-0.8,5.4c-4.1,1.3-3.9,6.4-6.5,9.2
	c-3,3.2-7.7,4.7-11.6,6.5c-6.3,2.9-12.7,5.5-19.2,8c-2.1,0.8-3.8,2.5-5.8,3.5s-3.6,0.4-5.8,0.9c-2.5,0.5-2.4,2.2-3.9,3.7
	s-4.9,1.8-7,2.6c-2.6,1-5,2.3-7.2,4c-2.2,1.7-2.2,2.3-4.9,2.4c-4.7,0.1-7.3,2.8-11.1,5c-2.2,1.3-3.7,1.1-6.1,1.5s-2.2,1.5-3.8,3
	c-3,2.7-7.8,0.8-11.3,0.7c-4.9-0.2-9.6,2.4-14.5,2.6c-4.9,0.2-7.6,3.2-10.8,6.8c-4.6,5.1-4.4-4.2-4.5-6.8s0.5-4.8,0.7-7.3
	s-0.7-4.9-0.8-7.4c-0.4-5.9,0.3-12.1,0.3-18.1v-30c0-2.8-0.2-5.4-0.4-8.1c-1-0.8-1-1.5,0.1-2.1l0.7-1c1.4-1.2,1.1-1,3.2-1.1
	c2.7-0.1,4.6-1.7,6.9-2.7c1.8-0.8,3.8-1.1,5.7-2c1.8-1,3.8-1.6,5.9-1.8c1.9-0.1,3.7,0.7,5.6,0.5s2.5-1.6,4-2.2
	c1.8-0.7,1.7,0.8,3.6,1.7c3.4,1.6,6-0.9,8.9-2.2s6.2-1.5,9.2-1.9c4.9-0.6,9.2-1.7,13.2-4.6c3.6-2.5,9.6-1,13.9-1
	c2.4,0.2,4.9-0.1,7.2-0.8c2.1-0.8,3.6-2.5,5.9-2c2,0.4,3.5,1.4,5.7,1.3c2.6-0.3,5.1-0.9,7.4-2l-1.6,0.6l1.4-0.5L1110.7,246.2z
	 M1098.8,465.7L1098.8,465.7L1098.8,465.7L1098.8,465.7z M1098.8,465.7h0.2l-0.1,0.2C1098.9,465.9,1098.8,465.8,1098.8,465.7
	L1098.8,465.7z"/>
    <path fill="#FFFFFF" d="M1872,528.3c-0.4,3.5,1.6,6.7,2.4,10c0.9,3.5,0.6,7,0.5,10.6c-0.3,7.6,2.8,13.9,4.1,21.2
	c0.4,3.2,1.1,6.3,2.1,9.3c1.1,3.2,1.1,6.4,2.5,9.5s2.3,6.5,3.6,9.8c1,2.4,2.7,4.4,3.2,6.9c0.9,3.5,2.2,5.9,5.2,7.8
	c3,1.9,5.6,4.4,7.8,7.2c2.5,3,5.6,4.8,8.4,7.4s4,6.4,7.1,9c2.7,2.2,5.9,3.8,8.6,6.1c2.4,2,4.7,4.5,7.8,5.4c2,0.6,1.9,0.4,3.1,1.8
	c0.8,1.1,1.4,2.3,2.3,3.4c1.4,1.7,3.7,4.6,6.2,4.4c5.7,0.2,11.1,8.4,16.7,3.4c1.5,4.9,6.3,2.4,9.9,3.5c1.2,0.4,0.6,0.4,1.6,1.6
	c0.6,0.8,1.5,1.4,2,2.2c1.2,1.8,0.6,3,3.3,3.9c0,3.2,3.7,3.2,6.1,3.3c1.3,0.2,2.6,0,3.8-0.3c0.7-0.3,1.9-1.4,2.7-1.5
	c1.2-0.1,3,1.6,4.8,1.5c2-0.1,4.2-0.7,6.2-0.9s3.3-1.4,5.2-1.5s3.7,0.5,5.4-1c0.4-0.4,0.8-1.5,1.2-1.8c0.6-0.4,2.7-0.2,3.6-0.2
	c2.1,0,3.4,0,4.7,1.7c1.1,1.4,1.1,3.1,2.7,4.1c1.3,0.8,3,0.6,4.6,0.7c2.9,0,6.6,0,7.5-3.5c1-3.8-3.1-6.7-3.3-10.4
	c2.5,0.3,6,1.1,7.4-1.8c0.8-1.8-0.2-6-0.6-7.9c-0.7-2.7-2.8-4.5-3.9-7c-0.6-1.7-1.2-3.5-1.6-5.3c-1.4-4.9-2.8-9.8-4.3-14.6
	c-1-3.2-2.4-6.3-4.2-9.1c-1.9-3.1-1.8-6.1-2.5-9.5c-1.4-6.3-4.7-12.1-6.5-18.3c-2.1-7.3-2.6-14.6-3.8-22c-1-6.2-4.5-10.4-4-17
	s-2.7-12.2-2.8-18.8c-0.2-6.1-2.2-12.9-1.1-18.9c0.5-3,0.6-4.4-0.5-7.2c-0.6-1.5-1.8-3.4-1.9-5.1c0-1.3,0.8-2.6,1-3.9
	c0.6-3-0.5-5.5-1.1-8.4c-0.3-2.7-0.3-5.4,0.2-8.1c0.4-3.4-1.7-6.3-1.7-9.6c0.1-1.2,0.2-2.3,0.3-3.5l1-9.9c0.5-6.5,0.7-13,0.5-19.5
	c-0.1-5.6-1.5-13.1,0.8-18.4c2.9,1.2,5.2,3.4,7.6,5.5c2.9,2.4,5.9,4.7,9,6.9c2.1,1.5,3.9,3.4,5.2,5.6c1.5,2.3,3.2,4.6,5,6.6
	c1.1,0.3,1.5,1,1,2.1c0,0.8,0,1.5-0.1,2.2c-0.1,1.7,0,3.4,0.3,5.1c0.9,2.8,2.3,5.5,4.2,7.8c2.2,2.5,5.2,2.6,8.1,3.5
	c3.3,1.1,6.5,2.3,9.8,3.4c3.1,1.1,6.3,1.9,9.6,2.3c0.9,0.1,2.3-0.2,3.1,0.1c1.7,0.6,1.5,1.2,2.2,3c1.4,2.9,3.3,5.5,5.5,7.7
	c1.1,1,2.2,2.1,3.3,3.3c0.8,0.2,1.4,1,1.2,1.9c0,0.1-0.1,0.2-0.1,0.3c0,0.7,0.2,1.5,0.5,2.1c1.1,2.5,3.9,4.1,5.7,6
	c2.1,2.2,3.9,4.7,5.5,7.3c3.4,5.4,6.5,11.1,11.4,15.4c1.2,3.3,1.2,5.7,4.1,8c2.2,1.7,4,3.8,6.1,5.7c3,2.7,4.3,6.2,6.5,9.5
	c2.4,3.3,5.1,6.5,7.9,9.4c2.3,2.5,5.9,5.6,7.4,8.3c1.6,3.2,3.7,6.1,6.3,8.5c0.7,0.5,1.4,1.1,2.1,1.8c0.6,0.9,0.3,1.1,0.6,2.1
	c0.6,1.6,1.3,3,2.3,4.4c1.9,2.9,4.2,6,6.3,8.6c2,2.5,5.5,2.5,6.7,5.5c0.6,1.5,0.6,3.2,1.8,4.5c0.6,0.8,2.8,2.8,4,2.6
	c3.2,4.3,4.7,9.8,8.3,13.9c1.9,2.1,4.1,2.6,6.2,4.1c2,1.5,3.7,4.6,5.6,6.5c1.7,1.6,3.2,3.4,4.6,5.4c1.8,2.6,3.4,2.7,6.2,3.9
	c4.1,1.8,6.9,6.4,10.8,8.8c3.3,2.1,5.2,4.8,8,7.3s6.6,3.5,9.6,5.7c7.2,5.4,15.2,9,23.5,12.3c3.6,1.4,6.9,0.1,10.8,1.1
	c4.1,1.1,6,1.6,9.9-0.6c2-1.1,7-6,8.5-4.9c1.1,0.8,1.7,2.7,3.2,3.7c1.3,0.7,2.6,1.4,3.9,1.9c4,1.8,7.2-1.7,8.1-5.2
	c1.2,5.5,6.7,3.9,10.4,2.6c3.5-1.2,5.4-4,5-7.8c2.1-0.6,5.2-2.5,4.5-7.9c1.7-3.2,5.2-6.3,1.7-10c-1.3-1.3-3-1.6-4.6-2.1
	c-0.9-0.3-1.2-0.1-1.8-0.6c-0.5-0.3-0.9-1.5-1.3-2.1c-1.5-1.8-1.5-1-0.9-3.6c0.5-2,0.7-3.9,1-5.9c0.6-3.5,3.7-7.4,1.5-10.8
	c-0.8-1.2-2.3-1.9-2.3-3.6c0-2.3,0.6-3.4-0.1-5.8c-0.9-2.8,0.1-7.3-3.5-8.1s-8.8,2-12.3,2.5c-4.1,0.6-5.9,0.2-8.4-3
	c-1.5-1.7-0.4-4.5-0.7-6.5c-0.5-3.2-2.3-6.1-3.8-8.8c-1.9-3.2-3.9-6.4-5.9-9.6c-1.1-1.8-2.1-0.6-2.5-3c-0.3-2,0.3-4-0.6-6
	c-1.4-3-4.5-4.5-5.7-7.7c-1.5-3.6-2.4-7.6-4.5-10.9c-0.9-1.3-1.9-2.5-3-3.6c-1.2-1.4-0.9-1.2-1.5-2.8l-4.4-10.8
	c-0.8-1.8-2.7-3.1-3.7-4.9c-0.7-1.2-1.2-2.6-1.7-3.9c-1.1-2.7-2.9-5-5.2-6.8c-1.1-0.8-4.4-1.6-4.9-3.1c-0.5-1.7,1.7-4.9,1.6-6.8
	c-0.1-2.8-1.7-5.3-2.9-7.7c-2.5-5-2.6-11.4-6-15.8c-2.9-3.7-2.5-7.1,2.6-8.3c3.1-0.7,4-3.8,6.3-5.6c1.7-1.4,3.5-2.5,4.8-4.3
	c0.1-0.1,0.2-0.4,0.4-0.5c7.3,1.6,11.8-8.3,16.9-11.7c1.6-1,3.2-1.9,4.7-3.1c0.7-0.5,1.8-2.1,2.5-2.4c0.4-0.2,1.4,0.3,2.1,0.1
	c2.4-0.7,4.9-4.5,5.6-6.7c0.6-1.9,1.2-1.7,2.4-2.7c1.4-1.1,1.9-2.4,2.9-3.9c2.5-3.6,6.7-4.4,8-8.6c1.2-3.9,4.4-8.1,6.4-11.8
	c2.2-3.8,4-7.8,5.6-11.9c2.1-5.5,6.2-9.9,7.4-15.6c1.1-5.3,2.3-11.4,1.2-16.6c0.3-0.1,0.8-0.2,1.6-0.4c3.7-0.2,3.2-2.8,4.2-5.5
	c1.2-3.7,1.1-6.6,1.2-10.5c0.1-1.8,0.1-3.6,0-5.4c-0.2-1.5-1.7-3.8-1.6-5.1c0.1-1.7,1.9-3.4,1.9-5.5c-0.1-2-0.8-3.9-2-5.5
	c1.6-1.2,2.3-3.4,1.6-5.3c-0.2-0.6-1-1.1-1.2-1.9c-0.3-1.1,0.1-2.2,0.1-3.4c-0.2-4.1-3.1-8.4-4.2-12.3c-1-3.8-2.4-7.4-4.2-10.9
	c-0.9-1.7-0.6-3.1-1.3-4.8c-0.8-2.1-2.8-2.1-4.3-3.4c-1-0.9-2-3.2-2.9-4.3c-1.2-1.4-2.5-2.8-3.9-4.1c-1.1-1.3-1.9-2.7-2.6-4.2
	c-0.4-0.8-1-1.4-1.5-2.2c-0.4-0.4-0.8-0.8-1.3-1.1c0.1-0.8,0.1-1.6,0-2.4c-0.6-4.6-4.2-3.9-6.7-6.8s-4-6.5-6.9-9.2
	c-0.6-0.5-1.3-1-2-1.4l-0.4-0.2c-0.9,0.3-1.4,0-1.4-1c-1.3-1-2.7-1.8-4.2-2.4c-3.4-1.5-7.8-3.4-10.4-6.1c-1.1-1.1-1.2-2.7-2.2-3.8
	c-0.6-0.6-1.4-0.8-1.9-1.3s-0.7-1.3-1.3-1.9c-2.2-2.4-5.6-3.4-7.8-5.3c-1.7-1.5-2.6-3-4.9-3.9c-1.2-0.4-2.7-0.3-3.8-1
	c-1.3-0.9-1.6-2.3-2.5-3.6c-1.6-1.9-3.6-3.5-5.7-4.8c-7.9-5.2-16.4-9.5-25.1-13c-2.3-0.9-4.6-1.7-6.9-2.3c-2.8-0.7-6.4-0.5-9-1.5
	c-1.6-0.6-2.3-2.1-3.8-2.8c-2.2-1.1-5.2-0.2-7.5-0.6c-5-0.9-9.9-2.1-14.9-3c-2.7-0.5-5.3-0.4-7.7-1.4c-2.1-0.8-4.3-1.1-6.6-0.9
	l-1.1,0.1c-2.3,0.1-4.2-1.5-6.4-1.9s-4.7,0.5-7-0.4c-1.8-0.7-3-2.2-4.9-2.8c-2.5-0.8-3.3,0.6-5.5,1.1c-1.8,0.4-3.6-0.7-5.4-0.7
	c-2.1,0-4.1,1.3-6.2,1c-1.9-0.2-3.6-1.3-5.6-1.6c-1.6-0.2-3.2-0.3-4.8-0.3c-6.6-0.2-13.2-0.3-19.9-0.4c-2.7-0.1-5.5,0.2-8.1,0
	c-2.4-0.2-3.9-2.5-6.4-1.8c-1.3,0.3-2.2,1.3-3.5,1.6c-1.1,0.1-2.3,0.1-3.4,0.1c-2.4,0.2-4.3,1.9-6.6,1.9c-2.1,0-3.9-1.6-6-1.9
	c-2.8-0.5-4.7,1.3-7.3,1.5s-5.2,1.1-7.8,1.3c-3,0.2-5.3-1.8-8.1-1.9c-2.6-0.2-5.7,1.5-8.3,1.8c-2.9,0.3-5.8,0.7-8.6,1.4
	c-2.8,0.7-5.7,1.1-8.6,1.1c-1.3-0.2-2.5-0.1-3.8,0.2c-1.4,0.4-1.8,1.2-3.4,1.3c-3,0.1-5.3-0.5-8.4,0.4c-2.9,0.8-4.9,0.2-7.9,0.3
	c-1.1,0.2-2.2,0.5-3.3,0.9c-0.8,0.2-0.6,0.5-1.4,0.5c-0.4,0-1.2-0.5-1.6-0.6c-1.1-0.1-2.1,0-3.1,0.4c-0.8,0.2-0.6,0.7-1.6,0.8
	c-0.8-0.1-1.7-0.3-2.4-0.6c-5.1-1.6-12.2-2.9-17-0.3c-2.1,1.1-3.4,1.5-3.8,4c-0.2,1.2,0.2,1.8-0.6,2.4s-2.3,0.6-3.2,1.3
	c-1.6,1.3-2.5,3.2-2.7,5.2c-0.2,2.8,2,4.8,2,7.5s-1.9,5-3,7.3c-1.3,2.6-1.9,5.5-1.8,8.4c0,2.5,1.1,4.2,1.8,6.4
	c0.1,0.8,0.2,1.5,0.4,2.3c0.3,0.9,1.2,1.3,1.2,2.4c0,2.1-2.8,4.2-3.8,5.9c-1.4,2.5-2.7,4.7-4.4,7.1c-3,4.4-4.6,9.9-7.3,14.5
	c-1.8,2.9-3.4,5.9-4.7,9c-1.2,3.3-1.9,6.7-3.5,10c-3.1,6.3-5.6,13-7.3,19.9c-0.9,3.4-2.9,6.2-4.1,9.4c-0.6,1.5-0.8,3.1-1.3,4.6
	s-1.3,2.5-2,4c-1.2,2.7-0.8,5.8-1.8,8.6c-0.8,2.3-2.5,6,1.4,7c-5.2,11.1-5.3,22.7-7.3,34.5c-0.9,5.6-2.4,11-3.7,16.5
	c-1.2,5.2,0.2,10.2-0.4,15.4c-0.3,2.6-1.3,5-1.5,7.6c-0.1,2.7-0.5,5.3-1.3,7.9c-1.6,5.1-0.3,10.5-2,15.7c-1.6,5-1.1,9.6-1.7,14.7
	c-0.5,4.8-1.4,9.4-1.4,14.2c-0.1,4.1,0,8.2,0,12.3c0,9.5-0.1,19-0.1,28.4c-0.1,8.5,3.4,17.7,1.7,26.1c0.1-0.6,0.2-1.3,0.2-2
	C1872.3,527.1,1872.2,527.7,1872,528.3C1871.6,531.7,1872.5,523.8,1872,528.3z M1999.6,340.9c2-1.4,2.8-4,2-6.3
	c-0.8-2.7-1.2-2.4,0.6-4.8c3.9-5,3.9-11.1,4.9-17.2c0.8-5.1-0.1-10.4,2.2-15c1.3-2.4,2.1-5.1,2.1-7.8c0-1.4-0.1-2.8-0.4-4.2
	c-0.2-1.5-1.6-3.5,0.2-3.9c2,1.7,4.8,1.5,5.9-1.1c3.9,3.2,8.8,3.3,13.6,3.3c3.9,0,8.5,0.8,11.8-1.8c0.6-0.6,1.2-1.2,1.7-1.9
	c1.4-1.5,0.3-1.3,2.3-1c2.2,0.3,4.4,1.4,6.6,1.8c3.4,0.6,6.8,0,10.2-0.5l2.2-0.3c1.8-0.2,3.6-1.1,5.4-1c1.6,0.1,2.6,0.9,4,1.4
	c4,1.5,5.3-0.6,8.6-2c1.6-0.7,2.2,0.1,4.1,0.6c1.5,0.3,3.1,0.4,4.7,0.3c3.3-0.2,6-1.9,8.8-3.5c1.5-0.9,3.2-2.6,5-2.1
	s2.8,2.3,4.6,2.7c0.6,0.1,7-0.8,6.3-2.1c2.4,2,3,3.3,6.5,3c3.1-0.3,4.1-1.6,6.3-3.5c2.4,2.7,3.9,0.1,6.4-0.1c0.7,0,3.9-1,4.3-0.9
	c1.4,0.3,2.7,3,4.5,3.5c1.8,0.5,3.7,0.3,5.4-0.4c2.6-1.1,1.6-1,3.6,0.5c1.6,1.3,2.7,1,4.6,1.3c2.1,0.3,2.8,1.5,4.7,2.3
	c1.5,0.5,3.2,0.6,4.8,0.3c1.4-0.2,4-2,5.1-1.8s1.8,1.6,3.3,2c0.7,0.2,1.6-0.3,2.4-0.1c1,0.3,1.9,0.6,2.9,1c2.1,0.8,2.7,0.6,3.3,2.9
	c0.4,1.5,0.5,3.1,0.1,4.6c-1,4.4-3.7,9-5.8,13c-1.9,3.7-4,7.2-6.1,10.8c-0.7,1.4-1.6,2.8-2.6,4c-1.2,1.3-2.6,1.7-3.3,3.4
	c-0.3,0.8,0.1,1.4-0.3,2c-0.2,0.4-1.1,0.8-1.4,1.2c-0.5,0.6-0.9,1.8-1.4,2.2c-1.1,0.9-2.3,0.9-3.4,2.3c-1.1,1.6-2.4,3.1-3.7,4.5
	c-2.9,2.7-6.5,4.3-9.4,7c-3.1,2.8-4.4,6.1-5.2,10.1c-0.7,3.4-1.6,5.4-5.2,6.3c-1.8,0.3-3.6,0.5-5.4,0.6c-2.1,0.2-4.5,1.4-6.5,1.5
	c-1.3,0.1-2.8-1.9-4.9-1.8s-3.8,1.3-5.8,1.7c-4.5,1-10.2-0.1-14.7-0.6c-2.3-0.2-3.5-1.4-5.5-2.2s-4,0.2-6.1-0.4
	c-1.6-0.4-2.1-2-3.6-2.5c-1-0.2-2-0.3-3-0.2c-23.1-0.8-54.6-1.6-61.8,0.2l-21.3,4.5c0.9-4.6-3.5-13,1-16.3l-0.6,0.4L1999.6,340.9z"
    />
    <path fill="#FFFFFF" d="M2331.3,528.9c-0.2,1.4,0.1,2.8,0.6,4.1l0,0c1.2,2.4-0.6,5.2-0.1,7.8c0.2,1,0.5,1.9,0.9,2.9l2.2,7.4
	c1.8,6.1,3.2,13.6,7.3,18.5c0.5,0.3,1.1,0.6,1.7,0.8c0,0.8,0.2,1.7,0.4,2.5c0.4,1.6,1.2,3.1,2.1,4.5c1.9,2.7,5,4,7,6.5
	c4.2,5.4,8.6,10.8,14,15.1c1,0.7,1.9,1.5,2.7,2.5c0.9,1.2,1.4,2.1,2.8,2.8s2.5,0.5,3.6,1.8s1.1,2.6,2.6,3.5c2.4,1.4,5.6,1.6,8.1,3.1
	c3.6,2.2,7.1,4.7,10.8,6.9c1.6,1,3.3,1.6,4.4,2.8c1.1,1.1,2.4,2.2,3.8,3c3.6,2.5,6.4,4.6,11.1,4c3.2,1.4,6.7,4.3,9.7,6.2
	c1.9,1.2,3.7,2.8,6,3.3s3.5-0.5,5.6-0.8c2.3-0.2,5.7,3,8.7,3.1c1.5,0.1,3.1-0.2,4.4-0.9c1.2-0.6,1.9-1.9,3.1-2.3
	c0.5-0.2,1-0.3,1.6-0.5c0.9,0.5,1.1,2.3,2.2,3s2.1,0.3,3.1,0.7c0.6,0.2,1.5,1.1,2.6,1.2c0.8,0.1,1.5-0.6,2.1-0.7
	c0.8,0,1.2,0.4,2.2,0.7c2.1,1.1,3-0.7,4.7-0.3c1.1,0.2,2.1,2.6,3.4,3.6c1.6,1.4,3.8,2.1,5.9,1.8c1.4-0.2,2.3-1.3,3.6-1.6
	c1.1-0.2,2.6,0.2,3.8,0.1c2.3-0.1,4.5-0.5,6.6-1.2c1-0.3,1.8-0.8,2.7-1.2c0.9-0.3,1.8-0.6,2.7-0.7c1.9-0.4,3.5-1.2,5.4-1.3
	s3.8,0.3,5.7,0.2c3.5-0.2,6.4-2.5,7.8-6.6c0.7-0.4,1.5-0.7,2.3-0.9l1-0.3c0.9-0.3,2.4-1.4,3.4-1.4c0.6,0,1.5,0.7,2.2,0.9
	c2.1,0.5,4.2-0.1,5.8-1.6c1.4-1.3,2.2-3.4,3.3-4.9c0.5-0.7,1-1.6,1.6-2.3c0.9-1.1,0.5-0.9,2.1-1.7c3.5,0.8,8-2.7,9.7-5.4
	c0.4-0.7,0.6-2.3,1.1-2.8s2.5-0.8,3.2-1.4c0.7-0.6,1.4-1.3,1.9-2.1c1.7,0.7,3.6,0.2,4.7-1.2c0.8-0.9,0.4-1.5,1.4-2.2
	c1.1-0.8,2.3-1.3,3.6-1.6c0.9,0,1.8,0.9,2.9,0.8c0.9-0.1,1.8-0.6,2.5-1.2c0.4-0.4,0.7-0.9,0.8-1.5c0.7-0.1,1.3-0.3,1.9-0.6
	c1.2-0.7,2.4-1.5,3.5-2.5c2.1,3.3,5.6,0.6,7.5-1.4s4.1-4.3,7.1-4.8c4-0.5,4-0.5,6.1-3.7c3.4,1.9,9.5-0.9,11.4-4.1
	c0.4-0.6,0.4-1.3,0.8-1.9c0.9-1.6,0.4-0.8,1.9-1.7c1.9-1.1,3.7-2.4,5.4-4l0,0c1.6,2.6,2.7,5.4,3.2,8.3c0.6,3.2,2.2,5.7,3.6,8.6
	c2.8,6,4.9,12.3,8,18.2c2.8,5.5,5.9,10.7,9.5,15.7c1.6,2,3.4,3.8,5.3,5.6c1.4,1.5,3,2,4.4,3.2c2.2,1.9,3.4,4,5.1,6.2
	s3.4,2.3,5.9,3.2c5.4,2,6.8,8.9,13.4,8.8c2.5,0,4.4-1.6,6.8-1.9c2.9-0.3,5.2,1.7,7.7,2.8c3,1.4,11.7,7,12.9,0.8
	c-0.2,3.5,3.1,2.3,4.9,3.3s2.1,3.8,3.8,5.2c1.8,1.5,5.2,3,7.6,2.8c1.2,0,2.3-0.6,3-1.5c0.4-1,0.6-2.1,0.7-3.2c2.8-1.2,4-4.4,2.8-7.2
	c-0.1-0.1-0.1-0.3-0.2-0.4c1.5-1.3,2.2-0.2,4,0.1c1.7,0.2,3.4-0.2,4.7-1.3c1-0.7,2.2-1.8,2.3-3.2c0.1-0.5-0.7-1.6-0.6-1.9
	c0.2-0.6,1.9-1.6,2.3-2.2c1.2-1.6,1.3-3,1.6-4.8c0.4-1.5,1-3,1.8-4.4c0.9-1.8,1.4-3.8,1.3-5.9c-0.1-1.6-1.9-3.3-1.9-4.6
	c1.5-1.7,1.5-3.8,2.3-5.9c0.9-2.3,2.5-4,2.9-6.5s-0.3-4.5-0.5-6.8c-0.3-2.8,0.6-5.1,1.3-7.8c2.2-7.6,2.6-15.5,3.2-23.4
	c0.5-5.6,2.1-11.1,2-16.8c0-1.3-0.3-2.4,0.2-3.5c0.3-0.7,1.3-1.3,1.7-2.1c0.7-1.7,1-3.6,0.9-5.4v-0.7c0-2.1,0-1.5,1-3.1
	c0.6-0.8,1.1-1.6,1.5-2.5c0.8-2.5,0.9-5.2,0.1-7.6l-0.6-1.1c-0.9-0.7-0.9-1.3-0.1-2.1c0.1-1,0.5-2.2,0.7-3.2c0.4-2.5,1.7-4.7,2-7.2
	c0.7-6.5-0.1-13.4-0.1-20s0.5-13.3-0.1-20c-0.3-3.4-0.7-6.7-1-10c-0.2-2.8,0.2-5.9-0.6-8.6s-1.6-3.5-0.6-6.2c1-2.5,1.2-5.2,0.7-7.8
	c-0.3-1.3-1.1-2.4-1.4-3.7c-0.2-1.7-0.2-3.5-0.1-5.2c0.2-2.9,0-5.9-0.6-8.8c-1.1-5-3.1-9.8-6-14c-1.7-2.6-1.7-4.7-2.5-7.5
	c-0.5-1.7-1.3-3.4-2.4-4.8c-0.6-0.7-1.2-1.4-1.8-2.1c-1-0.4-1.3-0.9-0.7-1.6c-0.4-1.5,0.3-2.5-0.7-4.3c-0.9-1.1-1.6-2.3-2.3-3.6
	c-0.6-1.9-1.1-3.8-1.4-5.8c-0.7-3.3-2.4-6.3-3.9-9.3c-0.5-1-0.9-2.6-1.7-3.5s-1.8-0.9-2.7-1.8c-0.6-0.7-0.8-2-1.4-2.8
	s-1.6-1.4-2.2-2.3c-1.4-2.3-2.5-5-3.9-7.4c-1.2-2-2.3-4.1-4.4-5.3c-0.8-0.4-3.5-0.5-3.8-0.9c0,0-0.6-3.2-0.7-3.5
	c-0.6-1.3-1.6-2.2-2.2-3.4c-0.5-1.2-0.8-2.4-0.9-3.6c-0.6-2.7-2.7-4.9-5.3-5.6c3.9-4.6-1.1-6.3-3.4-9c-2.1-2.5-3.9-6.5-8-3.6
	l-0.3-0.9c1.9-3.1-2.1-6.3-4.9-6.1c-1.8,0.1-2.7,1.1-3.9,2.2c-0.8,0.7-0.7,1-1.5,1.3s-1.9-0.2-2.7,0.2c-5.2,0.5-8.6,4.2-11.5,8.3
	c-2.6,3.7-5.6,6.5-8.7,9.7c-3.6,3.8-5.8,8.9-8.7,13.2c-3,4.2-5.4,8.8-7.3,13.6c-1.7,4.6-3.1,9.4-5.6,13.7c-1.1,1.9-2.8,3.6-3.6,5.6
	c-0.8,2.4-1.4,4.8-1.9,7.3c-0.6,2.5-0.9,5.2-1.8,7.7c-0.6,1.9-2.7,4-2.9,5.9c-0.4,4.8,6.2,6.3,9,3.3c-1.2,2.1-2.7,4.5-2.8,7
	c-0.1,1.4,0.9,2.6,0.9,3.8s-1.1,3.1-1.5,4.5c-1.9,6.2-3.1,12.7-4.8,19c-3,11.2-5,22.6-7.7,33.9c-0.8,3.6-1.6,7.1-3.7,9.7l-0.6,0.7
	c-1.3,1.4-2.2,3.1-2.6,5c-0.4,1.9,0.1,2.4-1.2,3.5s-5,1.4-6.8,2.2c-2.4,1-4.6,2.2-6.9,3.3c-8.9,4.5-18.2,7.9-27.2,12.4
	c-18.1,9.1-36.9,16.7-55.6,24.4c-8.2,3.4-16.2,5.8-24.7,8.4c-1.9,0.6-3.6,1.4-5.5,2.1s-3.6,0.8-5.6,1.1c-3.6,0.8-7.1,1.8-10.6,3
	c-1.8,0.7-3.7,1-5.6,0.9c-0.1,0-5.9-0.4-5.9-0.3c2.6-5.6,2.1-11.5,0-17.1c3.3-3.4,2.6-8,3.2-12.3c0.3-2.4,1.4-3.3,2.5-5.2
	c1.1-2.1,0.3-4.7,0.4-7s1-2.9,2.2-4.5s1.1-2.8,0.9-4.9c-0.4-4.6,1.4-7.7,3.8-11.5c1.7-2.7,3.2-5.6,4.2-8.6c1.2-3.4,0.9-6.3,1.2-9.8
	c0.3-2.9,2.1-3,4.5-4c2.9-1.1,3.1-3.4,4.4-6c1.5-2.9,2.9-5.6,4.1-8.6s3.2-5,3.7-8.2c0.4-2.8,1.8-3.1,3.5-5.2c2-2.4,3-5.8,4.4-8.6
	c2.7-5.3,4.7-11.6,9.9-14.6c2.6-1.5,3.2-2.9,3.6-5.8c0.1-1.1-0.2-1.8,0.5-2.7s2.6-0.9,3.5-1.8c2-2,3-5.2,4.5-7.6
	c2-3.1,4.2-6.1,6.6-8.8c3.8-4.3,6.6-9.8,11.1-13.4c2-1.6,4.6-2.6,6.2-4.6c0.8-0.9,0.8-1.9,1.3-2.9c0.7-1.4-0.5,0,1-1.4
	c0.5-0.5,1.2-0.6,1.7-1.1c1-1,1-2.2,1.7-3.3c0.9-1.3,1.9-1.2,3.2-2c2.2-1.3,1.9-4,3.8-5.3c5.9,0.2,6.9-6.9,11.4-9.4
	s7.5-6.9,11.9-9.8c2.6-1,3.3-1.1,4.7-3.5c1-1.6,1.3-2.2,3.4-1.7c5.4,0.9,5.1-3,8.3-5.9c1.4-1.2,3-1.7,4.1-3.2c1.3-1.8,1.2-3,3.8-3.2
	c1.9-0.2,3.2,0.4,5-0.6c1.4-0.9,2.6-2.3,4.1-3.2c1.7-1,3.3-2.1,4.8-3.4c1.4-1.4,1.7-3.1,3.8-3.6l1.3-0.3c3.5-0.7,6.9-1.9,10-3.6
	c2.7-1.6,4.6-4.1,7.2-5.9c2.7-1.7,5.6-3.1,8.6-4.1c2.9-1.1,5.9-3,8.8-3.8c3.1-0.9,5.8-1,8.9-2.7c2.3-1.3,4.5-3.2,6.9-4.3
	c1.9-0.9,4.2-0.6,6.3-1.5c2.4-1,3.6-3.3,5.8-4.5s5.4,0.1,8.1-1.3c1.4-0.8,2.2-1.9,3.9-2.3c1.2-0.3,2.5,0.1,3.7-0.2
	c3-0.7,5.4-2.9,8.4-3.6s6.2-0.4,8.7-2.4c2-1.6,2.3-4.6,4.8-5.6c2.9-1.2,5.6,0.3,8.1-2.5c0.9-0.9,0.8-1.5,1.8-2s2.3-0.4,3.3-0.7
	c1.9-0.6,4.2-1.4,5.2-3.3c5.1,3.3,9.9-2.2,13.1-5.8c1.5-1.9,3.1-3.7,4.8-5.4c2.3-2,5.3-2.8,7.9-4.5c4.7-3,6.3-9.7,7-15
	c0.5-3.4-1.1-5.8-1.6-9.1c-0.2-2-0.3-3.9-0.2-5.9c0-7.1-4.7-11.7-10.1-15.7c-2.4-1.8-5.1-2.7-6.8-5.4c-1-1.7-1.6-3.6-1.9-5.6
	c-1.2-5.3-4-9.1-7-13.5c-2.8-4.1-5.3-8.3-7.6-12.6c-0.8-1.5-2.1-2.7-3.5-3.6c-2-1.4-2.5-3-3.7-5.1c-2-3.6-4.7-6.1-7.8-8.7
	c-2.2-1.7-4.1-3.8-5.7-6c-1.7-2.3-2.9-4.9-3.6-7.7c-0.7-2.5,0.2-7.4-3.8-6.9c-1.5,0.2-1.9,1.5-3,2.1c-0.9,0.4-2,0.7-3,0.8
	c-2.3,0.4-4.4-0.6-6.6-1.2c-2.5-0.6-5-0.8-7.5-0.7c-2.3,0-4.5,0-6.7-0.2s-5.2,0.5-7.5-0.1c-1.3-0.3-2.3-1.7-3.6-1.7
	c-1.7,0-2.9,1.6-4.8,1.6c-3.2,0-10-2.3-11.8,2c-1.2-0.8-1.4-2.1-3-2.4s-2.1,0.4-3.4,0.8c-2.5,0.9-4,0.6-6.8,0.5
	c-3.3-0.1-6.3,1.5-9.6,1.7c-3.1,0.1-5.2,0.3-7.9,2.2c-2.4,1.7-4.2,4.8-6.7,6.2c-0.9,0.4-1.9,0.8-2.8,1.1c-0.5,0.3-0.9,0.7-1.3,1.2
	c-0.4-0.3-0.9-0.4-1.4-0.4c-2.6,0.9-1.8,2.4-3.5,4.1c-0.8,0.8-2.4,1.1-3.4,1.4c-7.7,2.9-15.8,4-23.6,6.9c-1.4,0.5-2.4,1.8-3.8,2.2
	s-3,0.1-4.5,0.3c-3.2,0.6-6.3,1.7-9.2,3.2l-1.9,0.9c-6,2.7-12.3,3.9-18.6,5.7c-2.6,0.7-6,0.8-8,2.7s-1.5,2.2-4.5,2
	c-3.4-0.2-4.1,0.9-6.7,2.5c-0.8,0.5-2.1,0.7-2.9,1.5s-0.4,1.6-0.9,2.5s-2.2,4.3-3,4.8s-2.2,0.1-3.1,0.7s-1,1.3-1.7,2.1
	c-1.1,1.3-3.1,2.7-3.3,4.5c-0.3,2,0.6,1.3-1,2.9c-0.9,0.9-2.7,1.5-3.8,2.1c-5,3.3-9.8,6.9-14.4,10.7c-4.6,3.7-9.3,7-13.5,11.2
	c-1.9,1.9-4,2.6-6.3,3.9c-0.5,0.2-5.3,4-4.4,4.5c-2.6-1.3-4.2,2.7-5.7,4.1c-2.3,2.1-5.4,3.7-7.9,5.5c-2.2,1.6-4.7,3-6.2,5.4
	c-1.7,2.6-3,2.8-5.4,4.7s-3.3,4.7-4.9,7.3c-1.8,2.9-3.8,5.6-6,8.2c-2.2,2.6-4.3,5.4-6.2,8.2c-0.8,1.2-1.3,2.6-2.5,3.5
	s-2.4,0.9-3.4,1.9c-1,0.8-1.5,2.1-1.5,3.3c0,0.8,0.3,1.6,0.7,2.2c-0.6,0.6-1.1,1.3-1.6,2.1c-1.6,2.4-3.8,4.5-5.3,6.9
	c-0.5,0.9-0.6,2.6-1.1,3.3c-0.6,0.8-2.1,1-2.8,2.1c-1.1,1.9-0.2,4.4-1.2,6.4c-1.1,2.4-3.5,2-4.8,4c-1.7,2.6-0.1,5-2.7,7.2
	c-1.2,0.8-2,2.1-2.3,3.6c0.6,0.9,0.4,1.6-0.6,2l-0.9,0.9c-2.3,2.6-3.9,5.8-4.7,9.2c-1.9,0.6-3.4,2.3-3.8,4.3
	c-0.1,1.1-0.4,2.2-0.7,3.2c-0.6,1.4-1.2,2.7-1.9,4c-1.1,2.4-2.7,4.5-4.8,6.2c-1.9,1.4-4,2.1-5.7,3.7c-3.8,3.7-4.2,8.6-6.5,13
	c-0.8,1.5-2.2,2.5-2.8,4.1c-0.3,0.9,0,2-0.2,3c-0.5,1.1-1.1,2.3-1.7,3.3c-0.8,1.9-0.8,3.8-2,5.5c-1.3,1.5-2,3.5-2.1,5.5
	c-0.5,4.6-3.4,8.8-4.3,13.5c-0.4,2.5-1.3,4.9-2.4,7.2c-0.8,1.5-0.6,2.9-1.2,4.4c-1,2.3-4.2,2.1-5.4,4.3c-0.5,1.3-0.7,2.6-0.5,4
	c0,0.6,0,1.2,0,1.8c-3.4,0.8-4.7,7.2-5.6,10c-0.8,2.4-0.7,5-1.3,7.4c-0.6,2.6-2.4,4.6-3.3,7.1c-0.6,1.9-0.3,3.2-0.5,5
	s-1,2.6-1.5,4.4c-0.6,2.5-0.1,5-0.8,7.5c-0.9,3.4-0.6,5.8-0.8,9.3c-0.1,3.1-1.2,6.1-1.6,9.2c-0.1,1.5-0.2,2.9-0.5,4.4
	c-0.3,1-1.1,2-1.5,3.1c-2,5.3-0.9,11.7-1.6,17.4c-0.4,3.1-0.9,6.2-1,9.3c-0.1,2.9,0.4,5.9,0,8.7c-0.4,2.3-2,4.4-1.9,6.7
	s1.8,3.9,1.7,6.4c0-0.2,0.1-1.3,0-0.3C2331.2,530.1,2331.4,527.5,2331.3,528.9z"/>
    <path fill="#FFFFFF" d="M474.4,822.5c-1.5-4.7-4.1-8.9-7.6-12.4c-2.3-2.3-4.3-4.8-6.4-7.2c-5.8-6.6-13.9-8.3-21.4-12
	c-3.4-1.7-6.5-4.5-10.1-5.8c-1.7-0.6-3.7-0.5-5.3-1.5c-2.2-1.3-2.4-2.9-5.3-3c-4.4-0.2-7.1-1.7-11.1-3s-8.6-1.1-12.8-2.5
	c-4.4-1.5-8.4-3.7-12.9-4.6s-8.9-1.3-13-3.5c-1.6-0.8-2.8-1.7-4.6-1.2c-2.1,0.6-2.1,1.5-4.5,1.4c-4.8-0.3-9.1,0.9-13.9,1.4
	c-4.1,0.4-8.3,1.1-12.4,1.5c-1.8,0-3.6,0.5-5.2,1.2c-0.5,0.3-1.4,1.3-2,1.5c-1,0.3-2.6,0-3.8,0.2c-2.3,0.5-4.4,0.8-6.7,1.1
	c-1.6,0.2-1.9,0.9-3.3,1.6c-1.8,1-4,1.1-6,1.8c-2.1,0.7-4,1.7-6.1,2.2c-4,1.1-7.9,2.2-11.9,3.1c-1.9,0.3-3.7,0.8-5.5,1.5
	c-1,0.4-1.8,1.1-2.8,1.6c-1,0.5-2.1,0.9-3.2,1.2c-1.8,0.6-2.8,2.2-4.4,3.1c-2,1.3-4.6,1.7-6.9,2.5c-5.2,1.9-10.3,4-15.4,6.3
	c-8.6,4-17.1,8.5-25.7,12.5l-0.3,0.2c-4.2-3.7-9.4-2.9-14.4-1.7c-5.9,1.4-9.5-0.3-14.9-2.5c-2.1-1-4.5-1.4-6.8-1.3
	c-2.2,0.2-4.6,2.2-6.3,2.1c-2.1-0.2-3.6-1.7-6-1.3c-2.3,0.5-4.3,1.8-5.6,3.7c-1,1.2-4.8,1.6-6.3,2.4c-2,1.2-3.9,2.6-5.6,4.3
	c-1.9,1.7-3.6,3.6-5.3,5.6c-1.5,1.8-1.3,3.1-1.5,5.4c-0.2,2.6-1.1,5-1.4,7.6c-0.3,2.3,0.1,4.5,0.1,6.8c0,3-0.5,2.1-3,3
	s-3.6,1.4-6.5,1.2c-5.3-0.2-10.7,0.1-16-0.4c-2.1-0.2-4.3-0.7-6.4-0.7s-3.5,1.3-5.4,1.7c-4.3,0.9-5.6-6-10.9-3.5
	c-2,1-3.8,2.6-5.7,3.8s-2,2.6-3.3,4.3c-7.7-0.3-7.8,11.3-7.5,16.7c0.3,6.8,2.5,13.5,4.2,20.1s4.7,12.1,7.2,18.2
	c1,2.2,2.4,4.2,4.2,5.8c2,2,3.8,4.1,5.5,6.3c1.9,2.5,2.4,4.8,5,6.9c1.2,0.8,2.3,1.7,3.4,2.7c1.1,1.3,1.4,2.7,2.3,4.2
	c1.6,2.8,4,3.5,6.3,5.5c2,1.6,2.9,4.2,4.9,6c2.3,2.1,4.8,4,7.1,6c1.9,1.7,5.7,3.4,6.1,5.9c0.2,1.5-0.7,3.2-0.8,4.7
	c-0.1,1.8,0.5,3.4,0.6,5.2c0.2,3.1-2.3,5.6-1.2,8.7c0.5,1.4,1.2,2.1,1.4,3.7c0.1,1.4-0.1,3.1-0.1,4.5c0,3.5-0.1,7,0.1,10.4
	c0.2,3.2-0.8,6.1-0.9,9.3c-0.1,1.6,0.6,3,0.6,4.5s-1.2,2.5-1.4,4.2s0.6,2.4,1.1,3.8c0.5,1.4,0.6,2.9,0.5,4.4c-0.1,2.6,0,5.3,0,7.9
	c0,3.3-0.1,6.6-0.1,9.9c-3.1,3.2,0.4,6.8,0.1,10.4c-0.3,4.7-0.2,9.3,0.1,14c0.6,8.9,1.8,17.8,1.2,26.7c-0.4,7.8,1.7,15.4,1.4,23.2
	c-0.2,4-1.2,7.8-1.5,11.7c-0.3,4.3,2.3,5.8,3.7,9.4c1.3,3.2,0.5,7.6,0.7,11c0.3,4.4,1,8.8,1.3,13.3c0.2,3.8,0.2,7.7-0.1,11.5
	c-0.2,4,1.2,7.3,1.4,11.1s0.7,7.2,1.3,10.8c0.7,4.4,0.2,8.2,0,12.6c-0.3,7.1,1.8,14.7,2.8,21.7c0.5,3.8,0.9,7.6,1.4,11.3
	s2.8,6.7,3.2,10.4c0.5,3.8-0.1,7.4,1.1,11.2c1.3,3.6,2.8,7.1,4.6,10.5c3.1,6.4,6.7,13.5,11.3,18.9c4.2,4.9,10.3,8,13.1,13.9
	c0.8,2.1,2.2,3.9,4,5.3c0.4,0.3,1.3,0.2,1.6,0.4s0.5,1.2,0.8,1.7c0.6,1.1,1.6,2.1,2.7,2.7c0.8,0.4,1.1,0.1,1.7,0.7
	c0.4,0.3,0.6,1.3,0.8,1.8c0.7,1.6,1.7,3.1,2.8,4.5c2.6,3.1,5.4,2.1,8.6,3.6c3,1.4,4.3,5,7.5,6.5s5.4,1.8,7.9,4.5
	c2.2,2.5,4.3,4.2,7.7,4.6c1.6,0.2,3.2-0.3,4.8-0.2c1.9,0.1,2.4,1.2,3.9,1.8c2.9,1.1,7.3-1.8,10.3-2.4c3.6-0.6,7.2,0.1,10.5-1.9
	c2.3-1.4,4.9-3.2,7.1-4.9c2.5-1.9,2.4-4.2,4.2-6.4s5.5-1.4,7.7-3.7s0.5-6.6,1.4-9.5c0.7-2.1,0.6-1.9,0.3-4.1
	c-0.3-1.9,0.1-2.9,0.5-4.8c0.9-4.5-0.4-9.3-1.3-13.7c-0.7-3.5-3.1-8.2-2.8-11.7c0.1-1.7,1.3-3,1.8-4.5c0.5-2.1,0.5-4.2,0-6.2
	c-0.9-4.1-2-7.2-1.8-11.5c0.1-3.1,0.2-6.1,0.1-9.1c-0.1-3.7-0.5-7.4-1.1-11c-0.6-3.1,0.5-5,1-8.1c0.6-4,0.3-8.1-0.9-12
	c-0.9-3.4,0.5-4.3,2-7.4c1.2-2.8,2.2-5.6,2.9-8.6c1-3.7,1.5-5.4,5.7-5.4c1.3,0,2.6,0.4,3.9-0.3c1.1-0.6,1.5-1.9,2.6-2.4
	c1.8-0.8,4.5-0.3,6.5-0.5c7.9-0.7,15.2-3.3,23-4c4.2-0.3,7-2.3,10.4-4.4c1.5-0.8,3-1.4,4.5-2c0.7-0.3,3.9-2.6,4.4-2.5
	c2.4,0.3,5.1,0.7,7.4-0.3s3.4-3.2,5.5-4.1c4.4-1.8,9.3-1.1,13.4-4.2c0.8-0.7,1.6-1.4,2.5-1.9c0.9-0.4,1.9-0.4,2.8-0.8
	c1.9-0.8,3.7-2.1,5.1-3.6c1.5-1.5,2.5-3.6,3.9-5.1s3.4-1.5,5.2-2.7c3-1.9,7.1-3.9,9.3-6.8c0.6-0.9,1.1-1.9,1.5-2.9
	c0.4-0.8,1.1-1.4,1.8-1.9c1.7-1.3,3.2-2.7,4.6-4.3c2.8-3.2,6.3-5.3,7.6-9.5c1-3.2,2.9-5.3,5.2-7.7c2.6-2.6,4.4-5.8,5.4-9.4
	c0.8-3,2.3-4.5,4.2-7c4.5-6.1,6.1-13.1,9.5-19.7c3.5-6.8,5.5-12.4,3.4-20.1c-1.6-5.8-2.9-10-7.5-14.1c-4.1-3.6-6.8-8-11.4-10.9
	c-5.1-3.3-5.8-11.1-10.3-15.2c-1.9-1.7-4-2.8-6.5-1.9c-1.5,0.5-2.5,1.9-4,2.4s-3.1,0.1-4.5,0.2c-3.1,0.3-6.1,1.2-9.2,1.3
	c-2.8,0.1-5.2-0.3-7.9,0.8c-1.8,0.8-3.7,1.3-5.6,1.7c-1.8,0.3-3.5-0.3-5.2-0.1s-3,1.2-4.4,1.2c-2.3,0-2.5-0.6-4.8,0.5
	c-6.3,3.1-14.1,4.4-21,6.7c-3.2,1.1-6.5,2.9-9.9,3.4c-3.7,0.5-6.8,0.4-10.4,1.5c-3.3,1-6.3,2.4-9.5,3.7c-3.6,1.5-7.1,0-10.7,0.9
	c-0.4,0.1-4.7,2.4-4.6,2.4c-0.9-0.4-0.5-1.7-0.5-2.4c-0.3-2.5-0.4-5-0.2-7.5c0.3-2.4,1.3-4.1,1.6-6.6c0.3-4.1,0.4-8.2,0.1-12.2
	c-0.1-3.9-0.4-7.9,0.3-11.8c0.5-3.6,0.9-7.2,1-10.9c0.3-3.7,1-7.3,1.3-10.9s-0.7-8.5,0.8-11.7c1.2-2.6,3.6-4.2,4.9-6.7
	c0.9-2,0.9-2.2,2.5-3.5c1.3-1.1,2.5-2.3,3.4-3.8c0.9-1.5,1.5-3.2,2.6-4.5c1.6-1.8,1.8-1.1,3.9-1.8c3.2-1.1,3.8-4.3,4.9-7
	c1.5-3.4,3.2-3.6,6.3-4.9c1.6-0.6,3-1.6,4.1-2.9c1-1.2,1.3-3.7,2.4-4.6c1-0.8,2.9-0.4,4.1-0.8c1.7-0.7,3.3-1.5,4.9-2.5
	c3-2,5.9-4.2,8.6-6.7c2.6-2.2,4.8-4.9,7.3-7.1c1.3-1.2,2.6-2.5,3.6-3.9c0.9-1.2,1.5-3,2.8-3.9c1.2-0.7,2.8-0.8,4.1-1.5
	c1.5-1,2.9-2.1,4.3-3.2c2.9-2,6.2-3.5,8.9-5.7c1-0.9,2-2.6,3.2-3.3c1.3-0.8,3-0.7,4.3-1.5c2.9-2,4.3-5.1,7.5-6.9s6.8-3.2,9.8-5.6
	s5.9-4.5,9.1-6.6c3.5-2.3,6.1-5.1,10-6.7s6.8-3.9,10.3-5.9c3.3-1.9,7-3.3,9.6-6.2c2.2-2.4,2.2-5.9,5.8-5.8c4.8,0.2,7.4-0.1,10.7-3.8
	c2.2-2.5,5.2-4,6.8-7.1s1.9-6.8,2.8-10.1C476.1,827.7,475.5,825.2,474.4,822.5z"/>
    <path fill="#FFFFFF" d="M894.4,1062.5c1.4-3.5,0.5-8,0.4-11.6c0.1-1.5-0.2-3-0.9-4.4c-0.4-0.7-1.2-1.1-1.5-1.7c-0.4-1-0.7-2.1-0.8-3.2
	c-0.4-1.8-1.5-3.7-1.5-5.6s1.1-2.6,1.5-4.2c0.6-2.3-1.3-4.8-2.1-7c-1.5-3.7-2.6-7.1-2.5-11.1c0.1-2.7,0-4.7-2.1-6.6
	c-0.8-0.7-1.5-1.5-2.2-2.3c1.3-1.3,1.8-3.2,1.2-4.9c-0.2-2.2-1.9-3.8-2.9-5.7c-1-2.2-1.8-4.4-2.5-6.8c-0.9-2.1-1.6-4.3-2.1-6.5
	c-0.4-2.5-0.7-4.2-2.2-6.3c-0.7-0.9-1.4-1.4-1.5-2.5c0-0.5,0.6-1.5,0.7-2.2c0.1-1.8-0.5-3.6-1.8-4.9c-0.5-0.6-1.4-0.9-1.9-1.4
	c-0.8,0-1.1-0.3-0.9-1l-0.1-2.1c0-2.5-0.5-5-1.2-7.4c-0.8-2.4-2-4.6-3.5-6.7c-0.8-0.8-1.6-1.7-2.3-2.6c-0.5-1-0.4-1.8-0.5-3
	c-0.4-2.3-1.7-4.4-2.7-6.5s-1.5-4.7-3.3-6.1s-2.3-1.3-3.4-3.3c-1.3-2.5-2.9-3-5.1-4.6c-3.3-2.5-4.4-6.8-5.5-10.6
	c-2.5-7.9-10.7-12.2-14.7-19.4c-1.6-3.3-3.9-6.1-6.7-8.5c-3.1-2.4-6.8-4.7-9.6-7.4c-1.1-1-1.7-2.9-2.8-4c-1.2-1.3-2.6-2.5-4.1-3.5
	c-2.9-2-6-3.4-9-5.3c-5.9-3.7-10.8-8.5-17.6-10.8c-2-0.8-4-1.4-6.1-1.9c-1.1-1.7-2.8-2.1-4.7-2c-2.4,0.1-2.2,0-4.3-1.1
	c-4-2.2-8.5-3.1-12.7-4.5s-7.9-4-12.2-5.4c-3.6-1.1-7.3-2-10.8-3.4c-5.5-2.1-10.3-3.3-16.2-3.2c-5.4,0.1-10.5-2.5-16-3.1
	c-7.9-0.9-16-0.5-24-0.7c-2.2,0-2.7-0.4-4.7-1.1c-1.6-0.5-3.2-0.2-4.8-0.5c-3.2-0.7-5.7-1.7-9-1.9c-2.7-0.2-5.2-1.6-7.8-2.3
	c-2.9-0.8-6-1.2-9-1.2c-4.4-0.1-8.9,0-13.3-0.1c-6.5-0.2-14.2-1.6-20.4,1c-2.7,1.1-3.8,3.1-6,4.8c-1.6,1.2-3.8,1.2-5.7,1.7
	s-4.3,1.3-5.2,3.3c-0.8,1.8-0.5,3.6-1.5,5.5c-0.7,1.3-1.5,4.6-2.3,5.6c-1.1,1.2-3,0.8-4.5,1.6c-2.1,1.2-2.3,3.1-3.3,5.1
	c-1.1,2-2.4,3.9-3.8,5.7c-2.6,4.1-4.7,8.5-6.3,13.1c-0.8,2.5-0.9,4.1-2.2,6.3c-1.1,1.9-2,4-2.6,6.1c-0.8,2.3-1.6,9.1-4,10.4
	c-1.4,0.7-3.9,0-5.7,0.8c-1.7,0.8-3.1,2-4.1,3.6c-1.2,1.8-6.1,8.7-4.9,11.1c-5.1-2.8-6.3,1.2-6,5.8c0.1,1.6,0.6,3.1,1.6,4.4
	c0.8,1.1,1,0.5,1.5,1.9c0.4,1.1,0.1,2.4,0.7,3.6c-1.9,3-1,7.8-2.1,11.3c-1.3,4.5-2.5,9-3.7,13.6c-2.2,8.9-6.6,16.8-8.7,25.6
	c-0.9,3.7-1.2,7.8-2.5,11.6c-1.4,4.2-2.6,8.4-3.6,12.8c-1.4,6.2-2.6,12.5-4.1,18.8c-2.2,9.1-4,18.3-5.2,27.6
	c-0.2,2.1-0.8,4.1-1.1,6.2c-0.4,2.5-0.2,5-0.4,7.5c-0.4,3.7-2.3,6-0.8,10c0.2,0.5,0.9,1.2,0.9,1.7c0.1,1.5-0.3,1-0.8,2.3
	c-0.7,1.5-1.1,3.2-1.2,4.8c0.1,4.3,1.6,9.3,0.1,13.6c-0.9,2.8-2.6,4.3-2.6,7.4c0,2,0,4,0,6c0,2.7-0.1,5.4,0,8c0,0.9,0.2,1.8,0.3,2.7
	c0.1,0.6,0.4,1.1,0.8,1.5l-0.7,1c-0.1,1.1-0.1,2.3,0,3.4c0.1,1.2-0.1,2.4-0.4,3.5c-0.5,2.5,0,5.3,0,7.8s-0.4,5,0.4,7.4
	s1.2,3.3,1,5.9c-0.4,5,1.1,9.7,2.9,14.3c-2.2,3.1-1.2,6.5-0.1,9.8c1.2,3.6,2.3,7.1,3.6,10.7c1.2,3.3,0.9,6.1,1.2,9.5
	c0.4,4,2.3,7.8,3.2,11.7c1.8,7.5,4.1,14.9,7,22c2.6,6.4,6.4,12.4,8.5,18.9c0.9,2.6,1.4,5.4,2.6,7.9c1.1,2.3,2.7,4.1,3.8,6.5
	c2.9,6,8,10.1,10,16.6c0.9,3.1,1.7,3.6,4.3,5c2.1,1.1,3.2,3,4.9,4.7c3.3,3.1,6.8,6.1,10.6,8.7c1.7,1.3,2.2,3.6,3.9,4.8
	c2,1.4,4.2,1.5,6,3.3s2.8,4.2,4.6,6c1.5,1.4,3.2,2.6,5,3.6c1.3,0.8,2.2,2,3.4,2.8c0.9,0.7,2.2,0.8,3,1.4c1.4,1,2.2,2.5,3.8,3.4
	c1.3,0.8,2.7,1.4,4,2.1c2.7,1.6,5,3.6,7.5,5.3c2.7,1.8,5.2,2.4,8.2,3.5s4.3,3.3,6.8,5.2c2.4,1.8,5.1,3.2,8,4.1c2.9,1,5.9,1.8,8.7,3
	c2.3,1,4.9,4,7.3,4c1.3,0,1.8-1.4,3-1.6s2,0.5,3,0.8c2.5,0.9,5.2,0.8,7.8,1.6c1.5,0.4,2.8,0.7,4.1,1.1c1.1,0.4,1.4,1.3,2.9,1.2
	c0.9-0.1,1.7-0.4,2.3-1l0.6,0.5c1.6,0.2,2.1,1.6,4,0.8c2.1,0.3,3.9-1.2,5.9-1.4c1.5-0.1,3.1,0.2,4.4,1c3.2,1.5,6.3,0.3,9.5-0.8
	c4-1.3,7.7-1.3,11.9-1.2c3.2,0.1,5.7-1.6,8.8-2c3-0.3,5.9-1.1,8.5-2.5c2-1.2,3.1-3.3,5-4.5c2.3-1.4,5.3-2.3,7.7-3.6
	c2.3-1.4,4.9-2.3,7.6-2.7c5.3-0.6,9.9-3.6,13.9-7.1c4.8-4.2,10-7.8,15.7-10.8c5.5-2.9,10.2-5.4,13.8-10.6c1.5-2.2,3.8-3.8,5-6.2
	c0.3-0.5,0.5-1.1,0.6-1.7c-0.2-1.2,0.3-1.6,1.4-1.3c1.2-0.7,2.1-0.8,3.1-2c3.1-3.8,5.5-8.1,8.8-11.8c1.9-2.1,2.2-3.9,3-6.5
	c0.7-2.4,2.4-3.9,4.2-5.7c2.2-2.3,4-4.8,5.6-7.5c0.9-1.3,1.4-2.9,1.5-4.5c0-1-0.2-1.9-0.6-2.8c0.7-0.5,1.4-1,2.1-1.5
	c2.2-1.8,4-3.9,5.6-6.2c1.6-2.2,4.3-3.7,6.5-5.7c4.6-4.4,7.2-9.8,10.1-15.3c3-5.7,7.8-10.1,10.7-15.7c3-5.5,9-8.5,10.6-14.8
	c0.8-3.3,1.3-6.2,2.8-9.4c1.3-2.8,2.5-5.6,3.5-8.5c0.8-2.6,2.4-5,4.5-6.8c2.5-2.4,1.8-4.4,2.1-7.4s2.6-6,3.7-8.8
	c0.8-2,1.6-4.1,2.4-6.2c2.9-7.5,5.3-14.8,5.9-22.9c0.2-2.5,0.4-2.8,1.8-4.7c0.8-1.2,1.2-2.6,1.3-4c0.4-3.2,0.1-6.7,0.1-10
	c0-3.7-0.4-7.6-0.1-11.3s2.6-5.4,3.9-8.6c2.6-6.4-3.6-11.8-0.9-18.2c-0.2,0.6-0.5,1.2-0.7,1.8
	C894.2,1063.3,894.4,1062.9,894.4,1062.5C895.8,1059,893,1066.1,894.4,1062.5z M771.5,1073.4c0.6,1.1-0.5,2.3-0.6,3.4
	c-0.1,1.7-0.1,3.4,0.1,5.2c0.1,4,0.2,8.1,0,12.1s-0.8,7.8-1.2,11.7c-0.3,3.1,0.2,6.9-0.5,9.9c-0.8,3.4-2.2,6.6-3.1,10.1
	c-0.8,3.2-1,6.4-1.6,9.6c-0.7,3.8-2.5,7.1-3.9,10.6c-1.5,3.7-2.8,7.5-4.3,11.2c-2.8,7.1-7.2,13.1-10.6,19.9
	c-1.3,2.6-2.3,5.2-4.2,7.3c-2.3,2.5-2.4,5.5-4.1,8.3c-4,6.6-10.5,12.5-15.9,17.9c-3.4,3.4-6.9,6.8-10.3,10.2
	c-1.8,1.8-2.7,4.2-4.5,5.9c-1.5,1.3-3.3,2.4-4.8,3.8c-3.8,3.5-6.9,7.4-11.5,10c-4.2,2.4-7.5,5.8-12,7.6c-2.1,0.9-4.3,1.7-6.5,2.3
	c-2.4,0.5-5-0.1-7.1,1.5c-1.6,1.2-2.3,2.9-4.2,1.1c-1.6-1.6-2.5-4.9-3.7-6.9c-2.7-4.6-6.3-8.6-8.8-13.3c-2.6-4.9-3.6-10.4-5.1-15.8
	c-1.3-4.6-2.7-9.1-3.8-13.7c-1.4-5.8-0.7-11.6-1.8-17.4c-0.5-2.4-1.2-4.7-1.8-7c-0.8-3.3-0.5-6.7-0.5-10.1c0-3,0.4-6-0.1-9
	c-0.1-1-0.5-1.9-0.7-2.9c-0.3-1.4-0.2-2.9,0.3-4.3c1.4-6.1,0.4-12.7,0.6-18.9s-0.6-12.8,0-19s2.9-12.5,4-18.7
	c1.1-5.8-0.5-10.5-0.6-16.2c0.1-2.7,0.6-5.4,1.7-7.9c1-2.9,0.5-5.4,0.8-8.4c0.3-2.6,1-5.1,1.3-7.7c0.4-2.9,0-5.7,0.2-8.6
	c0.4-5.8,2.9-12.2,4.3-18c1.2-4.8,3.7-8.9,3.9-13.9c0.3-6.5,3.7-12.7,6-18.7c1.9-4.9,3.1-10.2,5.8-14.7c1.3-2.2,3.3-4,4.2-6.3
	s1.4-4.8,2.8-7.1c2.3-4,6.6-6.4,8.8-10.4c1.1-2,1.3-4.3,2.4-6.3c1.5-2.8,3-4.8,3-8.1c0-1.3-0.2-2.1,0.3-3.3s1.1-1,1.3-2.5
	c0.1-1.1-0.8-1-0.6-2.4c0.3-1.7,0.9-2.4,0.8-4.2c-0.2-2.9,1.4-5.1,1.5-8c0.1-2.6-1-5-1.9-7.3c-1.7-5.1-4.7-9.7-8.9-13.2
	c-3-2.8-5.8-5.7-8.4-8.8c6.1-2.2,13.5-1.1,19.3,0.8c3.8,1.2,5.3,0.3,6.6,4.6c0.8,3.1,2.4,6,4.6,8.3c4.6,4.7,11.3,5.2,15.8,10.4
	c4.1,4.8,7.9,9.8,11.3,15c2.8,4.2,4.2,9.4,7,13.8s4.6,9.9,8.2,13.4c3.3,3.2,6.6,5.6,9.5,9.3c1.8,2.3,2,3.8,2.1,6.7
	c0,1.2,0.2,2.4,0.6,3.5c0.3,0.7,1.2,1.5,1.3,2.2c-1.6,2.5-3.1,7.1,1.7,7.7c2.3,0.2,4.3-2.1,6.4-3c1.6,1.1,2.6,2.9,2.6,4.8
	c-0.1,2.2-2.2,3.1-2.8,5.1c-0.8,2.6,1.8,10.5,5.7,8.2c0.3,2.1-2.9,4.1-3.1,6.4c-0.2,3,3,4.7,2.8,7.5c0,1.2-1.1,2.3-1.3,3.7
	c-0.1,1.3,0,2.6,0.3,3.8c0.6,3.2,1.5,6.4,2.6,9.5c1.1,3.5,2.1,7.1,3.3,10.6c0.9,2.5,0,6-0.1,9c-0.1,1.7-0.1,3.3,0,5
	c0.2,1.6,1,3.3,0.8,4.7c-0.2,1.2-1.6,2.3-2,3.5C770.6,1069.9,770.7,1071.8,771.5,1073.4c-0.3-0.5-0.5-0.9-0.7-1.4
	C771,1072.5,771.3,1073,771.5,1073.4L771.5,1073.4z M639,1069.3L639,1069.3z"/>
    <path fill="#FFFFFF" d="M2296.9,1262.3L2296.9,1262.3c-0.5-0.6-0.7-1.5-0.4-2.2c2.2-3.2,1.8-6.1-1.3-8.4c-1.6-1.2-3-1.4-4.8-2.1
	c-1.4-0.5-2.5-1.9-4.1-2c-0.8,0-1.5,0.2-2.1,0.8l-0.8-0.4c1-2.9-2.5-3.9-4.1-5.2c-2.2-1.8-2.7-2.1-5.7-2c-3.4,0.1-3.7-0.8-5-3.8
	c-1.8-4.1-4-3.5-7.9-4.5c-3.4-0.9-5.9-1.7-9.4-0.6c-3.3,1-6.7,1.6-10.2,1.8c-1.3,0.1-3.1,0.5-4.4,0.3c-1.5-0.3-2.8-1.4-4.3-1.7
	c-3.3-0.6-5.8,0.1-9.1-1.5c-2.7-1.2-5.6-1.9-8.5-1.9c-1.7-0.2-3.3-0.2-5,0c-0.8,0.1-1.6,0.5-2.3,1c-0.7-0.4-1.5-0.6-2.3-0.7
	c-1.2-0.2-2.4-0.1-3.5-0.4c-1.7-0.4-3-1.4-4.7-1.8c-3.5-1-6.2,0.4-9.5,1c-1.9,0.4-3.8,0.3-5.6-0.3c-1.7-0.6-2.9-1.5-4.8-1l-1.2,0.5
	c-0.6,1-1.4,1.1-2.3,0.2c-1.8-0.2-3.5-1-5.4-1c-3.4,0-6.4,1.3-9.6,1.8c-3.1,0.4-6.2,0-9.1-1.1c-1.7-0.6-3.7-1.3-6.4,0.3
	c-2.5-1-4.3-2-7.1-1.3c-3.2,0.9-5.3,1.5-8.9,1.2c-1.5-0.1-3.1-0.3-4.6-0.3c-1.3,0-2.5-0.2-3.7-0.8c-2.5-0.8-3.8-1.3-6.1,0.6
	c-2-0.8-3.9-2-6.1-1.7c-0.9,0.1-2.1,1-3,1c-0.6,0-1.7-0.7-2.4-0.9c-4.4-1-10-0.4-14.5-0.3c-2.5,0-5.1,0.5-7.6,0.5
	c-2.1,0-4.3-0.7-6.4-0.8c-4.8-0.3-9,0.2-13.5-1.3c-2.6-0.9-3.5,0.1-5.8,0.2c-2,0.1-4.6-0.9-6.8-1c-1.9,0-3.7-0.4-5.5-1.1
	c-1.9-0.7-3.6-0.3-5.6-0.7c-2.3-0.5-4.5-1.5-6.9-1.7c-1.7-0.1-4.8,0.2-5.7-1.8c-0.5-1.1,0.9-3.4,0.3-5.3c-0.4-1.2-1.5-4.1-2.5-4.8
	c0.4-6.5-2.2-12.8-1.5-19.3c0.3-3.3,0.8-7.4-1.6-11.2c-0.1-0.5-0.1-1.1,0.1-1.6c1.3-1.7,1.9-3.9,1.5-6v-0.7c-0.1-3-0.1-6.1,1.4-8.7
	c1.7-2.9,3.1-3.8,3-7.4c0-3.7-0.7-7.3,0.4-10.9c1.3-3.6,2.1-7.4,2.4-11.2c0.1-1.9-0.4-4.4-0.1-6.3c0.3-1.4,1.3-2.7,1.5-4.3
	c0.2-1.5,0.1-3-0.3-4.5c-0.3-1.1-1.6-2.9-1-4c2.1-3.7,14.9,3.1,17.4,4.4c6.4,3.4,13.4,5.2,20.2,7.7c3.3,1.2,6.6,2.6,9.9,3.9
	c3.6,1.3,7.4,1.5,11.1,2.4c1.8,0.4,3.6,1,5.5,1.5s3.1,1.3,4.8,1.9s3.4-0.7,4.8-0.3s2.8,1.7,4.3,2.2c1.8,0.5,3.6,0.7,5.5,0.6
	c3.6-0.3,7-2.8,10.6-1.4c1.5,0.6,2.6,1.8,4.4,1.8s2.4-1.1,3.8-1.7s3.7,0,5.1,0.1c2,0,4.1,0,6.1,0c8,0.2,14.2-5.5,22.5-4.2
	c4.5,0.7,7.8-1.7,11.7-3.5s7.9-3.4,11.6-5.6c1.4-0.7,2.7-1.7,3.7-2.8c0.6-0.7,0.5-1.4,1.1-2c0.9-0.7,1.9-1.3,2.9-1.7
	c3-1.6,6.4-2.6,9.3-4.4s0.8-4.6,3.4-5.7c0.6-0.3,1.7,0.2,2.5-0.2c1.3-0.6,1.3-1.2,1.9-2.2c0.8-1.2,0.2-1.4,1.5-1.9
	c0.7-0.3,1.8,0.1,2.6-0.1c3.4-0.9,2.7-4.7,5.3-6.2c1.6-0.9,3.7-1.1,5.3-2.1c1.1-0.7,2.2-1.5,3.3-2.2c1.5-1,3.4-1.6,4.8-2.8
	s1.6-3,2.9-4c1.5-1.2,3.7-0.7,5.4-1.2c2.1-0.6,4.1-1.3,6.1-2.2c1.3-0.6,2.4-1.5,3.4-2.5c0.8-0.7,0-0.5,1.4-0.9
	c0.7-0.2,1.5,0.1,2.1-0.1c2-0.6,1.7-2.1,2.8-2.9c1.5-1.2,3.1-0.4,4.1-2.7c3.2,0,5.9,0.1,7.7-2.9c0.2-0.4,0.4-1.5,0.8-1.7
	c0.8-0.5,2.2-0.1,3.1-0.8c1.3-1,0.8-2.5,1.7-3.4s2.2-0.8,3.2-1.5c2-1.2,2.6-3.7,1.4-5.7c-0.1-0.2-0.2-0.3-0.3-0.5
	c-0.8-1.2-1.9-2-3.3-2.4c-2.1-0.4-1.1,0.6-2.6-1c-2.4-2.5-3.2-5.3-6.3-7.3c-2.6-1.7-3.1-2.7-4.5-5.5c-0.9-1.7-2.4-3-4.1-3.8
	c-11.8-6.4-24.5-11.1-37.6-14.1c-3-0.7-6-0.1-9-0.5c-2.6-0.4-4.8-1.6-7.5-1.8c-6.9-0.7-13.7-1.8-20.4-3.4c-2.9-0.7-5.5-1.9-8.5-1.8
	c-2.9,0.2-5.7-0.2-8.4-1.2c-1.6-0.6-4.8-1.9-6.5-2c-2.6,0-4.3,1.5-7.2,0.9s-5.6-1.7-8.8-1.7c-3.3,0-6.5-0.4-9.7-1
	c-2.8-0.5-5.6-0.6-8.4-0.3c-3,0.1-5.9-1.3-8.9-1.4c-1.9-0.1-3.8,0.7-5.3,0.4s-2.6-1.1-4.2-1.2c-3.5-0.1-7.1,0-10.6-0.1
	c-8.3-0.2-16.6-0.3-25-0.5l-9.6-0.2c-2-0.2-4-0.1-5.9,0.4c-1.7,0.6-3.6,1-5.4,1.2c-2.1,0.1-4.2-0.3-6.4-0.4c-1.1-0.1-2.1-0.1-3.2,0
	c-0.1-0.4-0.3-0.7-0.6-0.9c4-4.1,2.7-10.6,0.6-15.2c-1.5-3.2-0.2-3.4,1-6.4c1-2.5,0.8-5.2,0.8-7.8s-0.4-5.4,0-7.8
	c0.3-2-0.4-0.9,1.1-1.8c1.9-1.1,4.5-1.7,6.5-2.7c3.3-1.6,8.3-1.1,11-3.6c0.6-0.5,1.1-2.3,1.6-2.6s3-0.3,3.8-0.5
	c2.2-0.6,4.5-1,6.8-1.1c5.6-0.2,4.6-5.1,8.8-7.2c1.9-1,4.1-0.1,6.1-0.9s4.4-1.9,6.6-3c4.4-2.1,8.5-4.6,12.4-7.5c2.2-1.7,4.3-3.2,5-6
	c0.5-2.1-0.2-2.8,2.4-2.7h1.2c3.3,0.2,6.6-0.2,9.7-1.1c3.2-0.9,6.2-1.2,9.4-1.8c2.5-0.5,3.5-2.5,5.5-3.8c2.9-2,6.2-1.7,9.5-2.3
	c2.6-0.4,4.9-1.8,6.4-4c0.4-0.6,0.9-3.1,1.5-3.3c0.2,0,2.5,0.8,2.9,0.8c4.6,0,7.3-5.3,10.1-8.1l0.6,0.7c0.9,1.9,2.3,2.1,4.1,1.9
	c0.9-0.1,1.5-0.9,2.6-1s2.1,0.3,3.1,0.2c3.7-0.3,7.2-2.8,10.8-3.9c1.5-0.5,2.4-1.6,3.6-2.5c1.4-1.1,2.4-1,4.1-1.6
	c3-1.1,4-3.7,5.7-6.1c2.3-3.5,4.3-3.6,8.2-4.2c3-0.2,5.5-2.4,6.3-5.3c1.7,0.9,3.7,1.2,5.5,0.8c2.7-0.3,3.8-3.3,2.8-5.6
	s-3.1-2.1-5.3-2.6c-0.5-5.1-0.8-9.9-3.8-14.3c-2.9-4.2-6.3-5.6-10.6-7.6c-3.2-1.5-6.8-6-8.7-9.3c-0.4-0.7-1-1.6-1.3-2.3
	c-0.7-0.2-0.9-0.5-0.7-1.1c0.1-0.5,0-1.1-0.2-1.5c-0.8-2.1-3.4-3.2-5.5-3.2c0.3-2.3-2.7-2.5-4.1-3.5c-2.2-1.5-3.1-3-5.9-3.6
	c-2.3-0.5-4.7-0.3-7-0.9s-4.5-1.9-6.8-2.6c-2.3-0.6-4.8-0.9-7.2-0.9c-2.8-0.1-5.3-1.1-8.1-1.6c-5.8-1.1-11.8,0.5-17.7-0.5
	c-2.4-0.4-4.7-1.7-7.1-1.8s-4.7,1.3-7.2,1.7c-5.2,0.7-9.3-3-13.3-5.6c-4.3-2.7-9.3-3.6-13.4-6.2c-3-1.9-3.5-0.7-6.5-0.6
	c-1.2,0.1-2.4-0.8-3.8-0.6c-1,0.2-2,0.5-2.9,1l-0.2,0.1c-1.8-0.9-3.2-1.7-5.3-1.5c-1.9,0.1-2.7,1.4-4.4,1.7c-1.9,0.3-4.1-0.2-6-0.1
	c-2.3,0.2-4.5,0.6-6.7,1.1c-3.9,0.9-7.6,2.8-11.4,3.7c-1.8,0.4-3.6-0.2-5.7,0.2s-3.5,1.7-5.3,2.5c-3.1,1.4-6.8,1.2-10.2,2
	c-4.4,1.1-8.8,2.4-13.2,3.2s-8.2,0.7-12.6,2.6c-3.5,1.5-6.8,1.7-10.6,1.7c-6.7,0.2-13.4,3.2-20.1,3.9c-5,0.5-11.6,0.2-16.2,2.2
	c-0.6,0.4-1.2,0.7-1.8,1c-1,0.3-2.8-0.3-4-0.2c-2.7,0.4-5.1,1.3-7.8,1.6c-5.6,0.7-9.5,4.2-15.3,2.2c-1.8-0.6-3.6-1.2-5.5-0.7
	c-2.1,0.6-3,2.3-5.2,2.6c-3.6,0.6-7.2,0.3-10.7-0.8c-3-1.1-6.7,0.1-7.4,3.6c-0.7,3.1,4.3,5.2,3.1,8c-0.6,1.2-2.3,1.2-3.4,1.4
	c-1.4,0.2-2.7,0.9-3.8,1.8c-2.9,2.2-6.2,3.1-9,5.6c-1.4,1.3-2.1,2.3-4.4,1.9c-1.5-0.2-2.6-1.6-4.3-1.8c-2.6-0.2-5.8,2.3-6.7,4.8
	s1.5,6,3.1,7.8c1.8,1.8,2.6,4.3,2,6.8c-0.3,2.2-0.6,4.6,0.8,6.5c-0.1,1.4-0.8,2.2-0.7,3.7c0.1,1.1,0.8,2.3,1.1,3.4
	c0.4,2-0.1,4.2,0.5,6.2s2.3,3.6,3.9,4.9c1.8,1.6,3.5,4.1,5.4,5.4c1.6,1,3.2,0.6,4.7,2.1s2.3,3.5,3.6,5.1c1.6,2.3,3.6,4.2,6,5.7
	c2.3,1.3,4.4,2,6.3,4c1.5,1.6,2.6,3.2,4.7,4c1.2,0.4,2,0,2.9,0.9c0.4,0.4,0.7,2,1,2.5c1.1,1.9,2.3,2.5,4.3,3.1
	c2.8,0.8,2.1,2.3,2.2,5.3c0.2,2.7,0.1,5.4-0.5,8.1c-0.5,2.1-1.4,4-1,6.2c0.3,1.9,1.5,2.9,1.4,4.9c-0.1,2.3-1.9,3.8-1.4,6.3
	c0.2,0.8,1.6,2.3,1.6,2.8c0,0.8-1.3,2.1-1.6,2.9c-0.7,2.1,0,4.5,0.5,6.6c1.2,6.2,1,12.3,1.1,18.7c0.1,5.6,1.3,11,1.6,16.5
	c0,2.5-0.4,5-1.2,7.3c-0.7,2.4-0.3,4.9-0.6,7.4c-0.5,4.3-0.9,8.8-1.4,13c-0.1,0.4,0.2,1,0.2,1.4c-0.1,0.7-1.1,1.4-1.4,2.2
	c-0.9,2.5,1,3.6,1.4,5.8c0.5,2.5-0.2,5.9-0.2,8.4c0,2.8,0,5.6,0,8.3c0,6.7,0.1,13.4,0,20.1c-0.2,2.7-0.1,5.5,0.4,8.2
	c0.7,2.9,1.9,4.3,0.6,7.3c-1.1,2.4-1.8,4.2-0.9,6.8c0.9,2.3,1.4,4.8,1.4,7.3c-0.1,6.5,0.2,12.1,2.1,18.3c0.7,2.4,1.1,5.1,2.1,7.4
	c1,2.1,1.7,2.9,1.6,5.4c-0.1,15.9,0.7,31.9-0.8,47.7c-1.2,12.6-1.8,25.9,4.4,37.4c3.4,6.4,7.1,12.6,11.1,18.6c1.9,3,4.7,5.2,6.8,8.1
	c1.6,2.1,2.7,4.6,4.4,6.7s4.2,3.1,6.3,4.8c2.7,2.2,4.2,5.5,7,7.7c2.4,1.8,5.6,2.5,7.9,4.3c1.8,1.5,2.9,4.1,4.4,5.9s4.1,5.6,6.3,6.7
	c1.7,0.8,2.3,0.3,3.8,1.4c1,0.7,1.7,1.8,2.7,2.6c2.7,2.3,6.6,5.6,11.6,2.7c1.5,4.9,4.3,5.8,9.1,7c1.3,0.4,2.6,0.6,4,0.7
	c1.1,0,2.4-0.8,3.4-0.7c1.2,0.1,2.6,2,4.7,2.3c5,0.7,10.2,3.7,14.7,6.2c2.1,1.2,3.4,2.5,6,1.7c2.9-0.9,4-1.3,7.1-1.2
	c2.4,0.1,5.5,0.6,7.8-0.1c1.8-0.5,2.4-1.2,4.3-1.3c0.7-0.1,1.4-0.2,2.1-0.1c1.3,0.2-1.4-0.2,1.4,0.7c0.9,0.3,1.8,0.6,2.7,0.6
	c0.6,0,1.2-0.3,1.7-0.7c0.5,0.4,1.2,0.7,1.8,0.9c2.1,0.6,4.4,0.4,6.6,0.9c2.7,0.6,4.7,0.2,7.3-0.5c4.4-1.2,8.7-1.1,13.2-1
	c2.4,1,4.8-0.5,7-1.2c2.2-0.7,4.6-1.2,6.9-1.4c5.6-0.6,11.1-1.7,16.6-3c2.6-0.7,4.8-2.1,7.3-2.8s2.8,1,5,1.5s3.5-1.3,5.4-1.5
	c1,0.1,2,0.1,3,0c1.1-0.2,2-1.1,3.1-1.3c2-0.5,4.1-0.2,6.2-0.6c2.3-0.5,4.5-1.1,6.7-1.8c2.5-0.9,3.5-2.1,6.1-1.3
	c2.2,0.7,4.6,1,6.9,0.8c5.3-0.6,10.1-2.7,15.1-4.2c2.2-0.7,4.7-0.7,6.8-1.6c1.5-0.7,2.4-2.1,3.6-2.8c6,0.1,11.9,0.8,17.7-1.3
	c5.5-2.1,10.5-2.5,16.4-3c2.2,0,4.4-0.6,6.3-1.8c0.8-0.6,1.2-1.4,2-2c0.2-1.2,0.8-1.4,1.8-0.8h1.2c1.3-0.1,2-0.8,3.2-1
	c1.2-0.1,2.4-0.1,3.6,0c2.5-0.4,5-1.1,7.3-2.3l0.9-0.4c4.1-1.8,11.9-1,13.4-6.3l0.6,0.4c2.2,2.2,4.4,0.8,6.7-0.3
	c0.9-0.5,1.6-0.4,2.2-1.4c0.2-0.8,0.4-1.5,0.5-2.3C2294.9,1279.4,2302.6,1266.6,2296.9,1262.3z"/>
    <path fill="#FFFFFF" d="M1868.7,1065.1c-0.6-6.1-0.7-11.9-0.8-18c-0.2-8.2,0.1-15.6-3-23.4c-1.3-3.2-2.7-5.7-3.3-9.1
	c-0.6-2.6-1.8-4.9-3.5-7c-5.7-8.3-7.4-18.2-13-26.6c-1.2-1.8-3.2-3.5-4.2-5.3c-0.9-1.6-1.1-3.5-2-5.4c-0.7-1.7-1.8-3.2-3.3-4.3
	c-1.9-1.7-3-3.9-4.5-5.9c-1.4-1.8-3.2-2.6-4.7-4.1s-2.5-3.9-4-5.6c-3.4-3.6-7.1-6.9-11.2-9.9c-2-1.6-4-3.2-5.9-4.9
	c-0.7-0.7-1.5-1.2-2.4-1.7c-0.6-0.2-2.3,0-2.7-0.2c-0.8-0.6-1.3-3.1-2.2-4c-1.4-1.3-2.9-2.3-4.6-3l-2.9-1.5
	c-2.8-1.4-4.4-3.4-6.7-5.4c-2.2-1.8-4.6-3.2-7.2-4.2c-1.1-0.4-3-0.7-3.9-1.3c-1.4-1.1-2.7-4.2-4.3-5.7c-4.3-4-9-8-14.2-10.8
	c-3.1-1.6-6.4-2.9-9.6-4.5c-2.2-1.2-3.9-2.7-6.5-2.8c0.1-2.4-3.2-3.2-4.7-4.3c-2.4-1.8-5-3.2-7.5-4.9s-5.2-3-7.8-4.6
	s-4.5-3.8-7.2-5.2c-5.4-2.7-10.9-5.1-16.3-7.9c-2.5-1.3-4.9-1.6-7.5-2.4s-5.1-2.6-7.7-3.5c-2.9-1.1-6-1.9-9.1-2.4
	c-2.8-0.5-5.8-0.4-8.6-1.2c-2.3-0.7-3.3-2.7-5.3-3.6c-2.4-1-5.8-0.3-8.5-0.8c-3-0.7-6.1-1.2-9.2-1.6c-1.2-0.1-2.4,0-3.6,0
	c-2,0.1-2.9-0.4-5-0.9c-2.7-0.6-5.5-0.3-8.3-0.4c-3.6-0.2-6.9-1.5-10.5-1.8c-7.4-0.8-15.3,0.6-22.6-1.4c-3.5-1-5.9-3.1-9.4-1.7
	c-1.2,0.5-2,1.2-3.5,0.7c-1.2-0.5-1.6-1.6-3.1-1.7c-1.4,0.1-2.7,0.8-3.6,1.8c-0.1,0-0.2,0-0.3,0c-2.9-3-10.3-2.5-14-2.3
	c-5.3,0.3-10.3,1.9-15.6,1.6c-5.5-0.3-11-2.6-16.6-2.2c-2.2,0.2-4.2,1.3-6.3,1.5c-2.4,0.2-3.7-1-6.1-0.5c-4.6,0.9-9.2,0.3-13.7,1.2
	c-5,1-10,2.4-14.9,3.7c-2.4,0.6-4.8,1.5-7.2,2.1c-2.1,0.6-4.2,0.4-6.3,0.9s-3.9,1.7-5.8,2.7c-0.5,0.3-3.9,3-3.6,3l-2-0.1
	c-5-0.2-7.2,1-7.3,6.4c0,2.1,0.6,3.1,1.3,5c0.8,2.2,0.7,4.5,2.6,6.2c1.3,1.1,3.3,1.1,4.5,2.3s1.1,3.6,1.8,5.3
	c1.4,3.8,4.6,6.6,7.4,9.3c4,3.9,5.4,9.5,9.4,13.2c1.8,1.6,3.8,2,5.8,3c2.6,1.4,2.5,3,2.5,5.8c0,6.4,0.2,12.8-1,19.1
	c-1,5.4-1.1,11-0.4,16.4c0.5,5.3-2.2,10.2-1.6,15.6c0.4,5-2.7,8.8-1.1,13.6c0.5,1.6,0.9,0.5,0.8,2.5c-0.3,1-0.6,1.9-1,2.8
	c-0.4,2-1.5,3.4-1.9,5.4c-0.5,2.3,0.1,5.1,0,7.5c-0.2,3.2-0.6,6.4-1,9.6c-0.6,5.1-1.1,10.3-0.4,15.4c0.1,0.7,0.2,1.4,0.2,2.1
	c-1.5,2.5-2.2,5.4-1.9,8.3c0.1,3.1-0.2,6.1-0.9,9.1c-1.5,6.7-0.3,13.9-1.2,20.7c-0.9,6.5-0.4,12.8-1.1,19.3c-0.3,3.3-1.2,6-1.1,9.4
	c0,3.7-0.1,7.5-0.4,11.2c-0.5,7.4-1.3,14.8-1.4,22.2c-0.1,7,0.6,14,0.3,21c-0.1,1.8-0.9,3.5-1,5.3c0,1.2,0.6,2.2,0.8,3.4
	c0.4,2.6-0.4,4.3-1.3,6.7c-1.2,3.1,0.2,4.9,1.2,7.8c0.7,2,0.2,4.2,0,6.3c-0.4,5.1,1.1,9.9,1.6,14.9c0.2,1.9-0.4,4.2,0.1,6
	c0.3,1.2,1.3,1.8,1.5,3c1.6,4.6,1.8,9.4,4.3,13.7c2.4,4.1,5.8,7.2,8,11.4c1.1,2,1.8,2.2,3.6,3.2c0.8-0.3,1.2-0.1,1.4,0.6
	c0.2,0.5,0.5,1.1,0.9,1.5c0.7,0.9,1.4,1.8,2.2,2.6c2.6,2.6,5.7,4.7,7.6,7.9c0.2,0.3,0.4,0.7,0.6,0.9c-1.8,1.5-3.1,3-5.2,4
	c-1.7,0.6-3.2,1.6-4.6,2.7c-1.6,1.6-1.9,3.2-2.5,5.2s-1.9,3.8-2.5,5.9c-1.1,4.1,1.7,7.8,3.1,11.3c0.7,1.7,0.9,3.6,2.5,4.7
	c1.3,0.8,3.1,0.7,4.6,1.1c2.3,0.5,4.6,1,6.5,2.6s3.2,3.6,5.1,5.1c2.7,2,5.7,3.7,8.8,5c1.9,1,4.3,2.2,7.1,1.5c4.2-0.1,5,5,9.6,5
	c0.9,0,1.8-0.5,2.5-0.5c0.9,0.2,1.7,0.4,2.6,0.7c2.5,0.4,5.1-0.6,7.6-0.4c4.8,0.4,8.2,4.6,13.2,3.8c0.9-0.1,1.7-0.7,2.6-0.9
	c1.5-0.3,2,0.2,3.5,0.6c2.6,0.7,5.3,0,7.9,0.5c4.8,1,7.2,5.2,12.7,2.9c2.9-1.2,3.2-1.1,5.8,0.6c2.4,1.7,5.2,2.8,8.1,3.2
	c2.8,0.4,5.4-0.2,8.2-0.3s4.9,0.9,7.5,1.7c2.9,0.9,4.4,0.2,7-0.7c1.9-0.7,3.9-0.4,5.8-0.1c3.6,0.4,6.9-1.2,10.4-1.6
	c3.2-0.3,5.1-0.5,7.9-2.2c1.2-0.7,0.9-1.5,2.2-1.8s3.2,0.3,4.9-0.2c3.1-1,5-3.2,8.4-3.1c3.4,0,6.7-0.3,10-1c3.4-0.6,6-2.7,9.3-3.5
	c1.5-0.3,2.8-0.1,4.1-1.1c0.5-0.4,1-1.6,1.4-1.8s2,0.3,2.6,0.3c3.4-0.2,6.4-2.1,9.9-2.4c7.1-0.6,13.9-4.1,21-3.4
	c4.3,0.4,6.1-0.4,9.2-3.1c2.3-2,4.4-0.8,6.8-2.2c1.3-0.7,1.7-2.1,2.8-2.9c1.4-1.1,2.2-0.4,3.8-0.9c2.8-0.8,4.4-4.3,6.4-6.1
	c2.3-2.2,5.4-2.9,7.8-4.8c1-0.8,1.2-2,2-2.9c1.1-1.1,1.6-1,3.1-1.4c1-0.3,2-1,3-1.2c1.8-0.3,3.1,0.3,4.9-0.3
	c0.7-0.4,1.4-0.8,2.2-1.1c0.7,0.2,1.5,0.2,2.2,0c1.5-0.5,1.5-1.8,2.5-2.5c2-1.4,4.5-1.2,6.3-3.9c1.7-2.5,2.1-4.1,4.8-5.8
	c6.1-3.8,11.6-8.5,16.3-13.8c2.2-2.4,4.9-4.4,7.3-6.7s3.4-5.7,5.6-8.1c0.8-0.9,1.8-1.4,2.6-2.3c1.1-1.3,1.6-3,2.6-4.4
	c1.2-1.8,2.7-2.4,4.6-3.2c3.5-1.7,12.1-7,8.5-11.3c1.5-1.2,3.1-1.1,4-3c0.8-1.8,1-3.9,1.7-5.8c1.9-5,4.7-9.6,6.8-14.6
	c1.8-4.3,5.1-7.6,5.8-12.2c0.9-4.8,2.4-9.4,4.6-13.8l0.6-1.3c1.7-3.4,1.9-6.2,2.2-9.9s1.8-6.6,3.1-9.9c1.7-4.2,0.9-6.9,0.1-11.1
	c-0.2-1.5-0.3-3.1-0.2-4.7c-0.1-1.9,0.4-3.9,1.3-5.6c1.4-2.5,2.1-5.4,1.9-8.3c-0.2-1.8-0.2-3.6,0-5.4c0.4-1.8,1.4-2.2,2.3-3.6
	c1.7-3,0.7-5.5-0.2-8.7c-0.7-3-1.2-6-1.4-9.1l0.2,1.7c0-0.4-0.1-0.8-0.1-1.2C1868.4,1062.3,1869,1068.8,1868.7,1065.1z
	 M1710.3,1138.4c-2.3,0.6-3.9,2.4-5.7,3.8c-0.6,0.6-1.4,1.1-2.1,1.5l-0.6,0.4c-0.3,0.3-0.7,0.1-1-0.6c-2.6,0.1-4,1.2-6.2,2.7
	c-1.3,1-4.3,5-5.3,5c-1.7,0-2.2,1-3.4,1.8c-1.1,0.7-2.4,1.2-3.5,1.9c-2.8,1.9-1.7,4.4-5.1,5.1c-5.9,1.3-10.4,5.2-16.2,7.3
	c-2.7,1-5,2.8-7.6,3.9c-3.5,1.5-7.2,2.5-10.6,4.2c-5.6,2.8-10.5,5.1-16.6,6.7c-4.3,1.1-8.7,3-12.9,4.4c-4,1.3-8,1.3-12,2.4
	c-3.6,0.9-7.1,2.2-10.3,4c-4,2.3-8.9,2.5-12.9,4.7c-1.3-2.5,1.8-6.3,2.3-8.8c0.9-3.9,0.6-8,0.6-12c-0.1-4.1,0.1-8.2,0.7-12.3
	c0.6-3.2,2.4-6.3,2.6-9.5c0.2-3.5-1.6-6.5-1.1-10.2c0.5-3.5,0.7-7.1,1.3-10.6c0.3-1.5,0.5-2.9,0.7-4.4c-0.5-0.7-0.5-1.8,0.2-2.4
	c0.2-0.8,0.4-1.6,0.3-2.4c0.2-3.4,0.2-6.8-0.1-10.2c-0.1-1.4-0.7-2.7-0.5-4c0.2-1.7,0.7-3,0.6-4.8c-0.2-3.1-2.1-6.1-1.3-8.8
	c1.9-6.5,3.3-13.3,3-20.1c-0.1-1.2-0.3-2.4-0.7-3.6c-0.8-0.5-0.9-1.1-0.2-1.8c0.5-0.8,0.8-1.6,0.9-2.5c0.3-2.6-0.3-5.8-0.2-8.5
	c0-3.2,0-6.3,0-9.4c0.1-1.2-0.1-2.3-0.6-3.4c-0.4-0.8-2-1.6-2.2-2.3c-0.2-0.9,1.7-3.2,2.2-4.2c0.5-0.9,0.5-2.1-0.2-3
	c1-1.8,0.4-3.3,0.6-5.1c0.2-1.1,0.5-2.2,1.1-3.2c1.2-2.8,0.8-5.5,0.3-8.4c-0.5-3.4-0.6-6.9-1.4-10.2c-0.6-2.6-1.6-5-1.5-7.7v-7.5
	c0-9,0-18,0-27c0-3.3-0.8-7.7-0.1-11c0.4-1.8,0.3-1.9,2.2-2.2s4.1,0.2,5.9,0.3c3.4,0.2,6.8-0.3,10-1.3c3.2-1,6.5,1.1,9.7,1.6
	c3.8,0.5,7.6,0.2,11.2-0.8c4-1,7.9,0.4,11.9-0.3c2.2-0.4,2.7-1.3,5-0.6c1.8,0.5,3.3,1.7,5,2.2c3.7,1.1,7-1.4,10.8-1.4
	c7.8,0,15.6,0.5,23.4,0.5c8.6-0.1,17.1,1.1,25.4,3.3c3.6,1,7.2,1.7,10.7,2.9c3.8,1.3,6.3,3.5,9.6,5.7c1.5,1,3.9,1.3,5,2.4
	c1.3,1.3,2.2,3.9,3.4,5.4c2.6,3.5,5.4,6.9,7.8,10.7s5.1,7.7,6.5,11.9c0.6,1.9,0.4,4,1.1,5.9c0.7,1.3,1.5,2.6,2.5,3.7
	c2.3,3.3,2,7,3.1,10.7c1.3,4.4,2.7,8.8,3.7,13.4c1.1,4.6,1.8,9.2,2.3,13.9c0.4,4.8-0.4,10,0.6,14.7c0.4,1.9,1.1,3.1,0.7,4.9
	c-0.3,1.6-0.8,3-1,4.8c-0.6,4.5-3,8.4-5.3,12.2s-4.2,7.8-6.7,11.4c-1.1,1.6-5.3,9.8-7.4,9.8c-2.2,0.2-2.8,1.4-2.9,2.3
	c-0.6,4-5.6,6.1-8.2,8.8c-3.5,3.5-6.7,7.4-10.6,10.6c-3.5,2.8-7.2,4.7-9.7,8.7c-0.4,1-0.8,1.9-1.1,2.9c0.4,0.8,0.2,1.2-0.3,1.2
	c-0.2,0.1-0.5,0-0.6-0.2C1709.6,1137.3,1710.1,1136.4,1710.3,1138.4C1708.5,1138.9,1710.1,1135.2,1710.3,1138.4z M1710.4,1138.4
	L1710.4,1138.4C1710.4,1138.4,1710.4,1138.3,1710.4,1138.4L1710.4,1138.4z"/>
    <path fill="#FFFFFF" d="M2809.9,888.1l-1.7,1.7l0,0l1.6-1.8c-1.1-1.4-2.8-2.4-4.6-2.5c-0.5-6.4-4.6-10.8-8.1-14.7l-1.1-1.2
	c-1.7-1.9-3.2-3.9-4.9-5.8c-1.3-1.5-3.2-2.9-4.1-4.7s-0.6-3.9-1.3-5.8c-0.8-2.1-2.6-3.3-3.8-5.1c-2.4-3.6-4.6-7.6-6.9-11.3
	c-0.9-1.5-4-2.2-5.4-3.1c-2.2-1.3-4.3-2.8-6.7-4s-4.9-1.6-7.3-2.5s-4.7-2.2-7.4-2.5c-2.8-0.4-5.7,0.3-8.5-0.6
	c-2.1-0.7-4.3-1.1-6.5-1.3c-5.7-0.5-10.9-2.4-16.7-1.8c-2.6,0.3-3.2-0.2-5.6-1.2c-1.3-0.6-2.7-0.9-4.1-0.9c-1.3,0-2.4,0.9-3.6,1
	c-2.2,0.1-3.7-1.5-6-0.8c-1.6,0.5-1.9,1.1-3.7,1.2c-1.5,0.1-2.8-0.3-4.3-0.1c-5.7,0.5-11.2-0.2-16.9,0.6c-2.3,0.3-4.1-0.8-6.2-0.7
	s-2.7,1.7-5.1,1.3c-2.1-0.2-4.3-1.3-6.4-1c-0.7,0.1-1.2,0.5-1.8,0.7c-1.1,0.1-2.1,0.2-3.2,0.1c-2.2-0.2-4.4-0.1-6.6,0.1
	c-1.6,0.3-3.6,2.3-5.3,1.5c-3.1-2-6,0.2-9.2-0.5c-4.6-0.6-7.7,1-12.1,1.2s-8.2,0.2-12.5,0.9s-8.5,0.1-12.7,1.1
	c-4.5,1.1-9.5,0.7-14.1,1.5c-8.8,1.5-17.5,3.2-26.4,4c-4.5,0.4-8.9,1.6-13.4,1.9c-3.8,0.3-7-0.6-10.7,0.7
	c-6.4,1.9-13.2,1.2-19.7,2.4s-13.2,2-19.6,3.4c-3.1,0.7-6,1.8-9.2,2.2s-6.5,0-9.7,0.6c-1.6,0.3-3.2,0.8-4.8,1s-3.4-0.3-5,0
	c-1.1,0.2-1.6,0.9-2.7,1.3c-1.5,0.5-3,0.1-4.6,0.2c-2.9,0.1-5.1,1.6-7.9,2.2c-3.2,0.6-6.6,0.6-9.9,1c-6.1,0.9-11.9,2.9-18,3.7
	c-2.8,0.2-5.6,0.8-8.2,1.6c-1.2,0.6-2.5,0.8-3.9,0.8c-2,0-4,0.2-5.9,0.7c-6.3,1.4-11.9,4.1-18.5,4.4c-3.2,0.1-5.3,1.8-8.3,2.5
	c-3.5,0.8-7,2.1-10.5,2.8s-6.4,0.6-9.9,0.5c-0.4,0-7.2,1.4-6.3,3.3c-1-1.3-2.8-1.8-4.3-1.2c-1.7-1.1-3.6-0.2-5.2-1
	c-1.2-0.5-2-2.6-3.6-3.5c-1.2-0.6-2.5-0.6-3.5-1.6c-0.4-0.3-0.3-1.2-0.8-1.7c-0.9-0.6-1.8-1.1-2.8-1.3c-3.4-1.4-7.6-2.1-9.9,1.6
	c-1.4,2.2-1.1,5.3-1.1,7.8c-1.5,0.4-2.7,1.6-3.1,3.1c-0.5,1.8,0.7,2.8,0.9,4.3c0.8,0.5,0.8,0.9,0.1,1.3c-0.5,0.6-1,1.1-1.5,1.7
	c-0.8,0.6-1.7,1.2-2.6,1.6c-1.3,0.8-2.2,2.1-2.5,3.6c-0.9,4.5,0.1,9.4-0.3,14c-0.2,2.5-1,4.9-1.3,7.4c-0.2,1.4,0.3,3.5-0.8,4.5
	c-1.7,1.6-2.9,0.4-3.5,3.1c-0.5,2.2-0.2,4.5,1,6.5c1,1.5,3.3,2.5,3.5,4.4s-1.8,3.6-1.8,5.6c0,2.3,1.5,4.3,2.2,6.4s0.8,4.2,1.8,6.1
	c2,3.5,5.7,5.6,9.1,2.8h0.4c1.9,0.1,3.9-0.2,5.7,0.3c2,0.6,3.1,2,4.8,3.2c1.2,0.9,2.9,1.2,3.9,2.5c1.3,1.6,1.1,3.7,3.4,4.5
	c3.5,1.3,4.4-2.2,7-2.7c0.4-0.1,2.2,0.9,2.8,1c1.1,0.1,2.1,0,3.2-0.2c1.4-0.3,2.9-0.4,4.4-0.4c2.5,0,4.9,0.8,7,2.1
	c2.3,1.3,4.6,1.7,6.8,0c1,1.1,2.8,0.7,4.1,1c2.3,0.5,3.5,1.2,5.8,0.7c1.5-0.4,2.4-1,4-0.4c1.4,0.5,2.2,1.7,3.9,1.7
	c1.5,0,2.6-1.3,4-1.3c1.7-0.1,3.2,1.3,4.9,1.4c3,0.1,4.6-3.1,7.6-2.7c2.7,0.1,6.1,0.8,8.8,0.1c1.2-0.3,1.9-1,2.9-0.9
	c1.5,0.1,3,1.2,4.7,1.3c3,0.2,6,0,8.9-0.7c3.1-0.8,5.6-0.5,8.7-0.6c2.9-0.1,5.7-0.9,8.6-1.3c3.1-0.4,5.9,0.2,8.8-0.8
	c6.1-2.1,13,0.6,19.4-1.5c2.6-1,5.3-1.6,8.1-2c3.4-0.5,6.8-1.6,9.9-3.1c3.1-1.4,4.4-1.5,4.9,2.2c0.4,2.8-1,4.1-1.5,6.9
	c-0.6,3,0.3,5.9,0.1,8.9s-1.6,5.8-1.6,8.9c-0.1,2.7,0,5.5,0.4,8.2c0.5,2.7-1.4,3.6-1.8,6.3c-1.2,7.6-2.1,15.4-3,23
	c-0.9,7.4-2.4,14.7-1.3,22.1c0.1,0.7,0.2,1.3,0.2,2c-2.8,3-1,6.5-2.1,9.8c-1.1,3.6-1.1,6.8-1.4,10.6c-0.6,9-1.2,18.3-2.4,27.2
	c-0.5,4.5-0.7,8.9-0.5,13.4c0,4.4-1,8.2-1.4,12.4s0.1,9.2,0.1,13.6c0,2.1,0.1,4.2,0,6.3s-1,3.2-1.4,5.2s0.8,3.4,0.6,5
	c-0.1,1-0.9,1.8-0.9,2.9c0.1,0.9,0.3,1.8,0.5,2.7c0.1,1.5,0.3,3,0.7,4.5c0.4,1.5,0.7,1.3,0.3,3c-0.3,1.1-0.7,2.2-0.9,3.3
	c-0.6,3.4,0.3,6.8,0.9,10.2c0.7,3.6-0.2,5.4-1.3,8.7c-1.1,3.6,0.5,5.3,1.3,8.5c0.8,2.9,0.1,6.7,0.1,9.7c0,1.9,0,3.8,0,5.7
	c0,3.8,0.1,7.6-0.1,11.4c-0.1,3.4,0.9,6.2,1.4,9.6s0.1,6.5,0.9,9.8c0.7,2.4,1.2,4.8,1.6,7.3c0.8,6,1.7,12.3,5.1,17.5
	c0.2,1.8-0.6,3.5,0.3,5.3c0.7,1.4,2.1,2.6,2.9,4c1.7,3,2.6,6.4,4.9,9.1c0.7,0.7,1.3,1.6,1.8,2.5c-0.2,2,0.7,3.5,3.1,4.4
	c-0.6,4.7,4.8,4.3,7.4,6.5c1.6,1.3,2.2,3.1,3.2,4.8s2.3,2.4,4,3.4c1.6,1,2.9,2.4,3.9,4c1.2,1.5,2.9,2.4,4.1,3.8s1.8,3.4,4,3.8
	c2,0.3,3.5-1,4.3-2.7c1.4,3.8,5.1,2.4,8.2,2.4c-0.4,2.4-1.5,4-0.2,6.4c0.8,1.3,2.4,3.4,3.9,3.9c4.8,1.8,5.6-4.9,3.4-7.7
	c0.7-0.4,1.5-0.6,2.3-0.7c1-0.5,1.6-0.2,1.6,0.9c1,1.1,1.4,2.3,2.8,3.1c1.3,0.7,2.7,0.8,4,1.2c0.7,0.1,1.3,0.4,1.9,0.7
	c1.1,0.2,1.5,0.7,1.3,1.7c1.5,2.5,2,4.5,5.6,3.8c3.3-0.6,2.5-1.1,4.3,1.8c1.3,1.9,3.7,2.8,6,2.2c3-0.6,3.5-3,4-5.7
	c0.3-1.2,0.5-2.5,0.5-3.8c0-0.9-0.3-1.9-0.6-2.7c0.7-0.2,1.4-0.6,1.9-1.1c1.8-1.7,2.5-4.2,1.9-6.6c-0.1-0.8-0.2-1.7-0.2-2.5
	c3.6-3.8-1-8.5-0.5-12.9c0.1-1.2,0.3-2.3,0.8-3.3c0.5-0.7,1.7-0.8,2.2-1.6c1-1.5-0.1-3.9,0.7-5c1.9,1,4.6,0.6,5.6-1.5
	c1.1-2.3-0.6-4.8-1.1-7.1c-0.4-3.1-0.5-6.1-0.2-9.2c0-0.4-0.5-6.1-0.8-5.8c0.9-1,1.2-2.4,1-3.7c2-5.7,1.3-11.9,1.3-17.8
	c0-3.6-0.1-7.2-0.1-10.8c0-1.1-0.6-4.3,0-5s1.8-0.5,2.5-1.6c2.7-4,1.8-9.4,2.4-14c0.7-5.6,1.8-11.2,1-16.8c-0.4-2.9,1-3.5,1.5-6.1
	c0.5-2.3-1.8-3.6-1.7-5.8c0.1-2.4,2.8-4.3,3.7-6.5c1-2.4,1-5,1.3-7.5c0.3-2.9,0.9-5.8,1.1-8.8c0.1-1.5-0.1-3.1,0.1-4.5
	c0.1-1,0.5-2,1.1-2.8c1.1-2,1.7-4.2,1.9-6.5c0.3-2.4,1.1-4.6,1.3-7c0.4-5.8,1.8-11.3,2.6-17c0.6-4.7,1.4-9.8,3.4-14.1
	c1.1-2.3,1.3-4.5,1.8-7c0.4-1.4,0.8-2.8,1.1-4.3c0.1-1.2-0.4-2.7-0.1-3.8c0.5-1.8,2.1-3.1,2.6-5.1c0.4-2.2,0.6-4.5,0.4-6.8
	c0-4.6,2.6-8.6,0.9-13.5c-1-2.8-0.4-4,0.8-6.9c0.9-2.2,1.3-4.5,1.4-6.8c0.2-7.2,0.9-14.4,1.9-21.5c0.6-3.4,1-6.9,1.2-10.4
	c0-1.1-1-6.6-0.5-7.5c2.3-4.2,1.7-8.8,1.7-13.3c0-2.1,0.4-4.3-0.2-6.3c-0.2-0.8-1.3-1.8-1.4-2.6c-0.1-1,1.1-3.2,1.4-4.2l0.4-1.3
	c0.6-2,0.8-4.2,1.7-6.1c1.1-2.2,3.4-2.6,4.7-4.5c1.6-2.2,0.3-3.7-0.5-5.8c-0.8-1.9-0.5-1.1,0.2-2.9c0.5-1.3,0.9-2.6,1.1-3.9
	c0.8-5.7,2.8-11.5,1.4-17.4c-0.6-2.4-2.3-2.4-3.6-4.2c-0.9-1.3-1.4-5.5-0.7-7c1.2-2.8,2.8-0.8,4.9-0.6c2.9,0.3,5.2-1.8,7.7-2.8
	c6.3-2.6,13.1-1,19.6-1.2c2.2,0.1,4.4-0.8,6-2.3c2.4-2.2,3.9-2.6,7.1-1.6c1.2,0.4,2.6,1.3,3.9,1.2s1.7-1,2.7-1.4
	c2.6-0.9,5.2-0.2,7.9-1.4c1.3-0.7,2.7-1.2,4.1-1.6c1.5-0.2,3,0.4,4.4,0.2c1.2-0.2,1.9-1.1,3.1-1.3s2.5,0.2,3.8-0.1s2.7-1.5,3.8-1.4
	c1,0,1.6,1.2,2.9,1.1c2-0.1,3.8-0.9,5.9-0.8c0.9,0,1.8,0.1,2.7,0.2l8.3,0.5c3.3-0.1,6.4-0.8,9.8-0.5c3,0.4,5.9,0.6,8.9,0.6
	c2.8-0.2,5-1.5,7.6-2.1c0.8-1,1.6-1,2.4,0l1.3,0.5c1.8,0.4,3.7-0.1,5.1-1.2c2,0.7,4.1,2,6.3,1.5c0.9-0.3,1.7-0.8,2.3-1.4
	c1.3-1,0.7-1.1,2.3-1.5c2.5-0.6,4.2,0.9,6.4,1.5c2.1,0.5,4.2,0.5,6.3-0.1c0.7-0.2,1.3-0.5,2-0.7c1-0.4,2.2-0.5,3.3-0.4
	c1.9,0,3.8,0,5.7-0.3c2.5-0.3,8.2-1.9,6.6-5.6C2811.5,901.9,2813.9,892.2,2809.9,888.1z"/>
    <path fill="#FFFFFF" d="M1821.7,407.9c0-101.8-48.4-195.9-126.2-245.6c-5.6-4.3-11.2-7.8-7.5-15.6s9-14.8,12.3-22.9
	c6.5-16,8.6-33.9,3.4-50.6c-9.9-31.8-40.8-53.5-71-64.2c-18.6-6.6-38.3-9.1-58-9.1h-0.6c-42.5-0.3-88.9,14.4-115.6,49.3
	c-12.8,16.7-18.2,37.2-14.3,58c2.2,10.8,6.2,21.1,12,30.5c2.4,4,6.4,8.8,6.8,13.5s-5.3,8.4-8.7,10.8c-17.9,12.6-34.7,25.5-49.6,41.7
	c-15.2,16.6-28.3,34.9-39.1,54.6c-22.2,40.4-34.7,86-37.2,132c-5,90.8,29.6,184.7,100,244c34.4,29,76.6,48.4,121.4,53.6
	c45.7,5.3,92.2-4.4,132.3-26.6c79.8-44.1,128.6-131,137.8-220.3C1821.1,430.1,1821.7,419,1821.7,407.9z"/>
    <path fill="#FFFFFF" d="M88.7,210.9c1.3,0.6,2.6,1,4,1.1c1.4,0.1,2.7,0.3,4,0.7c1.5,0.3,2.4,0,4,0.4c1.3,0.4,2,1.2,3.6,1.2
	c1-0.1,2-0.1,3-0.1h1.5c1.8,0,2.8,0.9,4.4,1c0.9,0.1,1.5-0.8,2.2-0.8c0.9,0.2,1.8,0.5,2.6,0.8c3.3,0.9,6.7,1.3,10.2,1.1
	c1.6,1.3,3.7,1.2,5.7,1.2c3.3,0,6.2,1.3,9.8,1.2c3.7-0.1,7.3-0.1,11-0.2c1.7,0,3.6-0.3,5.3-0.2s3.1,0.9,4.8,1.2
	c2.1,0.4,4.7-0.1,6.9-0.1l11.3-0.2c3-0.1,6-0.1,9-0.1l1.8-0.1c2.1,0,3.3,2,5.8,1.2c1.2-0.4,1.9-1.5,3.3-1.3h0.9
	c1.1,0,2.3-0.1,3.5-0.1h1.4c1.1,0,2.1-0.4,2.9-1.1c0.8,0.7,2,0.9,3,0.6c0.2,1.2-0.7,2.9-1,3.9c0.4,0.7,0.1,1.5-0.5,1.9
	c0,0-0.1,0-0.1,0.1c-0.4,0.5-0.6,1-0.5,1.6v0.8c-0.1,2.4-0.4,4.7-1,7c-0.2,0.9-0.5,1.7-0.7,2.5c-0.2,1.2-0.1,2.5-0.4,3.6
	c-0.4,1.1-0.7,2.2-1,3.3c-0.1,1.1-0.2,2.2-0.5,3.2c-0.4,1.4-0.3,2.8-0.6,4.1c0.1,0.5,0.1,1,0,1.4c-0.7,0.5-1.1,1.3-1.1,2.1v0.9
	c0,1,0.1,2.1,0.1,3.1c-1.9,1.8-1.3,4.3-1.1,5.3c-1.9,2.5-0.3,4.7-0.9,7.3c-0.4,1.6-1.4,2.4-1.1,4.1c0.2,3.5-1.3,6.4-0.8,9.9
	c0.1,1-1.1,2.4-1.2,3.5c-0.2,1.7,0.6,3.4,0.3,5.1c-0.2,1.5-1.1,2.4-1.2,3.9c-0.2,1.7,0.4,3.2,0,4.8c-0.5,1.4-0.8,3-0.9,4.5
	c0,1.7,0.4,3.3-0.1,4.9c-0.9,3.3-0.6,6-0.5,9.4c-1.2,1.5-1.2,3.3-1.1,5c0.2,1.2,0.3,2.3,0.3,3.5c-0.1,1-0.9,2.1-1,3.2
	c-0.3,1.9,0.5,4.1,0.1,6c-0.4,1.6-1.3,2.4-1.1,4.3v0.5c0,1.1,0.1,2.1,0.1,3.2l0.1,1.3c0.1,1.4,0.4,3.4,0.2,4.7
	c-0.2,1-0.8,1.8-1.1,2.8c-0.3,1.6,0.3,3.1,0.2,4.7c-0.2,1.2-0.5,2.4-0.9,3.5c-0.7,2.8-0.2,5.9,0,8.7s-0.8,4.7-0.9,7.6
	s0.2,4.9-0.5,7.9c-0.6,2.4-0.2,4.5,0,6.9s-0.8,4.8-0.9,7.2c0,1.9,0.1,3.8,0.2,5.7c0.1,1.3,0.1,2.5,0.1,3.8s-1.2,2.5-1.2,4
	c-0.1,1.9,0.5,3.9,0.4,5.8s-0.9,3.4-1.1,5.4c-0.2,1.7,0.4,3.5,0.2,5.2s-0.9,3-1,4.8c0,1.6,0,3.3,0.2,4.9c0.1,1.8,0.4,3.2-0.1,4.9
	s-1,2.5-0.8,4.4c0.3,1.4,0.3,2.9,0.1,4.4c-0.4,1.6-1,2.8-1,4.5c0,1.6,0.4,3.1,0.4,4.6s-0.6,3-0.9,4.6c-0.6,3.1,0.5,6.2-0.2,9.3
	c-0.6,2.5-0.8,5-0.5,7.6c0.1,1.2,0.3,2.5,0.2,3.6s-0.6,1.7-0.9,3c-0.3,1.7-0.3,3.3,0,5c0,0.7,0.5,4.3,0.2,4.7c-1.7,2.1-1,5-0.9,7.5
	c0.1,1.6,0.5,3.9,0.2,5.4c-0.3,1.3-1.1,2.1-1.2,3.7c-0.1,2.4,0.4,4.8,0.4,7.2s0.4,4-0.2,6.2c-0.5,2.2-0.7,4.5-0.6,6.7
	c0.2,2.2,0.4,4.4,0.4,6.6c-0.1,1.9-1,3.6-1.1,5.6c-0.2,4.5,0.5,9.3,0.7,13.8c0.1,3.2,0.2,6.3,0.2,9.5L185,575
	c-1.4,3.7-0.5,8.3-0.4,12.2c0.1,1.7,0.7,4.2,0.3,5.9c-0.2,0.9-1.3,1.2-1.3,2.4c0,0.8,0.5,1.1,0.8,1.8c1.2,3.3,0.7,7.3,0.7,10.9
	s0,7.5,0,11.2c-0.1,7.4,0,14.5,2.3,21.6c0.8,2.4,1.6,5.8,3.5,7.5c0.9,0.6,1.6,1.4,2.2,2.3c0.8,1.3,1.3,2.8,2.2,4.1l0.8,1.2
	c0.8,1.3,2.1,2,3,3.2c0.6,1,1,2,1.4,3c0.8,1.9,2.8,2.9,4.8,2.6h0.3c2.3,2.7,3.8,5.8,6.7,7.9c1.3,1,2.9,1.6,4.2,2.6s1.3,1.8,2.4,2.8
	l0.7,0.6c1.5,1.4,3.4,3.3,6.1,2.8l0.4,0.2c0.8,2.9,2.6,5.4,5.1,7.1c1.3,0.7,2.6,1.2,4,1.6c1.1,0.4,3.3,0.3,4.2,0.8
	c1.9,1.1,2.5,3.2,4.8,4.2s4.7,0.6,7,0.6c4.5-0.1,9,1.4,12.6,4.1c1.6,1.2,3.1,2.8,5.3,2.6c1.7-0.1,2.6-1.2,4.2-1.2
	c1.1,0,1.2,1,2.7,0.7c0.7-0.1,1.2-0.7,1.9-0.9c1.7-0.4,3.5,0.2,5.2-0.2c3.9-0.9,7.5,0.7,11.5-0.7c2.3-0.7,4.2-1.8,6.6-2
	s4.3,0.5,5.8-2c1.9-3.1,2.2-7.5,2.4-11.1c0.5-6.5,0.4-12.6,1.6-19c0.6-2.6,0.6-5.2-0.1-7.8c-0.4-1.2-2-2.7-2.1-3.7s0.9-2.6,0.8-3.8
	c-0.2-2.6-1.6-5-1.8-7.7c-0.2-3.4,0.4-6.8,0.2-10.2c-0.1-2.8,0.5-4.1,1.2-6.7c1-3.6-1.1-5.5-1.4-8.8c2.9-4.6,1.6-11.7,1.6-16.9
	c-0.1-3.2,0.2-6.4,1-9.6c0.6-2.2,1.3-4.4,0.3-6.6c-0.9-2-0.8-0.8-0.6-2.8c0.1-1.4,0.5-2.1,0.3-3.5c-0.5-2.9-0.6-5.8-0.3-8.7
	c0.2-1.5,0-2.9,0.1-4.4c-0.6-0.8-0.5-2,0.2-2.7l0.4-1.3c0.6-2.6,0-5.7,0.1-8.4c0.3-1,0.4-2,0.2-3c0.4-4.2,2.6-8,2.7-12.2
	c0.1-2.7-0.1-5.4-0.1-8.1c0-1-1-1.4-1.2-2c-0.2-0.9-0.2-1.8,0-2.7c0.1-2-0.2-4.1-0.2-6.1c0-1.8-0.6-3.7-0.2-5.5c0.5-2.2,1-3.5,0.9-6
	c-0.1-3.4-0.3-6.8-0.5-10.2c-0.1-1.8-0.1-3.7-0.1-5.5c1.2-1.3,0.7-2.4,0.3-3.8c-0.4-1.1-0.7-2.3-0.8-3.5c-0.2-1-0.3-1.9-0.3-2.9
	c0.2-1.3,1.3-2.4,1.3-3.7l-0.3-6.4c1.5-1.8,0.1-2.6,0.1-4.3c0.4-0.6,0.7-1.3,0.6-2c0-0.7-0.3-1.4-0.8-1.9c0-1.2,0.8-2.7,0.8-4.1
	c0-0.8-0.1-1.5-0.1-2.3c-0.1-1.1-0.2-2.3-0.2-3.4c2-2.5,1-6.8,0.9-9.8c0.2-1.9-0.4-3.7-1.5-5.2l0-2.9c1.8-2.1,0.9-5.7,0.8-8.2
	s-0.2-4.9-0.3-7.4c-0.1-1.3,0.9-2.3,1.1-3.6c0.3-1.6,0-3.2-0.7-4.7c0.9-1.4-0.2-1.6-0.1-2.8c0.2-1.5,0.3-2.9,0.3-4.4
	c-0.1-1.3-0.2-2.5-0.2-3.8c-0.1-2.1-0.2-4.2-0.3-6.3c-0.1-1.8,0.8-2.8,0.8-4.4s-0.9-2.1-0.6-3.9c0.4-1.9,0.6-3.8,0.5-5.7
	c-0.1-1.1-0.2-2.3-0.1-3.4c2-2.6,1-7.3,0.8-10.3c-0.2-1.2-0.3-2.4-0.2-3.6c0.2-1.4,1.4-1.9,1.2-3.6c-0.1-0.8-0.5-1.6-1.1-2.1
	c0.5-0.8,0.7-1.7,0.8-2.6c0.1-1.4,0-2.7-0.1-4c-0.1-2-0.8-4.9,0.4-6.7c0.8-1.6-0.2-2.9-0.9-3.8c0.1-1.3,0.3-2.6,0.7-3.8
	c0.4-1.5,0-2.4,0.1-3.8c0.2-1.9,1.3-3.2,1.2-5.4c0-1.8-0.1-3.6-0.2-5.3c2.4-3.1,0.8-9.9,0.6-13.7c1.4-2.1,0.7-4.1,0.9-6.4
	c0.2-2.1,1.2-3.9,1.2-6.1c0-1.8-0.4-3.6-0.3-5.4c-0.1-0.5-0.1-1.1-0.1-1.6c0.2-0.8,1.2-1,1.1-2.2l0-1.2c0-0.9-0.1-1.9-0.1-2.8
	c1.9-1.8,1.2-4.4,1.1-5.4c2.2-2.9,0.7-7.7,0.7-11.1c0-1.2-0.2-2.5-0.8-3.6c0.9-1.7,1.9-3.8,1.7-5.8c2.2-2.2,0.8-7.9,0.7-10.7
	c-0.2-1.8-0.1-3.6,0.4-5.4c0.5-1.6,0.2-3,0.6-4.5c0.1-0.5,0.9-0.9,1-1.6s-0.1-1.3,0-1.9c0.3-1.9,1-3.5,1.2-5.4
	c0-1.9,0.1-3.9,0.4-5.8c0.3-1,0.5-2,0.5-3.1c0-1.2-0.1-2.4-0.3-3.6c0.7-1.5,6.6-3.4,8-3.2c1.3,0.1,2.5,0,3.8-0.3
	c0.9-0.3,1.2-1.1,2.1-1.1h1.1c1.4,0.1,2.8-0.4,3.9-1.4h0.8c1.6,0,3.1,0,4.7-0.1h0.5l2.2,0.1c1.3,0,2.6-0.2,3.8-0.8
	c2.6,1.3,4.2-1.1,6.8-0.8h0.9h0.9c2.8,0.1,6.6-1.2,8.9-2.5c2-1.1,3.3-1.1,5.4-1.6c1.2-0.3,2.1-1.4,3.4-1.4c2.4,0.3,4.6-1.4,7-1.4
	s3.5-0.7,5.7-1.2c2-0.4,3.9-1,5.8-1.7c1-0.4,2-0.8,3-1c1.2-0.3,2.4-0.2,3.5-1c2.2,1.8,3.2,0.4,5.2-0.3s3.5-0.1,5.4-1.5
	c2.3,0.5,4.4-0.6,5.8-1.4l0.8-0.4c1.4-0.7,3-0.7,4.4-1.3s2.5-1.9,4.3-2.3s3.3,0.3,4.9-0.2s3-0.9,4.7-1.3s2.5-1.7,3.9-2.7
	s2.8-1.1,4.4-1.8c1.9-0.9,3.6-2.2,5-3.8c1.1-1.5,0.8-3.5,2-4.8l1.3-1.3c1.1-1.1,2.2-2.2,3.5-3.6c0.7-0.6,2.6-2.1,1.8-4.4
	c0.5-2,1.5-3.1,1.2-5.3s0.7-3,1-4.9c0.2-1.7-1-3-0.3-4.8c1-2.5,2.8-3.1,2.5-6.3c0-1.6-1.2-3-2.8-3.3c-0.3-2.1,1.9-3.3,0.8-5.7
	c-0.8-1.7-3.4-2.7-5.1-3.2c-0.2-0.8-0.5-1.6-0.8-2.3c-0.3-0.8-0.5-1.6-0.8-2.3c-0.8-2-1.3-2.3-3.3-3.1c-0.6-0.2-1.3,0.1-1.9-0.2
	s-1.1-1.2-1.8-1.7c-1.3-1-2.8-1.8-4.4-2.4c-1.5-0.6-3-0.8-4.6-0.6h-0.9c-6.8,0.1-13.6,0.3-20.5,0.3c-2.6,0-4.8,0.5-7.4-0.1
	c-1.3-0.5-2.6-0.8-4-0.9c-1.5-0.1-3,0-4.4,0.3c-2.1,0-3.3-1.8-5.7-1.3c-1.7,0.2-3.4-1.1-5.2-1.2c-1,0.1-2,0.1-3,0
	c-1.3-0.4-1.5-1.3-3-1.3c-3.3,0.2-6.1-1.8-9.4-2.4c-1-0.1-1.9,0.1-2.8,0c-0.9-0.2-1.8-0.6-2.7-0.9c-1.1-0.2-2.3-0.2-3.5-0.1
	c-0.4,0-0.8,0-1.1-0.1c-1.2-0.9-2.2-0.9-3.4-1.3c-1-0.5-2.1-0.8-3.3-1h-0.8h-3c-1.6-1.4-3.7-1.2-5.7-1.2c-0.5-0.8-1.3-1.2-2.1-1.2
	h-2c-1.1,0-2.2,0-3.3,0.1c-2-0.6-2.9-1.3-5.1-1.3s-4.4,0.5-6.5,0c-2-0.6-4.1-1-6.3-1.1c-1.1,0-2.3,0.1-3.4,0.3
	c-2.2,0-4.3-1.3-6.6-1.3c-1.2,0-2.4,0.1-3.5,0.1h-3.9c-1.7,0-1.8-0.3-3.4-0.8c-1.9-0.6-3.9-0.2-5.9-0.2h-0.9h-2
	c-0.8,0-1.5,0.1-2.2,0.2c-2.3-0.5-3.7-1.4-6.3-1.3s-5,0.5-7.6-0.5c-3.8-1.5-7.6-1.6-11.4-2.8c-4.1-1.3-7.2-3.2-11.7-1.8
	c-3.5,1.1-7.5,0.7-8.4,5.2c-1.8,3.5-15.6,2.2-19.4,2.3l-16.6,0.3c-2.4,0-5.2-0.4-7.6,0.1c-1,0.2-1.8,1.1-2.8,1.4s-2.8-0.1-3.9,0
	l-6.8,0.1c-2.7,0-5.8-0.4-8.4,0.5c-2,0.7-4.2,1.1-6.4,1.1l-3.4,0.1c-7.2,0.5-14.3,1.4-21.4,2.9c-3.3,0.6-6.4-0.1-9.7,0.8
	c-2.1,0.6-4.2,0.8-6.4,0.8c-2-0.1-4.1,0.4-5.8,1.4h-1.1c-1.4,0.1-2.8,0.1-4.2,0c-1.4,0-2.3,0.9-3.5,1.2c-1.2,0.2-2.4,0.3-3.7,0.1
	c-3-0.1-5.2,0.6-8,1.3c-2.5,0.6-5.1-0.1-7.7,0.4c-1.2,0.2-2.1,0.9-3.2,1.2c-1.5,0.2-3.1,0.2-4.6,0.2l-1.4,0.1c-1-0.1-2,0.4-2.6,1.3
	l-0.5,0.1H93c-0.3,0-0.5,0-0.8,0c-2.8,0-4.8,1.6-7.6,1.4c-4.4-0.2-7.6,2.7-12.1,2.8c-1.5,0-3.6-0.3-4.6,1.2c-1.7,1-4.1,0.3-6.1,1.5
	c-1.6-0.2-3.2,0.2-4.5,1.2c-2.4,0-3.6,0.9-5.8,1.6c-2.7-0.3-5.1,0.6-7.6,1.4c-1.6,0.5-5.2,1.2-6,2.6c-0.2,0.1-0.5,0.1-0.7,0.1h-1.1
	h-0.9c-0.9-0.1-1.8,0.3-2.4,1c-1.1,0.7-2.3,1.2-3.5,1.5c-1.4-0.1-2.8,0.5-3.8,1.6c-0.8,0.2-1.5,0.5-2.1,1c-0.9,0.2-1.7,0.7-2.2,1.4
	c-1.2,0.1-2.3,0.6-3.1,1.5c-0.9-0.1-1.8,0.4-2.3,1.2c-2.2,0.6-5.2,2-6.4,4c0-0.2-2.3,1-2.5,1.1c-1.9,1-3.6,2.3-5,3.9
	c-2.7,3.1-2,6-1.8,9.8c0.1,1.6,1.6,2.9,2.4,4.1c1.1,1.7,1.8,3.8,3.1,5.3c1.1,1.3,2.3,1.5,3.6,2.4c1.7,1.1,2,2.7,3.3,4l0.5,0.5
	c2.1,1.9,4,3.9,5.8,6.1c0.9,1.2,2,2.3,3.2,3.3c3.4,3,6.6,6.9,10.5,9.1c1.4,0.8,2.8,2.4,4.4,2.8c1,0.3,1.8-0.1,2.7,0.4
	c0.7,0.3,1.1,1.2,1.7,1.6c2.4,2.1,6.8,3.1,10,3.1c2.2,0,2.3,0,4.1,1.2c1,0.8,2.4,1.3,3.7,1.1h0.2c0.7,0.8,1.7,1.3,2.8,1.2h0.8
	l2.2,0.1c0.9,0,1.6-0.1,2.2,0c0.9,0.7,2.1,1.1,3.2,1.1c0.3,0,0.6,0,0.9,0.1c1,1.1,3.4,1.4,4.7,1.8c1.4,0.4,2.9,0.6,4.4,0.5
	c0.8,0.8,1.9,1.3,3.1,1.3h1c0.8,0,1.5-0.2,2.2-0.6c0.4,0.3,1.9,0.8,1.7,0.7L88.7,210.9z"/>
    <path fill="#FFFFFF" d="M491,628.8c2,1.2,3.8,2.6,5.4,4.2c2,1.9,4.2,3.5,6.6,5c1.9,1.2,3.4,2.9,5.4,4.2c3.1,2,6.1,3.2,9,5.7l1.1,0.9
	c0.5,0.5,1.2,0.7,1.8,0.5c2.3,1.2,4.3,3.2,6.6,4.4c1.2,0.6,3.8,2.3,5,2.1c1.1,1.5,5.8,3.8,7.6,3.3c1.5,0.2,2.8,1.7,4.2,2.2
	c1,0.3,2,0.1,2.9,0.3c3.2,0.9,6.6,2.9,9.9,3.9c2.2,0.7,4,1.6,6.2,2.2c1.5,0.4,3.1,0.7,4.7,1c1.9,0.3,3.3,1.5,5.1,2.1
	c3.2,1.1,7,1.1,10.4,1.7c1.7,0.3,3,1,4.7,1.1c1.4,0.1,2.8-0.3,4.2-0.2c1.9,0.1,3.5,1.2,5.5,1.4c2.4,0.2,4.8-0.5,7.1-0.3
	c2.7,0.1,4.8,1.4,7.6,1.3s5.8,0.1,8.6-0.1c1.9-0.1,3.3-1.1,5-1.5c1.5-0.1,3.2,0.2,4.6-0.1c1-0.2,1.7-0.9,2.6-1.1
	c2.3-0.6,4.4-0.6,6.8-1.4c3.6-1.2,7.6-2,10.8-4.2c1.6,0.2,3.2-0.4,4.3-1.6c0,0.1,17.3-9.1,18.3-9.7c6.6-4.1,12.6-8,18.1-13.6
	c2.1-0.4,3.8-1.9,4.4-4c4-1.6,6-5.7,8.4-8.9c1.5-2,3.7-3.7,5.4-5.5c3.2-3.1,6-6.5,8.5-10.2c1.5-2.5,2.9-5.2,5-7.4
	c3.2-3.3,5-6.4,7.5-10.1c1.1-1.6,2.5-2.6,3.5-4.2c0.9-1.4,1.8-3.5,2.8-5c1.3-1.9,3.3-3.1,4.5-5.1s1.6-4.3,2.8-6.3
	c2.1-3.6,4.5-6.6,6.5-10.3c0.8-1.2,1.2-2.7,1.2-4.2c3.1-4.3,4.9-10.4,6.6-15.4c0.9-2.6,1.7-5.1,2.8-7.6c0.5-1.1,1.1-2.1,1.7-3
	c0.5-0.7,0.5-2.8,0.8-3.2c1.1-1.4,0.8-3,1.5-4.5c0.3-0.6,1-0.8,1.3-1.4c0.7-1.3,0.3-1.7,0.6-3c0.8-3.3,2.1-6,2.5-9.2
	c2.1-3,1.8-5.9,2.5-9.2c0.3-1.5,0.5-2.9,0.7-4.3c0.3-1.9,1.8-3.4,2.3-5.3c0.4-1.5,0.2-3.3,0.4-4.7c0.3-1.7,0.8-3.3,1.5-4.8
	c0.8-1.4,2-2.3,2.5-3.9c0.3-1,1.5-3.7,1.5-4.6v-1.2c0-1.1,0-2.2-0.1-3.1c1.1-3.3,1.2-6.5,2.9-9.6c0.8-1.2,0.8-2.8,0-4
	c0.6-1.3,0.8-2.7,0.5-4.1c1.2-1.7,1.9-5,2.2-7.1c0.2-1.5-0.3-2.9-0.1-4.4s0.9-2.5,0.9-4c1.1-0.8,1.4-2.3,0.8-3.5
	c1-1.9,0.1-4.4,0.8-6.4c0.8-2.5,0.7-4,0.5-6.6c-0.1-1.9,0.7-3.8,0.9-5.8s0.9-3.5,1.2-5.6c0-0.4-0.4-0.9-0.3-1.2
	c0.2-1.1,1.3-2.1,1.5-3.4c0-1.4,0-2.8-0.2-4.2c0-1.3,0.1-2.7,0.3-4c0.1-2.1,0.3-4.2,0.6-6.3c0.1-0.6,0.7-1,0.8-1.7
	c0.2-1.3-0.3-2.2,0-3.5c0.7-1,1.1-2.2,1-3.4l-0.5-1.2c0.4-0.7,0.6-1.4,0.7-2.2c1.1-1.1,1.6-2.6,1.4-4.1c-0.1-0.6-0.8-1.5-0.8-2.1
	c0-0.9,1.2-2.3,1.5-3.1c0.6-1.5,1-3,1.3-4.5c0.1-1.2-1.7-3.5-1.3-4.2c0.9-0.9,1.3-2.1,1.2-3.4c-0.2-1.1-1.5-1.8-1.6-2.8
	s1.2-2.4,1.6-3.2c1.2-2.3,1.1-3.2,0.1-5.5c0.3-0.7,0.6-1.5,0.6-2.3c4.9-2,0.8-7.6,0.7-10.5l-0.1-2.3c-0.1-3,0.6-6.7-1.8-9
	c0-0.1-0.1-0.2-0.1-0.3c1-1.1,1.5-2.6,1.3-4.1l-0.1-0.6c0-0.1,0-0.2,0-0.3c1.1-1.2,1.4-3.7,1.8-5.1c0.5-2.2,0.8-4.4,1-6.7
	c0.2-1.2,1.4-2,1.7-3.4s0.2-2.5,0.6-3.8s0.3-2.9,0.6-4.3s1.2-2.1,1.1-3.7c0.8-1.1,1.1-2.4,1.1-3.8c1.4-1.8,0.5-3.6,1.1-5.2
	c0.8-2,2.8-2.4,2.8-5.1c1.1-1.2,1.2-3.5,1.6-4.9c0.7-2,0.2-3.8,0.7-5.8c0.9-3.8,3.3-7.4,4.4-11.2c0.8-2.8,1.1-6.1,2.5-9
	c0.8-2,1.7-3.9,2.9-5.6c1.2-1.6,1.9-2.6,2.1-4.7c0.6-0.7,1-1.6,1.1-2.5c1-1,1.4-2.5,1.1-3.9c3.9-2.3,3.4-8.8,4.1-12.1
	c0.2-0.8,0.6-1.3,0.7-2.1c0.1-0.8,0.1-1.6-0.1-2.4c0.4-0.4,0.7-0.9,0.9-1.4c0.2-1,0.1-2.2,0.3-3.1s1-1.9,1.2-3.2
	c1.4-1.2,0.9-2.5,1.2-4c0.2-0.9,1.1-1.2,1-2.4c-0.1-1.4-0.9-1.3-1.3-2.4c-0.5-1.5-0.2-2.3-1.5-3.5c0.1-1.3-0.3-2.6-1.2-3.6
	c0.8-1.4,0.6-3.1-0.6-4.2c0-0.5,0-0.9,0-1.4v-0.9c0-1.3-0.4-2.5-1.2-3.5c0.6-0.8,0.9-1.7,0.9-2.7c0.2-2-1.2-3.4-1.7-5.2
	s0.4-4-1.6-5.2c-0.2-1-0.7-1.9-1.5-2.5c0,0,0,0,0-0.1c-0.6-2.4-2.1-2.2-3.8-3.3c-1.8-1.2-2.9-2.6-5-3.6s-4.3-1.8-6.5-2.9
	c-1.6-0.7-3.6-2.3-5.5-2.1l-0.8,0.1c-0.3,0-0.8,0.1-1,0.1c-1.3-1-2.9-1.4-4.5-1.4c-1.8-1.5-4.3-1.2-6.3-2.2c-2.5-1.2-4.5-1.4-7-2
	c-0.9-0.3-1.9-0.5-2.9-0.7c-1.4-0.2-2.8-0.6-4.1-1c-1.4-0.3-2.9,0.3-4.2,0c-0.8-0.2-1.8-0.9-2.7-1.2c-8.3-2.2-17.9-1-26.7-0.8
	c-2.3-0.6-5.3,0.8-7.5,1.4s-4.7,3.4-6.6,3.6c-1.3,0.2-3.2-1-4.8-0.9c-1.4,0.2-2.7,0.7-3.9,1.3c-2.6,1.3-5.2,1.8-7.7,3.4
	c-2.1,1.4-3.9,2.8-4.3,5.4c-0.1,1-0.3,2.1-0.5,3.1c-0.4,1.1-0.7,2.4-0.7,3.6c0.1,2.1,1.4,4.4,2,6.4c0.3,0.8,1.1,1.6,1.1,2.4
	c0,1.3-0.8,1.4-0.9,2.8l-0.2,3.2c-0.8,1.1-1.2,2.4-1,3.7c-1.2,1.3-1,2.6-1.2,4.1c-0.2,1.1-0.5,2.1-0.9,3.1c-0.8,2.6-1.3,5.4-2,7.8
	c-0.4,1.4-0.1,2.8-0.4,4.2c-0.2,1.1-1,2-1.2,3.4c-0.4,3.1-0.6,6.2-0.9,9.2c-0.2,2.6-1.2,4.9-1,7.8c0.2,2.4-0.9,3.6-1.1,6
	c-0.1,1.3,0.3,2.6,0.2,3.9c0,1.6-0.7,2.7-1,4.2c-0.4,2,0.2,4.1,0.2,6.2c0.2,1-3.2,5.2-3.8,6.1c-1.1,1.7-3.5,3.8-3.7,5.9
	c-0.6,2.9-2.3,5.8-2.9,8.6c-0.2,1.3-0.3,2.7-0.3,4.1c-0.1,1.6-1.1,2.3-1.4,3.9s0.7,3.3,0.3,5c-0.3,1.4-1.3,1.4-1,3.1
	c0.4,0.5,0.7,0.9,1.1,1.4c0.2,0.6,0.3,1.2,0.2,1.8c0.2,2.1,0.3,4.1,0.3,6.2l0.2,4.7c0.2,2.3,0.6,4.9,0.4,7.2c-0.2,1.7-1,2.8-1.2,4.5
	c-0.2,1.9,0.6,3.7,0.3,5.5s-1.4,2.8-1.1,4.7s-0.3,3.1-0.8,4.9c-0.5,2,0.3,3.5,0,5.3c-0.1,1.1-1,2.1-1.2,3.2c-0.4,2,0.3,3.7-0.1,5.6
	c-0.3,1.5-0.6,3-0.7,4.5c-0.1,1.5-0.9,2.6-1.1,4.2c-0.2,1.4-0.2,2.7-0.4,4c-0.3,1.7-1,2.5-0.6,4.4c-0.5,1.6-0.9,3-1.2,4.6
	s-1.1,2.9-1.2,4.6c0,1.9-0.4,3.7-1,5.4c-0.7,2.1-1.7,3.7-1,6.1v0c-1.3,1.6-1.2,4.1-1.7,5.9s-0.6,3.5-0.9,5.2c-0.3,1.5-1.1,3-1.5,4.5
	c-0.3,1.2-0.3,2.4-0.5,3.6c-0.2,0.9-1.1,1.2-0.9,2.4c-1.3-0.6-1.4,5.1-1.5,5.5c-0.5,2.5-2,4.6-2,7.2c-1.2,1.6-1.4,4.4-2.2,6.2
	c-0.6,1.6-1,3.3-1.3,5.1c-0.8,2.9-1.9,5.8-3.3,8.5c-0.1,0.2-0.1,0.4-0.2,0.6s0,0.1,0,0.2c-0.1,0.5-0.2,1-0.2,1.5
	c-0.4,0.6-0.6,1.3-0.8,1.9c-0.8,1.6-2.7,5.3-2.7,7.1l-0.4,1c-0.4,1.2-0.5,2.6-1.3,3.7c-0.5,0.8-1.3,1.1-1.7,2s0.1,1.6-0.2,2.4
	c-0.4,0.9-0.9,1.7-1.4,2.5c-0.8,1.7-0.5,3.1-0.9,4.8c-0.3,1.6-1.4,2.7-1.3,4.4c0,0.2,0,0.4,0,0.8c-1.1,1.1-0.8,3.3-1.1,4.6
	c-0.3,1.1-0.7,2.2-1.2,3.3c-1.6,4.2-3.3,9.7-6.1,13.2c-3,3.7-4.7,8.3-8.5,11.3c-2,0.7-1.4,2.6-2,4c-1.8,1.6-2.8,4-4.2,5.9
	c-1.8,0.5-1.9,2.4-3,3.6s-2.7,1.7-4,2.5c-1.2,0.7-2.1,2-3.3,2.6c-1.6,0.9-3.5,1.1-5.2,2c-1.7,0.6-2.8,2-4.6,2.3
	c-2.7,0.4-5.7-0.3-8.3,0.5c-0.4-0.2-0.9-0.4-1.4-0.3c-0.2,0-0.3,0-0.5,0.1c-0.3-0.1-0.6-0.2-0.9-0.2c-1.3-0.5-2.6-0.7-4-0.7
	c-0.8-0.4-1.6-0.8-2.5-1l-0.7-0.2c-2.8-0.9-5.5-3.3-8-4.8c-0.5-1-2.9-2.2-3.8-3.1c-1.1-1.1-2.2-2.1-3.4-3l-0.6-0.5
	c-2.4-1.8-4-4.3-6.6-5.9c-1.2-0.7-2.6-1.2-3.7-2c-1.3-1-2.4-2.1-3.3-3.5c-2.5-2.8-4.4-6.2-5.4-9.9c-0.4-1.7-0.6-3.4-1-5
	c-0.2-0.7-0.6-1.4-0.7-2.1c-0.2-1,0.2-1.8-0.1-2.8l-0.2-0.7c-0.5-1.7-0.7-3.5-0.6-5.2v-0.5c0-0.3,0-0.6,0-0.9
	c0.2-0.4,0.3-0.9,0.2-1.4c0.5-1.2-0.4-2.6-0.2-3.9c0-0.7-0.3-1.4-0.8-1.8c-0.8-2-1.4-4.2-1.8-6.3c-0.3-2.5-1.6-4-1.9-6.4
	c-0.1-1.7-0.4-3.3-0.8-4.9c-0.8-0.3-1-0.9-0.6-1.8v-1.4c-0.6-2.1-1.4-2.2-1.1-4.6c0.5-4.8,2.7-13.7-0.1-18.2
	c-0.2-6.1,0.2-12.2,0.1-18.4c0-2.4-0.1-4.8-0.4-7.2s-1.3-4-2.2-6.1s-0.4-5.4-0.5-7.7c-0.2-2.5-1-4.8-1.1-7.3s0.9-4.8,1.2-7.3
	c0.2-2,0.1-4.1,0.8-6c1.9-5.3-1.3-9.4-1.6-14.3c-0.1-1.2-1.3-2.2-1.5-3.1c-0.6-2.2,0.2-3.5-2-5.4c0.8-1.7-0.1-2.7-0.7-4.2
	c-0.6-0.2-1-0.8-0.8-1.4c0-0.2,0.1-0.3,0.2-0.4l-0.2-0.9c-0.3-0.6-0.7-1.1-1.3-1.5c-0.1-0.8-0.1-1.6,0-2.5c-0.1-1.6-0.8-2.2-1.3-3.5
	c-0.6-2-1.1-4.3-1.8-6.4s-1.8-4.5-1.8-6.8s-1.9-4-2.8-6c-0.6-1.6-1.3-3.1-2.3-4.5c-2.5-3.3-4.8-6.9-7.2-10.1s-7-4.4-9.6-7.8
	c-1.4-1.9-2.7-2.1-4.4-3.6c-0.7-0.6-0.5-1.6-1.4-2.2c-0.5-0.3-1.5-0.2-1.8-0.4c-0.6-0.5-1.3-0.9-2.1-1.1c-0.9-3.1-3.6-2-5.9-2.7
	c-2.8-0.8-4.7-3-7.8-3.6c-0.6-0.1-1.3,0.3-1.8,0.2c-1-0.2-2.7-1-3.8-1.2c-2.4-0.6-4.5-1.8-7.1-1.2c-1.8-0.8-2.6-1.7-4.7-1.3
	c-0.6,0.1-1.4,0.6-2,0.7c-1,0.1-2.1-0.8-3.2-0.7c-2.2-2-4.4,0.1-6.8,0.1c-1.9,0-3.7,0.1-5.6,0.2c-2.4,0.1-5.4,0.6-7.8,0
	c-2.1-0.5-3.4-1.4-5.9-1.3c-2,0.1-4,0.6-5.8,1.5c-1,0.6-2,1.1-3.1,1.5c-0.9,0.3-1.6,0.1-2.5,0.7s-0.8,1.5-1.3,2s-1.8,0.9-2.5,1.6
	c-1.7,1.5-2.5,3.5-3.7,5.4c-1,1.4-1.8,3-2.4,4.7c-0.5,1.5-1.9,4-1.4,5.6c-0.3,1.3-1.5,2.3-1.9,3.6c-0.5,1.5-0.5,3.2-0.9,4.8
	c-0.8,2.9-0.5,5.3-0.4,8.2c0.1,1,0.1,2,0.1,2.9c-0.2,0.9-1,1.7-1.2,2.6c-0.3,1.4,0.2,2.6,0.3,4c0.1,2.1-0.9,2.9-1.2,4.9
	c-0.4,2.3,0.2,5.1,0.4,7.4c-2.4,2.9-1,8.2-0.8,11.7c-0.1,2.5,0.1,5,0.5,7.5c-1.7,1.1-0.5,2.4-0.5,3.8s-0.6,3.2-0.6,4.9
	c0,3.6,0.4,7.3,1.4,10.8c1.2,3.7,0.7,8.9,0.8,12.9c0.1,1.9-0.2,3.7-0.2,5.6c0,0.1,0.2,2.4,0.3,2.8c0.1,0.5,0.1,1.1,0.6,1.4
	c2.3,4.5,1.6,10.6,1.7,15.5c0.1,8.7-0.3,17.5-0.9,26.2l0,0.5c-0.3,3.2,1.7,5.9,1.9,9.1c0.1,3.3,0,6.5-0.3,9.7
	c-0.1,3.3-0.3,6.5-0.2,9.8c0,2.8,0.9,5,1.4,7.6c0.1,3.2,0,6,1.2,8.9c1.1,2.7,0.3,5.5,1.1,8.4c0.5,2,1.2,2.8,1.4,4.9l0.4,4.1
	c0.1,1.2,1.1,2.1,1.4,3.4c0.2,1.1,0,2.1,0.4,3.2c0.8,1.9,1.3,3.8,1.6,5.8c0.3,2.7,0.1,5.9,1.8,8.1c0.8,3.2,1.4,6.4,1.7,9.6
	c0,1.1,0.5,2.2,1.5,2.8c0.5,1.5,0,3.1,0.2,4.6c0.3,1.9,1.3,3.2,1.5,5.1c0,0.8,0.1,1.5,0.2,2.3c0.3,0.9,1.2,1.5,1.5,2.2
	c0.6,1.9-0.2,3.5,1.5,5.2c0.2,1.5,0.8,2.9,1.8,4.1c0.4,1.3-0.4,2.7,0.1,4c0.2,0.7,1,1.2,1.2,1.8c0.3,0.9,0.3,2.1,0.6,3
	c0.7,2.6,1.6,5.1,2.7,7.5c-0.1,1.3,0.4,2.5,1.4,3.3c0,1.6,1.1,2.3,1.5,3.6c0.4,1.1,0.5,2.3,1,3.5c1,2,1.9,3.8,2.7,5.9
	c0.4,0.9,0.9,1.8,1.4,2.7c0.5,0.9,0.9,1.9,1.2,2.9c0.8,2.2,2.5,3.6,3.7,5.6s2,4.5,3.4,6.7s2.7,4.2,4.3,6.4c2.3,3.1,4.3,6,7.3,8.6
	c0.5,2.5,2.9,3.5,4.3,5.2c0.8,1.1,1.6,2.1,2.5,3c2.9,2.8,5.9,5.5,9,8.2c2.8,2.5,5.7,5.6,9.1,7.3l-0.1-0.1L491,628.8z"/>
</svg>
