<?xml version="1.0" encoding="UTF-8"?>
<!-- Generated by Pixelmator Pro 2.4.5 -->
<svg width="250" height="80" viewBox="0 0 250 80" xmlns="http://www.w3.org/2000/svg" xmlns:xlink="http://www.w3.org/1999/xlink">
    <g id="Cc-sa">
        <path id="path1334" fill="#000000" stroke="none" d="M 208.984375 0.003868 C 187.380661 0.551811 170 18.268871 170 40.003864 C 170 62.083862 187.919998 80.003868 210 80.003868 C 232.080002 80.003868 250 62.083862 250 40.003864 C 250 17.923874 232.080002 0.003868 210 0.003868 C 209.654999 0.003868 209.327286 -0.004829 208.984375 0.003868 Z M 208.945313 6.878868 C 209.299728 6.86763 209.642868 6.878868 210 6.878868 C 228.285004 6.878868 243.125 21.718864 243.125 40.003864 C 243.125 58.288868 228.285004 73.128868 210 73.128868 C 191.714996 73.128868 176.875 58.288868 176.875 40.003864 C 176.875 22.075989 191.153641 7.44297 208.945313 6.878868 Z"/>
        <path id="path2371" fill="#000000" stroke="none" d="M 192.64473 33.484547 L 189.21875 33.484547 L 196.992188 42.195484 L 204.765625 33.484547 L 201.960815 33.484547 C 202.568436 29.234798 206.3069 26.501514 210.625 26.843922 C 210.7957 26.85746 210.959824 26.843922 211.132813 26.843922 C 218.167099 26.843922 220.941345 32.163757 221.171875 40.007984 C 221.41246 48.194489 216.667511 53.283455 211.132813 53.17205 C 205.291077 53.056782 203.077759 50.262665 202.226563 46.023609 L 191.796875 46.023609 C 193.513351 55.787651 200.701691 61.513657 210.898438 61.531425 C 222.441666 61.551735 230.78125 51.894737 230.78125 40.007984 C 230.78125 27.314369 222.444534 18.484547 210.898438 18.484547 C 210.555634 18.484547 210.221375 18.465931 209.882813 18.484547 C 209.800812 18.489059 209.730347 18.483208 209.648438 18.484547 C 202.433182 18.604515 192.644775 23.659229 192.64473 33.484547 Z"/>
    </g>
    <g id="Cc-bynew">
        <path id="Path" fill="#000000" stroke="none" d="M 123.982262 0.004341 C 102.381866 0.551186 85 18.269951 85 40.002171 C 85 62.081051 102.918953 80 124.997833 80 C 147.076706 80 164.995667 62.081051 164.995667 40.002171 C 164.995667 17.92329 147.076706 0.004341 124.997833 0.004341 C 124.651169 0.004341 124.324036 -0.005424 123.982262 0.004341 Z M 123.943199 6.878967 C 124.299622 6.869209 124.641403 6.878967 124.997833 6.878967 C 143.282974 6.878967 158.121033 21.71703 158.121033 40.002171 C 158.121033 58.287308 143.282974 73.125374 124.997833 73.125374 C 106.712692 73.125374 91.874626 58.287308 91.874626 40.002171 C 91.874626 22.073456 106.151199 7.445343 123.943199 6.878967 Z"/>
        <path id="path1" fill="#000000" stroke="none" d="M 130.778763 19.925133 C 130.778763 23.113438 128.19101 25.70607 124.997833 25.70607 C 121.804642 25.70607 119.216896 23.113438 119.216896 19.925133 C 119.216896 16.731953 121.804642 14.144196 124.997833 14.144196 C 128.19101 14.144196 130.778763 16.731953 130.778763 19.925133 Z"/>
        <path id="path2" fill="#000000" stroke="none" d="M 119.016708 65.860146 L 130.978943 65.860146 L 130.978943 46.642437 L 134.596924 46.642437 C 134.596924 46.642437 134.592041 32.902946 134.596924 30.739979 C 134.592041 30.16872 134.645737 29.035969 133.820587 28.205936 C 132.990555 27.380787 131.872452 27.429611 131.286545 27.429611 C 130.69577 27.434494 119.299896 27.434494 118.709106 27.429611 C 118.123199 27.429611 117.005096 27.380787 116.175064 28.205936 C 115.349915 29.035969 115.403625 30.16872 115.398743 30.739979 C 115.403625 32.902946 115.398743 46.642437 115.398743 46.642437 L 119.016708 46.642437 Z"/>
    </g>
    <g id="Cclogocircle">
        <path id="path3" fill="#000000" stroke="none" d="M 39.89082 0 C 28.931982 0 19.288408 4.055595 11.836098 11.616463 C 4.164155 19.396961 -0 29.479797 -0 39.999371 C -0 50.63002 4.05434 60.493225 11.726282 68.163902 C 19.398224 75.835846 29.369982 80 39.89082 80 C 50.410389 80 60.603043 75.835846 68.493355 68.055351 C 75.945663 60.712852 79.89019 50.959465 79.89019 39.999371 C 79.89019 29.150349 75.945663 19.288406 68.383537 11.72628 C 60.712856 4.054337 50.849651 0 39.89082 0 Z M 39.999371 7.232681 C 48.986572 7.232681 56.986702 10.629387 63.232304 16.877514 C 69.369354 23.013298 72.65625 31.123245 72.65625 39.999371 C 72.65625 48.985313 69.477905 56.876884 63.342117 62.904118 C 56.875622 69.259537 48.54731 72.657509 39.999371 72.657509 C 31.342875 72.657509 23.232933 69.260796 16.986069 63.012669 C 10.739204 56.765808 7.23268 48.54731 7.23268 39.999371 C 7.23268 31.342873 10.739204 23.124378 16.986069 16.766438 C 23.123117 10.520836 31.013428 7.232681 39.999371 7.232681 Z"/>
        <path id="c" fill="#000000" stroke="none" d="M 39.484375 33.352375 C 37.224949 29.232399 33.370045 27.592731 28.895376 27.592731 C 22.382179 27.592731 17.198126 32.19994 17.198126 39.998108 C 17.198126 47.92881 22.071665 52.404739 29.11627 52.404739 C 33.636379 52.404739 37.491283 49.923161 39.616909 46.157879 L 34.655014 43.632114 C 33.546761 46.28915 31.862921 47.088154 29.737295 47.088154 C 26.059107 47.088154 24.375269 44.030991 24.375269 39.998108 C 24.375269 35.967751 25.794033 32.909321 29.737295 32.909321 C 30.800108 32.909321 32.926998 33.484909 34.167786 36.144463 L 39.484375 33.352375 Z"/>
        <g id="Group">
            <path id="path4" fill="#000000" stroke="none" d="M 62.559525 33.352375 C 60.300102 29.232399 56.445194 27.592731 51.970528 27.592731 C 45.457329 27.592731 40.273277 32.19994 40.273277 39.998108 C 40.273277 47.92881 45.146816 52.404739 52.191422 52.404739 C 56.711533 52.404739 60.566433 49.923161 62.692062 46.157879 L 57.730164 43.632114 C 56.62191 46.28915 54.938072 47.088154 52.812447 47.088154 C 49.134254 47.088154 47.450417 44.030991 47.450417 39.998108 C 47.450417 35.967751 48.869186 32.909321 52.812447 32.909321 C 53.875259 32.909321 56.002148 33.484909 57.242935 36.144463 L 62.559525 33.352375 Z"/>
        </g>
    </g>
</svg>
